<svg width="87" height="65" viewBox="0 0 87 65" fill="none" xmlns="http://www.w3.org/2000/svg">
<rect x="8.65039" y="55.25" width="3.7" height="9.5" fill="#979797" stroke="black" stroke-width="0.5"/>
<rect x="8.65039" y="46.25" width="3.7" height="9.5" fill="#979797" stroke="black" stroke-width="0.5"/>
<rect x="8.65039" y="43.25" width="3.7" height="3.5" fill="#979797" stroke="black" stroke-width="0.5"/>
<rect x="85.8496" y="39.25" width="3.5" height="85.6" transform="rotate(90 85.8496 39.25)" fill="#979797" stroke="black" stroke-width="0.5"/>
<rect x="73.75" y="55.25" width="3.7" height="9.5" fill="#979797" stroke="black" stroke-width="0.5"/>
<rect x="73.75" y="46.25" width="3.7" height="9.5" fill="#979797" stroke="black" stroke-width="0.5"/>
<rect x="73.75" y="43.25" width="3.7" height="3.5" fill="#979797" stroke="black" stroke-width="0.5"/>
<path d="M71.8742 21.9333C70.9467 21.9333 70.2992 22.3534 70.2992 22.9547V24.7883C69.4679 23.1195 68.1894 21.9333 66.6242 21.9333H51.9242C51.6344 21.9333 51.3993 22.1719 51.3992 22.4664C51.3992 22.4663 51.3992 22.4665 51.3992 22.4664V25.6711C51.4022 24.801 51.0579 23.9328 50.3764 23.2989C49.0933 22.1055 47.1007 22.1947 45.926 23.4982C44.8258 24.7188 44.8234 26.5902 45.9203 27.8138C45.6177 27.8477 45.3318 27.9725 45.0992 28.1721V14.6799C45.0992 13.9623 44.4076 13.4 43.5242 13.4C42.6408 13.4 41.9492 13.9623 41.9492 14.6799V37.7201C41.9492 38.4377 42.6408 39 43.5242 39C44.4076 39 45.0992 38.4377 45.0992 37.7201V34.2H70.2992V37.9787C70.2992 38.5799 70.9467 39 71.8742 39C72.8017 39 73.4492 38.5799 73.4492 37.9787V22.9547C73.4492 22.3534 72.8017 21.9333 71.8742 21.9333ZM44.0492 37.7201C44.0436 37.7638 43.8672 37.9333 43.5242 37.9333C43.1797 37.9333 43.0043 37.7638 42.9992 37.7201V14.6799C43.0043 14.6362 43.1797 14.4667 43.5242 14.4667C43.8672 14.4667 44.0436 14.6362 44.0492 14.6799V37.7201ZM52.4492 23H66.6242C68.6043 23 70.1136 25.9951 70.2833 28.8667H52.4492V23ZM51.3992 25.6722V28.2429C51.1727 28.0193 50.8842 27.8718 50.5725 27.8201C51.1231 27.2091 51.3963 26.44 51.3992 25.6722ZM48.2492 23.5333C49.409 23.5333 50.3492 24.4885 50.3492 25.6667C50.3492 26.8449 49.409 27.8 48.2492 27.8C47.0894 27.8 46.1492 26.8449 46.1492 25.6667C46.1505 24.489 47.09 23.5346 48.2492 23.5333ZM70.2992 33.1333H45.0992V29.9318C45.3724 29.9099 45.5831 29.6784 45.5832 29.4C45.5781 29.1113 45.804 28.8727 46.0882 28.8667H50.3282C50.6124 28.8727 50.8383 29.1113 50.8332 29.4C50.8331 29.6945 51.0681 29.9333 51.3579 29.9333C51.3579 29.9333 51.358 29.9333 51.3579 29.9333H70.2992V33.1333ZM72.3992 37.8396C72.06 37.9646 71.6884 37.9646 71.3492 37.8396V23.0937C71.6884 22.9687 72.06 22.9687 72.3992 23.0937V37.8396Z" fill="#F59D0D"/>
<path d="M50.9451 18.7333L52.8528 16.4081C52.9831 16.249 53.0111 16.0277 52.9246 15.8403C52.8382 15.653 52.6529 15.5333 52.4493 15.5333H49.2993V16.6H51.3286L49.4209 18.9253C49.2353 19.1518 49.2657 19.4882 49.4887 19.6766C49.583 19.7563 49.7017 19.7999 49.8243 19.8H52.9743V18.7333H50.9451Z" fill="#F59D0D"/>
<path d="M56.6727 16.0667L59.6884 12.1273C59.8116 11.9666 59.8339 11.7486 59.7458 11.5656C59.6576 11.3827 59.4747 11.2667 59.2741 11.2667H55.0741V12.3333H58.2006L55.1849 16.2727C55.0068 16.5049 55.0478 16.8399 55.2765 17.0209C55.3687 17.0938 55.4823 17.1334 55.5992 17.1334H59.7992V16.0667L56.6727 16.0667Z" fill="#F59D0D"/>
<path d="M63.4742 13.4L67.5691 7.8534C67.7431 7.61787 67.6964 7.28367 67.4645 7.1068C67.3736 7.03747 67.263 7 67.1492 7H62.4242V8.06667H66.0992L62.0044 13.6133C61.8851 13.7749 61.8658 13.9911 61.9546 14.1719C62.0436 14.3525 62.2254 14.4667 62.4242 14.4667H67.6742V13.4H63.4742Z" fill="#F59D0D"/>
<g clip-path="url(#clip0_88_2)">
<path d="M34.3359 4.1875H14.9109C14.428 4.1875 13.9648 4.37517 13.6232 4.70922C13.2817 5.04327 13.0898 5.49633 13.0898 5.96875V35.6562C13.0898 36.1287 13.2817 36.5817 13.6232 36.9158C13.9648 37.2498 14.428 37.4375 14.9109 37.4375V39.2188C14.9109 39.3762 14.9749 39.5272 15.0887 39.6386C15.2026 39.7499 15.357 39.8125 15.518 39.8125H33.7289C33.8899 39.8125 34.0443 39.7499 34.1581 39.6386C34.272 39.5272 34.3359 39.3762 34.3359 39.2188V37.4375C34.8189 37.4375 35.2821 37.2498 35.6236 36.9158C35.9652 36.5817 36.157 36.1287 36.157 35.6562V5.96875C36.157 5.49633 35.9652 5.04327 35.6236 4.70922C35.2821 4.37517 34.8189 4.1875 34.3359 4.1875ZM14.3039 35.6562V5.96875C14.3039 5.81128 14.3679 5.66026 14.4817 5.54891C14.5955 5.43756 14.7499 5.375 14.9109 5.375H24.0164V36.25H14.9109C14.7499 36.25 14.5955 36.1874 14.4817 36.0761C14.3679 35.9647 14.3039 35.8137 14.3039 35.6562ZM33.1219 38.625H16.125V37.4375H33.1219V38.625ZM34.943 35.6562C34.943 35.8137 34.879 35.9647 34.7652 36.0761C34.6513 36.1874 34.4969 36.25 34.3359 36.25H25.2305V5.375H34.3359C34.4969 5.375 34.6513 5.43756 34.7652 5.54891C34.879 5.66026 34.943 5.81128 34.943 5.96875V35.6562Z" fill="#F59D0D"/>
<path d="M21.5879 14.25H22.802V19H21.5879V14.25Z" fill="#F59D0D"/>
<path d="M26.4453 14.25H27.6594V19H26.4453V14.25Z" fill="#F59D0D"/>
</g>
<path d="M32.8857 56.7915V58H27.5361V56.9688L30.0659 54.2563C30.3201 53.9735 30.5207 53.7246 30.6675 53.5098C30.8143 53.2913 30.9199 53.0962 30.9844 52.9243C31.0524 52.7489 31.0864 52.5824 31.0864 52.4248C31.0864 52.1885 31.047 51.9862 30.9683 51.8179C30.8895 51.646 30.7731 51.5135 30.6191 51.4204C30.4688 51.3273 30.2826 51.2808 30.0605 51.2808C29.8242 51.2808 29.6201 51.3381 29.4482 51.4526C29.2799 51.5672 29.151 51.7266 29.0615 51.9307C28.9756 52.1348 28.9326 52.3657 28.9326 52.6235H27.3804C27.3804 52.158 27.4914 51.7319 27.7134 51.3452C27.9354 50.9549 28.2487 50.6452 28.6533 50.416C29.0579 50.1833 29.5378 50.0669 30.0928 50.0669C30.6406 50.0669 31.1025 50.1564 31.4785 50.3354C31.8581 50.5109 32.1445 50.7651 32.3379 51.0981C32.5348 51.4276 32.6333 51.8215 32.6333 52.2798C32.6333 52.5376 32.5921 52.79 32.5098 53.0371C32.4274 53.2806 32.3092 53.5241 32.1553 53.7676C32.0049 54.0075 31.8223 54.251 31.6074 54.498C31.3926 54.7451 31.1545 55.0011 30.8931 55.2661L29.5342 56.7915H32.8857ZM39.1162 53.4023V54.7559C39.1162 55.3431 39.0535 55.8498 38.9282 56.2759C38.8029 56.6984 38.6221 57.0457 38.3857 57.3179C38.153 57.5864 37.8755 57.7852 37.5532 57.9141C37.231 58.043 36.8729 58.1074 36.479 58.1074C36.1639 58.1074 35.8703 58.068 35.5981 57.9893C35.326 57.9069 35.0807 57.7798 34.8623 57.6079C34.6475 57.436 34.4613 57.2194 34.3037 56.958C34.1497 56.693 34.0316 56.3779 33.9492 56.0127C33.8669 55.6475 33.8257 55.2285 33.8257 54.7559V53.4023C33.8257 52.8151 33.8883 52.312 34.0137 51.8931C34.1426 51.4705 34.3234 51.125 34.5562 50.8564C34.7925 50.5879 35.0718 50.391 35.394 50.2656C35.7163 50.1367 36.0744 50.0723 36.4683 50.0723C36.7834 50.0723 37.0752 50.1134 37.3438 50.1958C37.6159 50.2746 37.8612 50.3981 38.0796 50.5664C38.298 50.7347 38.4842 50.9513 38.6382 51.2163C38.7922 51.4777 38.9103 51.791 38.9927 52.1562C39.075 52.5179 39.1162 52.9333 39.1162 53.4023ZM37.564 54.96V53.1929C37.564 52.91 37.5479 52.6629 37.5156 52.4517C37.487 52.2404 37.4422 52.0614 37.3813 51.9146C37.3205 51.7642 37.2453 51.6424 37.1558 51.5493C37.0662 51.4562 36.9642 51.3882 36.8496 51.3452C36.735 51.3022 36.6079 51.2808 36.4683 51.2808C36.2928 51.2808 36.137 51.3148 36.001 51.3828C35.8685 51.4508 35.7557 51.5601 35.6626 51.7104C35.5695 51.8573 35.4979 52.0542 35.4478 52.3013C35.4012 52.5448 35.3779 52.842 35.3779 53.1929V54.96C35.3779 55.2428 35.3923 55.4917 35.4209 55.7065C35.4531 55.9214 35.4997 56.1058 35.5605 56.2598C35.625 56.4102 35.7002 56.5337 35.7861 56.6304C35.8757 56.7235 35.9777 56.7915 36.0923 56.8345C36.2104 56.8774 36.3394 56.8989 36.479 56.8989C36.6509 56.8989 36.8031 56.8649 36.9355 56.7969C37.0716 56.7253 37.1862 56.6143 37.2793 56.4639C37.376 56.3099 37.4476 56.1094 37.4941 55.8623C37.5407 55.6152 37.564 55.3145 37.564 54.96ZM45.4326 53.4023V54.7559C45.4326 55.3431 45.37 55.8498 45.2446 56.2759C45.1193 56.6984 44.9385 57.0457 44.7021 57.3179C44.4694 57.5864 44.1919 57.7852 43.8696 57.9141C43.5474 58.043 43.1893 58.1074 42.7954 58.1074C42.4803 58.1074 42.1867 58.068 41.9146 57.9893C41.6424 57.9069 41.3971 57.7798 41.1787 57.6079C40.9639 57.436 40.7777 57.2194 40.6201 56.958C40.4661 56.693 40.348 56.3779 40.2656 56.0127C40.1833 55.6475 40.1421 55.2285 40.1421 54.7559V53.4023C40.1421 52.8151 40.2048 52.312 40.3301 51.8931C40.459 51.4705 40.6398 51.125 40.8726 50.8564C41.1089 50.5879 41.3882 50.391 41.7104 50.2656C42.0327 50.1367 42.3908 50.0723 42.7847 50.0723C43.0998 50.0723 43.3916 50.1134 43.6602 50.1958C43.9323 50.2746 44.1776 50.3981 44.396 50.5664C44.6144 50.7347 44.8006 50.9513 44.9546 51.2163C45.1086 51.4777 45.2267 51.791 45.3091 52.1562C45.3914 52.5179 45.4326 52.9333 45.4326 53.4023ZM43.8804 54.96V53.1929C43.8804 52.91 43.8643 52.6629 43.832 52.4517C43.8034 52.2404 43.7586 52.0614 43.6978 51.9146C43.6369 51.7642 43.5617 51.6424 43.4722 51.5493C43.3826 51.4562 43.2806 51.3882 43.166 51.3452C43.0514 51.3022 42.9243 51.2808 42.7847 51.2808C42.6092 51.2808 42.4535 51.3148 42.3174 51.3828C42.1849 51.4508 42.0721 51.5601 41.979 51.7104C41.8859 51.8573 41.8143 52.0542 41.7642 52.3013C41.7176 52.5448 41.6943 52.842 41.6943 53.1929V54.96C41.6943 55.2428 41.7087 55.4917 41.7373 55.7065C41.7695 55.9214 41.8161 56.1058 41.877 56.2598C41.9414 56.4102 42.0166 56.5337 42.1025 56.6304C42.1921 56.7235 42.2941 56.7915 42.4087 56.8345C42.5269 56.8774 42.6558 56.8989 42.7954 56.8989C42.9673 56.8989 43.1195 56.8649 43.252 56.7969C43.388 56.7253 43.5026 56.6143 43.5957 56.4639C43.6924 56.3099 43.764 56.1094 43.8105 55.8623C43.8571 55.6152 43.8804 55.3145 43.8804 54.96ZM48.0967 49.7446V58H46.5498V49.7446H48.0967ZM51.7598 52.1885L49.2354 55.0674L47.8818 56.437L47.3179 55.3198L48.3921 53.9556L49.9014 52.1885H51.7598ZM50.1538 58L48.4351 55.3145L49.5039 54.3799L51.937 58H50.1538ZM55.9976 52.1885H57.3994V57.8066C57.3994 58.3366 57.2812 58.786 57.0449 59.1548C56.8122 59.5272 56.4863 59.8083 56.0674 59.998C55.6484 60.1914 55.1615 60.2881 54.6064 60.2881C54.363 60.2881 54.1051 60.2559 53.833 60.1914C53.5645 60.127 53.3066 60.0267 53.0596 59.8906C52.8161 59.7546 52.612 59.5827 52.4473 59.375L53.1294 58.4619C53.3084 58.6696 53.5161 58.8307 53.7524 58.9453C53.9888 59.0635 54.2502 59.1226 54.5366 59.1226C54.8159 59.1226 55.0522 59.0706 55.2456 58.9668C55.439 58.8665 55.5876 58.7179 55.6914 58.521C55.7952 58.3276 55.8472 58.0931 55.8472 57.8174V53.5312L55.9976 52.1885ZM52.0874 55.1641V55.0513C52.0874 54.6073 52.1411 54.2044 52.2485 53.8428C52.3595 53.4775 52.5153 53.1642 52.7158 52.9028C52.9199 52.6414 53.167 52.4391 53.457 52.2959C53.7471 52.1527 54.0747 52.0811 54.4399 52.0811C54.8267 52.0811 55.1507 52.1527 55.4121 52.2959C55.6735 52.4391 55.8883 52.6432 56.0566 52.9082C56.2249 53.1696 56.3556 53.4793 56.4487 53.8374C56.5454 54.1919 56.6206 54.5804 56.6743 55.0029V55.25C56.6206 55.6546 56.54 56.0306 56.4326 56.3779C56.3252 56.7253 56.1838 57.0296 56.0083 57.291C55.8328 57.5488 55.6144 57.7493 55.353 57.8926C55.0952 58.0358 54.7873 58.1074 54.4292 58.1074C54.0711 58.1074 53.7471 58.034 53.457 57.8872C53.1706 57.7404 52.9253 57.5345 52.7212 57.2695C52.5171 57.0046 52.3595 56.693 52.2485 56.335C52.1411 55.9769 52.0874 55.5866 52.0874 55.1641ZM53.6343 55.0513V55.1641C53.6343 55.404 53.6576 55.6278 53.7041 55.8354C53.7507 56.0431 53.8223 56.2275 53.9189 56.3887C54.0192 56.5462 54.1427 56.6698 54.2896 56.7593C54.4399 56.8452 54.6172 56.8882 54.8213 56.8882C55.1042 56.8882 55.3351 56.8291 55.5142 56.7109C55.6932 56.5892 55.8275 56.4227 55.917 56.2114C56.0065 56.0002 56.0584 55.7567 56.0728 55.481V54.7773C56.0656 54.5518 56.0352 54.3494 55.9814 54.1704C55.9277 53.9878 55.8525 53.832 55.7559 53.7031C55.6592 53.5742 55.5339 53.474 55.3799 53.4023C55.2259 53.3307 55.0433 53.2949 54.832 53.2949C54.6279 53.2949 54.4507 53.3415 54.3003 53.4346C54.1535 53.5241 54.0299 53.6476 53.9297 53.8052C53.833 53.9627 53.7596 54.1489 53.7095 54.3638C53.6593 54.575 53.6343 54.8042 53.6343 55.0513Z" fill="#1C1C1C"/>
<defs>
<clipPath id="clip0_88_2">
<rect width="38.85" height="38" fill="white" transform="translate(5.19922)"/>
</clipPath>
</defs>
</svg>
