<svg width="91" height="22" viewBox="0 0 91 22" fill="none" xmlns="http://www.w3.org/2000/svg">
    <line y1="1" x2="90" y2="1" stroke="#1C1C1C" stroke-width="2" />
    <path d="M4.25319 16L12.5 1.03592L20.7468 16H4.25319Z" stroke="#1C1C1C" />
    <path d="M21.1669 16L29 1.07587L36.8331 16H21.1669Z" stroke="#1C1C1C" />
    <path d="M38.1669 16L46 1.07587L53.8331 16H38.1669Z" stroke="#1C1C1C" />
    <path d="M55.1669 16L63 1.07587L70.8331 16H55.1669Z" stroke="#1C1C1C" />
    <path d="M72.1669 16L80 1.07587L87.8331 16H72.1669Z" stroke="#1C1C1C" />
    <path
        d="M0.199219 12.4414H90.2878V18.0046C90.2878 19.1092 89.3924 20.0046 88.2878 20.0046H2.19922C1.09465 20.0046 0.199219 19.1092 0.199219 18.0046V12.4414Z"
        fill="#979797" />
    <path
        d="M0.199219 12.4414H90.2878V18.0046C90.2878 19.1092 89.3924 20.0046 88.2878 20.0046H2.19922C1.09465 20.0046 0.199219 19.1092 0.199219 18.0046V12.4414Z"
        stroke="#444444" />
</svg>
    