<?xml version="1.0" encoding="UTF-8" standalone="no"?>
<svg
   version="1.1"
   viewBox="0 0 1136 362"
   width="190"
   height="70"
   id="svg9"
   sodipodi:docname="iglume.svg"
   xmlns:inkscape="http://www.inkscape.org/namespaces/inkscape"
   xmlns:sodipodi="http://sodipodi.sourceforge.net/DTD/sodipodi-0.dtd"
   xmlns="http://www.w3.org/2000/svg"
   xmlns:svg="http://www.w3.org/2000/svg">
  <defs
     id="defs9" />
  <sodipodi:namedview
     id="namedview9"
     pagecolor="#ffffff"
     bordercolor="#000000"
     borderopacity="0.25"
     inkscape:showpageshadow="2"
     inkscape:pageopacity="0.0"
     inkscape:pagecheckerboard="0"
     inkscape:deskcolor="#d1d1d1"
     inkscape:export-bgcolor="#ffffff00" />
  <path
     d="m 60,0 h 242 l 16,5 13,7 11,9 8,10 5,8 6,16 2,19 v 207 l -1,20 -3,12 -8,17 -12,13 -8,7 -16,8 -14,4 H 61 L 45,357 31,350 21,342 9,326 4,315 0,302 V 60 L 5,44 10,34 21,20 34,10 49,3 Z"
     id="path1"
     inkscape:export-filename="..\jpg\iglume-black.png"
     inkscape:export-xdpi="96"
     inkscape:export-ydpi="96" />
  <path
     d="m 178,92 6,1 20,14 16,11 20,14 19,13 9,7 v 112 l -2,3 -5,1 h -32 l -9,-2 -7,-6 -1,-3 -1,-14 -1,-36 -3,-6 -2,-3 -5,-2 h -41 l -7,5 -2,5 -2,50 -4,6 -7,5 -5,1 h -30 l -8,-1 -2,-2 V 151 l 19,-13 20,-14 32,-22 z"
     id="path2" />
  <path
     d="m 827,81 h 44 l 5,10 18,43 17,41 3,-4 17,-41 18,-43 3,-6 h 44 v 168 h -39 l -1,-97 -11,25 -16,38 -4,8 h -27 l -7,-15 -13,-31 -11,-26 -1,98 h -39 z"
     fill="#010101"
     id="path3" />
  <path
     d="m 1061,126 h 27 l 13,4 11,6 12,12 8,14 3,9 1,6 v 23 l -1,3 -4,1 h -81 l 5,10 9,6 6,2 h 13 l 9,-4 6,-4 h 34 l -1,6 -6,11 -9,10 -10,6 -16,5 -6,1 h -16 l -14,-3 -12,-5 -13,-9 -8,-10 -8,-16 -2,-8 v -24 l 3,-12 7,-14 6,-8 10,-8 8,-5 z m 5,32 -10,5 -5,6 -2,4 v 3 h 51 l -1,-5 -4,-6 -6,-5 -5,-2 z"
     fill="#010101"
     id="path4" />
  <path
     d="m 561,126 h 24 l 11,4 9,5 10,9 2,2 1,-17 h 21 v 125 l -3,13 -5,9 -9,10 -5,4 -14,7 -18,4 h -15 l -16,-4 -16,-8 -10,-9 -8,-16 -1,-9 1,-1 h 20 l 4,10 7,8 12,6 10,2 h 11 l 10,-2 9,-4 9,-8 5,-14 v -22 l -8,9 -11,7 -11,4 -5,1 h -19 l -12,-3 -13,-7 -10,-9 -6,-7 -8,-16 -3,-14 v -14 l 4,-16 8,-15 9,-10 10,-7 13,-6 z m 4,20 -9,3 -11,8 -7,9 -5,11 v 22 l 4,10 6,9 8,7 11,5 5,1 h 17 l 9,-3 9,-5 8,-7 7,-14 1,-3 v -20 l -4,-11 -6,-9 -7,-6 -12,-6 -3,-1 z"
     fill="#020202"
     id="path5" />
  <path
     d="m 175,80 h 8 l 12,6 17,12 19,13 23,16 16,11 6,5 4,8 v 115 l -4,8 -5,4 -2,1 h -48 l -12,-6 -5,-6 -3,-5 -2,-8 -1,-47 h -37 v 45 l -2,9 -5,8 -5,5 -10,5 H 92 l -6,-3 -5,-6 -2,-9 v -81 l 1,-31 4,-6 8,-7 15,-10 20,-14 16,-11 23,-16 z m 3,12 -15,10 -16,11 -23,16 -19,13 -13,9 v 114 l 2,2 8,1 h 30 l 7,-2 7,-6 2,-4 2,-50 3,-6 6,-4 h 41 l 5,2 4,6 1,3 1,36 1,14 3,5 5,4 9,2 h 32 l 6,-2 1,-2 V 152 l -13,-10 -12,-8 -23,-16 -16,-11 -20,-14 z"
     fill="#575964"
     id="path6" />
  <path
     d="m 706,129 h 22 l 1,84 3,8 2,5 5,2 7,3 h 12 l 9,-3 8,-6 4,-7 2,-9 1,-74 1,-3 h 21 v 120 h -21 l -1,-12 -8,8 -10,5 -13,3 h -9 l -13,-4 -6,-4 -10,-10 -4,-8 -3,-14 z"
     fill="#040405"
     id="path7" />
  <path
     d="m 469,81 h 22 v 168 h -22 z"
     id="path8" />
  <path
     d="m 664,76 h 20 v 173 h -20 z"
     id="path9" />
</svg>
