<svg width="109" height="98" viewBox="0 0 109 98" fill="none" xmlns="http://www.w3.org/2000/svg">
<rect x="81.9141" y="33.25" width="26.5" height="64.5" fill="#F59D0D" fill-opacity="0.5" stroke="#444444" stroke-width="0.5"/>
<path d="M100.841 40.1768C100.938 40.0791 100.938 39.9209 100.841 39.8232L99.2498 38.2322C99.1522 38.1346 98.9939 38.1346 98.8963 38.2322C98.7987 38.3299 98.7987 38.4882 98.8963 38.5858L100.311 40L98.8963 41.4142C98.7987 41.5118 98.7987 41.6701 98.8963 41.7678C98.9939 41.8654 99.1522 41.8654 99.2498 41.7678L100.841 40.1768ZM82.4873 39.8232C82.3897 39.9209 82.3897 40.0791 82.4873 40.1768L84.0783 41.7678C84.1759 41.8654 84.3342 41.8654 84.4318 41.7678C84.5295 41.6701 84.5295 41.5118 84.4318 41.4142L83.0176 40L84.4318 38.5858C84.5295 38.4882 84.5295 38.3299 84.4318 38.2322C84.3342 38.1346 84.1759 38.1346 84.0783 38.2322L82.4873 39.8232ZM100.664 39.75L82.6641 39.75V40.25L100.664 40.25V39.75Z" fill="black"/>
<line x1="81.9141" y1="34" x2="81.9141" y2="46" stroke="black" stroke-width="0.5"/>
<line x1="100.914" y1="34" x2="100.914" y2="46" stroke="black" stroke-width="0.5"/>
<line x1="81.9141" y1="34" x2="81.9141" y2="46" stroke="black" stroke-width="0.5"/>
<line x1="100.914" y1="34" x2="100.914" y2="46" stroke="black" stroke-width="0.5"/>
<path d="M100.841 40.1768C100.938 40.0791 100.938 39.9209 100.841 39.8232L99.2498 38.2322C99.1522 38.1346 98.9939 38.1346 98.8963 38.2322C98.7987 38.3299 98.7987 38.4882 98.8963 38.5858L100.311 40L98.8963 41.4142C98.7987 41.5118 98.7987 41.6701 98.8963 41.7678C98.9939 41.8654 99.1522 41.8654 99.2498 41.7678L100.841 40.1768ZM82.4873 39.8232C82.3897 39.9209 82.3897 40.0791 82.4873 40.1768L84.0783 41.7678C84.1759 41.8654 84.3342 41.8654 84.4318 41.7678C84.5295 41.6701 84.5295 41.5118 84.4318 41.4142L83.0176 40L84.4318 38.5858C84.5295 38.4882 84.5295 38.3299 84.4318 38.2322C84.3342 38.1346 84.1759 38.1346 84.0783 38.2322L82.4873 39.8232ZM100.664 39.75L82.6641 39.75V40.25L100.664 40.25V39.75Z" fill="black"/>
<line x1="81.9141" y1="34" x2="81.9141" y2="46" stroke="black" stroke-width="0.5"/>
<line x1="100.914" y1="34" x2="100.914" y2="46" stroke="black" stroke-width="0.5"/>
<line x1="81.9141" y1="34" x2="81.9141" y2="46" stroke="black" stroke-width="0.5"/>
<line x1="100.914" y1="34" x2="100.914" y2="46" stroke="black" stroke-width="0.5"/>
<g clip-path="url(#clip0_755_183)">
<path d="M-431.833 10.2656C-431.262 8.059 -429.271 6.51758 -426.992 6.51758H86.0822C88.3801 6.51758 90.3823 8.08396 90.9352 10.3145L94.5325 24.8249C95.0015 26.7169 93.5699 28.5468 91.6207 28.5468H-432.686C-434.648 28.5468 -436.082 26.6949 -435.59 24.7956L-431.833 10.2656Z" fill="#C4C4C4"/>
<path d="M-431.833 10.2656C-431.262 8.059 -429.271 6.51758 -426.992 6.51758H86.0822C88.3801 6.51758 90.3823 8.08396 90.9352 10.3145L94.5325 24.8249C95.0015 26.7169 93.5699 28.5468 91.6207 28.5468H-432.686C-434.648 28.5468 -436.082 26.6949 -435.59 24.7956L-431.833 10.2656Z" stroke="#444444"/>
<path d="M-441.178 24.6418H101.95V30.4279C101.95 32.0571 100.629 33.3779 99 33.3779H-438.228C-439.857 33.3779 -441.178 32.0571 -441.178 30.4279V24.6418Z" fill="#C4C4C4" stroke="black" stroke-width="0.1"/>
</g>
<defs>
<clipPath id="clip0_755_183">
<rect width="109" height="34" rx="5" fill="white"/>
</clipPath>
</defs>
</svg>
