<svg width="109" height="98" viewBox="0 0 109 98" fill="none" xmlns="http://www.w3.org/2000/svg">
<rect x="84.2501" y="32.7842" width="24.5" height="64.5" fill="#F59D0D" fill-opacity="0.5" stroke="#444444" stroke-width="0.5"/>
<path d="M97.1769 38.711C97.2745 38.6133 97.2745 38.455 97.1769 38.3574L95.5859 36.7664C95.4883 36.6688 95.33 36.6688 95.2324 36.7664C95.1347 36.864 95.1347 37.0223 95.2324 37.12L96.6466 38.5342L95.2324 39.9484C95.1347 40.046 95.1347 40.2043 95.2324 40.3019C95.33 40.3996 95.4883 40.3996 95.5859 40.3019L97.1769 38.711ZM84.8233 38.3574C84.7257 38.455 84.7257 38.6133 84.8233 38.711L86.4143 40.3019C86.512 40.3996 86.6703 40.3996 86.7679 40.3019C86.8655 40.2043 86.8655 40.046 86.7679 39.9484L85.3537 38.5342L86.7679 37.12C86.8655 37.0223 86.8655 36.864 86.7679 36.7664C86.6703 36.6688 86.512 36.6688 86.4143 36.7664L84.8233 38.3574ZM97.0001 38.2842L85.0001 38.2842V38.7842L97.0001 38.7842V38.2842Z" fill="black"/>
<line x1="84.2501" y1="32.5342" x2="84.2501" y2="44.5342" stroke="black" stroke-width="0.5"/>
<line x1="97.2501" y1="32.5342" x2="97.2501" y2="44.5342" stroke="black" stroke-width="0.5"/>
<line x1="84.2501" y1="32.5342" x2="84.2501" y2="44.5342" stroke="black" stroke-width="0.5"/>
<line x1="97.2501" y1="32.5342" x2="97.2501" y2="44.5342" stroke="black" stroke-width="0.5"/>
<path d="M34.3674 32.0993V22.9176C34.3674 22.3653 33.9196 21.9176 33.3674 21.9176H28.0312C27.479 21.9176 27.0312 21.4699 27.0312 20.9176V8C27.0312 7.44772 27.479 7 28.0313 7H105C105.552 7 106 7.44772 106 8V20.9176C106 21.4699 105.552 21.9176 105 21.9176H98.4057C97.8535 21.9176 97.4057 22.3653 97.4057 22.9176V32.0993C97.4057 32.6515 96.958 33.0993 96.4057 33.0993H35.3674C34.8151 33.0993 34.3674 32.6515 34.3674 32.0993Z" fill="#E0EAFE" stroke="#ED893E" stroke-width="0.5"/>
<path d="M33.889 31.6699C33.889 32.7745 32.9936 33.6699 31.889 33.6699L1.99995 33.6699C0.895383 33.6699 -4.91856e-05 32.7745 -4.9269e-05 31.6699L-4.98025e-05 24.5991C-4.98784e-05 23.5941 0.745806 22.7451 1.74248 22.6157L16.9473 20.6419L32.1466 22.6157C33.1432 22.7451 33.889 23.594 33.889 24.599L33.889 31.6699Z" fill="#C4C4C4"/>
<path d="M25.4683 26.3772C25.4252 27.4497 24.5433 28.2969 23.4699 28.2969H11.2476C10.177 28.2969 9.29629 27.4539 9.24948 26.3843L8.51915 9.69903C8.46934 8.56123 9.37834 7.61157 10.5172 7.61157H24.1409C25.277 7.61157 26.1849 8.55675 26.1392 9.69193L25.4683 26.3772Z" fill="#C4C4C4"/>
<ellipse cx="6.85892" cy="28.4394" rx="1.59903" ry="1.85246" fill="#01233B"/>
<ellipse cx="6.85892" cy="28.4394" rx="1.59903" ry="1.85246" fill="#01233B"/>
<ellipse cx="6.85892" cy="28.4394" rx="1.59903" ry="1.85246" fill="#01233B"/>
<ellipse cx="6.85892" cy="28.4394" rx="1.59903" ry="1.85246" fill="#01233B"/>
<ellipse cx="17.4372" cy="28.4394" rx="1.59903" ry="1.85246" fill="#01233B"/>
<ellipse cx="17.4372" cy="28.4394" rx="1.59903" ry="1.85246" fill="#01233B"/>
<ellipse cx="17.4372" cy="28.4394" rx="1.59903" ry="1.85246" fill="#01233B"/>
<ellipse cx="17.4372" cy="28.4394" rx="1.59903" ry="1.85246" fill="#01233B"/>
<ellipse cx="28.0152" cy="28.4394" rx="1.59903" ry="1.85246" fill="#01233B"/>
<ellipse cx="28.0152" cy="28.4394" rx="1.59903" ry="1.85246" fill="#01233B"/>
<ellipse cx="28.0152" cy="28.4394" rx="1.59903" ry="1.85246" fill="#01233B"/>
<ellipse cx="28.0152" cy="28.4394" rx="1.59903" ry="1.85246" fill="#01233B"/>
<ellipse cx="17.3251" cy="16.1005" rx="1.59903" ry="1.85246" fill="#01233B"/>
<ellipse cx="17.3251" cy="16.1005" rx="1.59903" ry="1.85246" fill="#01233B"/>
<ellipse cx="17.3251" cy="16.1005" rx="1.59903" ry="1.85246" fill="#01233B"/>
<ellipse cx="17.3251" cy="16.1005" rx="1.59903" ry="1.85246" fill="#01233B"/>
</svg>
