<svg width="95" height="96" viewBox="0 0 95 96" fill="none" xmlns="http://www.w3.org/2000/svg">
<rect x="67.9141" y="31.25" width="26.5" height="64.5" fill="#F59D0D" fill-opacity="0.5" stroke="#444444" stroke-width="0.5"/>
<line x1="2" y1="2.54297" x2="87.5341" y2="2.54298" stroke="#1C1C1C" stroke-width="4"/>
<path d="M2 3L18.5408 25.4309H2.0001" stroke="#1C1C1C" stroke-width="3"/>
<path d="M19.2807 23.9309L32.8516 5.5274L46.4225 23.9309H19.2807Z" stroke="#1C1C1C" stroke-width="3"/>
<path d="M50.267 23.9309L63.8379 5.5274L77.4088 23.9309H50.267Z" stroke="#1C1C1C" stroke-width="3"/>
<path d="M2.25 21.9609H86.9145V27.8754C86.9145 29.3942 85.6833 30.6254 84.1645 30.6254H2.25V21.9609Z" fill="#C4C4C4" stroke="#444444" stroke-width="0.5"/>
<path d="M86.8408 38.1768C86.9385 38.0791 86.9385 37.9209 86.8408 37.8232L85.2498 36.2322C85.1522 36.1346 84.9939 36.1346 84.8963 36.2322C84.7987 36.3299 84.7987 36.4882 84.8963 36.5858L86.3105 38L84.8963 39.4142C84.7987 39.5118 84.7987 39.6701 84.8963 39.7678C84.9939 39.8654 85.1522 39.8654 85.2498 39.7678L86.8408 38.1768ZM68.4873 37.8232C68.3897 37.9209 68.3897 38.0791 68.4873 38.1768L70.0783 39.7678C70.1759 39.8654 70.3342 39.8654 70.4318 39.7678C70.5295 39.6701 70.5295 39.5118 70.4318 39.4142L69.0176 38L70.4318 36.5858C70.5295 36.4882 70.5295 36.3299 70.4318 36.2322C70.3342 36.1346 70.1759 36.1346 70.0783 36.2322L68.4873 37.8232ZM86.6641 37.75L68.6641 37.75V38.25L86.6641 38.25V37.75Z" fill="black"/>
<line x1="67.9141" y1="32" x2="67.9141" y2="44" stroke="black" stroke-width="0.5"/>
<line x1="86.9141" y1="32" x2="86.9141" y2="44" stroke="black" stroke-width="0.5"/>
<line x1="67.9141" y1="32" x2="67.9141" y2="44" stroke="black" stroke-width="0.5"/>
<line x1="86.9141" y1="32" x2="86.9141" y2="44" stroke="black" stroke-width="0.5"/>
<path d="M86.8408 38.1768C86.9385 38.0791 86.9385 37.9209 86.8408 37.8232L85.2498 36.2322C85.1522 36.1346 84.9939 36.1346 84.8963 36.2322C84.7987 36.3299 84.7987 36.4882 84.8963 36.5858L86.3105 38L84.8963 39.4142C84.7987 39.5118 84.7987 39.6701 84.8963 39.7678C84.9939 39.8654 85.1522 39.8654 85.2498 39.7678L86.8408 38.1768ZM68.4873 37.8232C68.3897 37.9209 68.3897 38.0791 68.4873 38.1768L70.0783 39.7678C70.1759 39.8654 70.3342 39.8654 70.4318 39.7678C70.5295 39.6701 70.5295 39.5118 70.4318 39.4142L69.0176 38L70.4318 36.5858C70.5295 36.4882 70.5295 36.3299 70.4318 36.2322C70.3342 36.1346 70.1759 36.1346 70.0783 36.2322L68.4873 37.8232ZM86.6641 37.75L68.6641 37.75V38.25L86.6641 38.25V37.75Z" fill="black"/>
<line x1="67.9141" y1="32" x2="67.9141" y2="44" stroke="black" stroke-width="0.5"/>
<line x1="86.9141" y1="32" x2="86.9141" y2="44" stroke="black" stroke-width="0.5"/>
<line x1="67.9141" y1="32" x2="67.9141" y2="44" stroke="black" stroke-width="0.5"/>
<line x1="86.9141" y1="32" x2="86.9141" y2="44" stroke="black" stroke-width="0.5"/>
</svg>
