<svg width="96" height="90" viewBox="0 0 96 90" fill="none" xmlns="http://www.w3.org/2000/svg">
<path d="M2 1L12.9044 19.5441H3.47209" stroke="#1C1C1C" stroke-width="2.5"/>
<path d="M19.8789 19.9492C19.8789 22.7106 17.6403 24.9492 14.8789 24.9492L7.00078 24.9492C4.23936 24.9492 2.00078 22.7106 2.00078 19.9492L2.00078 15.7604L19.8789 15.7604L19.8789 19.9492Z" fill="#C4C4C4"/>
<path d="M13.0447 20.4423C13.0447 21.3778 12.3039 22.119 11.4111 22.119C10.5182 22.119 9.77747 21.3778 9.77747 20.4423C9.77747 19.5068 10.5182 18.7656 11.4111 18.7656C12.3039 18.7656 13.0447 19.5068 13.0447 20.4423Z" fill="#1C1C1C"/>
<path d="M13.0447 20.4423C13.0447 21.3778 12.3039 22.119 11.4111 22.119C10.5182 22.119 9.77747 21.3778 9.77747 20.4423C9.77747 19.5068 10.5182 18.7656 11.4111 18.7656C12.3039 18.7656 13.0447 19.5068 13.0447 20.4423Z" fill="#1C1C1C"/>
<path d="M13.0447 20.4423C13.0447 21.3778 12.3039 22.119 11.4111 22.119C10.5182 22.119 9.77747 21.3778 9.77747 20.4423C9.77747 19.5068 10.5182 18.7656 11.4111 18.7656C12.3039 18.7656 13.0447 19.5068 13.0447 20.4423Z" fill="#1C1C1C"/>
<path d="M13.0447 20.4423C13.0447 21.3778 12.3039 22.119 11.4111 22.119C10.5182 22.119 9.77747 21.3778 9.77747 20.4423C9.77747 19.5068 10.5182 18.7656 11.4111 18.7656C12.3039 18.7656 13.0447 19.5068 13.0447 20.4423Z" fill="#1C1C1C"/>
<path d="M13.0447 20.4423C13.0447 21.3778 12.3039 22.119 11.4111 22.119C10.5182 22.119 9.77747 21.3778 9.77747 20.4423C9.77747 19.5068 10.5182 18.7656 11.4111 18.7656C12.3039 18.7656 13.0447 19.5068 13.0447 20.4423Z" stroke="#1C1C1C"/>
<path d="M20.2019 23.7656V16.2766C20.2019 15.7243 19.7542 15.2766 19.2019 15.2766H14.0703C13.518 15.2766 13.0703 14.8289 13.0703 14.2766V3.61719C13.0703 3.0649 13.518 2.61719 14.0703 2.61719H88.8375C89.3898 2.61719 89.8375 3.0649 89.8375 3.61719V14.2766C89.8375 14.8289 89.3898 15.2766 88.8375 15.2766H82.4829C81.9306 15.2766 81.4829 15.7243 81.4829 16.2766V23.7656C81.4829 24.3179 81.0352 24.7656 80.4829 24.7656H21.2019C20.6496 24.7656 20.2019 24.3179 20.2019 23.7656Z" fill="#E0EAFE" stroke="#F59D0D" stroke-width="0.5"/>
<rect x="71.25" y="25.1367" width="24.5" height="64.5" fill="#F59D0D" fill-opacity="0.5" stroke="#444444" stroke-width="0.5"/>
<path d="M90.1768 31.0635C90.2744 30.9659 90.2744 30.8076 90.1768 30.7099L88.5858 29.119C88.4882 29.0213 88.3299 29.0213 88.2322 29.119C88.1346 29.2166 88.1346 29.3749 88.2322 29.4725L89.6464 30.8867L88.2322 32.3009C88.1346 32.3986 88.1346 32.5569 88.2322 32.6545C88.3299 32.7521 88.4882 32.7521 88.5858 32.6545L90.1768 31.0635ZM71.8232 30.7099C71.7256 30.8076 71.7256 30.9659 71.8232 31.0635L73.4142 32.6545C73.5118 32.7521 73.6701 32.7521 73.7678 32.6545C73.8654 32.5569 73.8654 32.3986 73.7678 32.3009L72.3536 30.8867L73.7678 29.4725C73.8654 29.3749 73.8654 29.2166 73.7678 29.119C73.6701 29.0213 73.5118 29.0213 73.4142 29.119L71.8232 30.7099ZM90 30.6367L72 30.6367V31.1367L90 31.1367V30.6367Z" fill="black"/>
<line x1="71.25" y1="24.8867" x2="71.25" y2="36.8867" stroke="black" stroke-width="0.5"/>
<line x1="90.25" y1="24.8867" x2="90.25" y2="36.8867" stroke="black" stroke-width="0.5"/>
<line x1="71.25" y1="24.8867" x2="71.25" y2="36.8867" stroke="black" stroke-width="0.5"/>
<line x1="90.25" y1="24.8867" x2="90.25" y2="36.8867" stroke="black" stroke-width="0.5"/>
</svg>
