<svg width="82" height="57" viewBox="0 0 82 57" fill="none" xmlns="http://www.w3.org/2000/svg">
    <rect x="8.25" y="46.3774" width="3.5" height="9.5" fill="#979797" stroke="black"
        stroke-width="0.5" />
    <rect x="8.25" y="37.3774" width="3.5" height="9.5" fill="#979797" stroke="black"
        stroke-width="0.5" />
    <rect x="8.25" y="34.3774" width="3.5" height="3.5" fill="#979797" stroke="black"
        stroke-width="0.5" />
    <rect x="81.75" y="30.3774" width="3.5" height="81.5" transform="rotate(90 81.75 30.3774)"
        fill="#979797" stroke="black" stroke-width="0.5" />
    <rect x="70.25" y="46.3774" width="3.5" height="9.5" fill="#979797" stroke="black"
        stroke-width="0.5" />
    <rect x="70.25" y="37.3774" width="3.5" height="9.5" fill="#979797" stroke="black"
        stroke-width="0.5" />
    <rect x="70.25" y="34.3774" width="3.5" height="3.5" fill="#979797" stroke="black"
        stroke-width="0.5" />
    <path d="M54.2444 21.7461H29.5593L29.9037 25.9223L36.7926 27H47.7L54.2444 25.5181V21.7461Z"
        fill="#E0EAFE" />
    <path
        d="M54.5889 19.5907H29.2148C28.89 17.6426 28.2383 13.8092 28.0882 13.1986L28.0667 12.8549H55.6222L54.5889 19.5907Z"
        fill="#E0EAFE" />
    <path
        d="M55.8519 10.9689L56.7704 7.19689L27.3778 7.06374L26.6454 7.06249L27.6074 10.6995H27.837L55.8519 10.9689Z"
        fill="#E0EAFE" />
    <path d="M55.737 3.29016L57 5.17617H26.2296L27.9519 3.15544L38.5148 1H44.9444L55.737 3.29016Z"
        fill="#E0EAFE" />
    <path
        d="M28.0667 13.1244C28.0719 13.1366 28.0791 13.1617 28.0882 13.1986M28.0882 13.1986C28.2383 13.8092 28.89 17.6426 29.2148 19.5907H54.5889L55.6222 12.8549H28.0667L28.0882 13.1986ZM26.6454 7.06249L27.6074 10.6995H27.837L55.8519 10.9689L56.7704 7.19689L27.3778 7.06374M26.6454 7.06249L26.5741 6.79275M26.6454 7.06249L27.3778 7.06374M26.6454 7.06249L26.4593 7.06218M27.0333 7.06218L27.3778 7.06374M26.2296 5.17617L27.9519 3.15544L38.5148 1H44.9444L55.737 3.29016L57 5.17617H26.2296ZM26.2296 5.17617L26 5.4456M26.2296 5.17617H26M29.5593 21.7461H54.2444V25.5181L47.7 27H36.7926L29.9037 25.9223L29.5593 21.7461Z"
        stroke="#F59D0D" stroke-width="1.5" />
</svg>
    