<svg width="167" height="129" viewBox="0 0 167 129" fill="none" xmlns="http://www.w3.org/2000/svg">
<path d="M25.2517 72.8722C25.4334 74.1002 26.4367 75.0609 27.7053 75.2209L46.2311 77.5643C47.7959 77.7627 49.2238 76.6947 49.4272 75.1807C49.6309 73.6667 48.5304 72.2787 46.9686 72.0815L30.5889 70.0093L25.7509 37.3221L50.0267 26.9558L58.2088 82.2336C58.3163 82.9594 58.7163 83.6142 59.3219 84.0539C59.818 84.4145 60.4183 84.6058 61.0311 84.6058C61.1657 84.6058 61.3011 84.5966 61.436 84.5778L75.1039 82.6756C76.6626 82.4585 77.745 81.0572 77.5211 79.5462L77.0455 76.3331L104.759 64.4981C105.93 63.9982 106.614 62.8027 106.432 61.5748L102.563 35.4298C102.339 33.918 100.893 32.8707 99.3353 33.086C97.7766 33.3027 96.6942 34.7043 96.9182 36.2154L100.48 60.2831L76.2045 70.6497L69.3398 24.2688L97.7887 27.8678C99.3516 28.0684 100.781 26.9982 100.985 25.4842C101.189 23.9702 100.088 22.5822 98.5263 22.385L68.4985 18.5857L68.0229 15.3719C67.9153 14.646 67.5153 13.9913 66.9097 13.5515C66.3041 13.1121 65.5438 12.9245 64.7952 13.0277L51.1273 14.9299C49.5686 15.147 48.4863 16.5482 48.7102 18.0593L49.1858 21.2728L21.4717 33.1074C20.3007 33.6072 19.6168 34.8028 19.7985 36.0307L25.2517 72.8722ZM62.783 18.8936L71.4718 77.5938L63.4487 78.7104L54.7595 20.0102L62.783 18.8936Z" fill="#F59D0D"/>
<path d="M132.447 39.4572H111.753C110.178 39.4572 108.902 40.6948 108.902 42.2221V88.488C108.902 88.488 108.901 88.4928 108.901 88.4954C108.901 90.0227 110.178 91.2602 111.752 91.2602H145.929C144.812 95.1641 141.28 98.1037 136.998 98.4642C134.795 94.6794 130.61 92.1165 125.818 92.1165C121.009 92.1165 116.813 94.6967 114.615 98.5022H54.0489C51.8519 94.6963 47.6552 92.1165 42.8464 92.1165C38.0376 92.1165 33.8409 94.6967 31.6439 98.5022H20.7026V91.2598H96.2357C97.8104 91.2598 99.087 90.0223 99.087 88.495C99.087 86.9677 97.8104 85.7302 96.2357 85.7302H17.8513C16.2766 85.7302 15 86.9677 15 88.495V101.267C15 102.794 16.2766 104.032 17.8513 104.032H30.0297C30.0221 104.207 30.016 104.382 30.016 104.558C30.016 111.418 35.7718 117 42.8468 117C49.9218 117 55.6776 111.418 55.6776 104.558C55.6776 104.382 55.6715 104.207 55.6639 104.032H113.001C112.993 104.207 112.987 104.382 112.987 104.558C112.987 111.418 118.743 117 125.818 117C132.893 117 138.648 111.418 138.648 104.558C138.648 104.316 138.639 104.076 138.625 103.837C146.196 102.664 152 96.2892 152 88.6229V58.417C152 47.963 143.229 39.4572 132.447 39.4572ZM42.8468 111.47C38.9162 111.47 35.7186 108.37 35.7186 104.558C35.7186 100.747 38.9162 97.6462 42.8468 97.6462C46.7774 97.6462 49.975 100.747 49.975 104.558C49.975 108.37 46.777 111.47 42.8468 111.47ZM125.818 111.47C121.887 111.47 118.689 108.37 118.689 104.558C118.689 100.747 121.887 97.6462 125.818 97.6462C129.748 97.6462 132.946 100.747 132.946 104.558C132.946 108.37 129.748 111.47 125.818 111.47ZM146.297 58.4173V62.6228H125.375V44.9869H132.447C140.084 44.9869 146.297 51.0116 146.297 58.4173ZM114.604 85.7305V44.9869H119.673V65.3876C119.673 66.9149 120.95 68.1525 122.524 68.1525H146.297V85.7305H114.604Z" fill="#F59D0D"/>
<rect x="54.9414" y="19.9238" width="7.95069" height="59.8706" transform="rotate(-8.54935 54.9414 19.9238)" fill="#E0EAFE"/>
<rect x="114" y="68" width="33" height="18" fill="#E0EAFE"/>
<rect x="114" y="45" width="6" height="24" fill="#E0EAFE"/>
<path d="M53 104.5C53 109.637 48.6348 114 43 114C37.3652 114 33 109.637 33 104.5C33 99.3631 37.3652 95 43 95C48.6348 95 53 99.3631 53 104.5Z" stroke="#979797" stroke-width="6"/>
<path d="M136 104.5C136 109.637 131.635 114 126 114C120.365 114 116 109.637 116 104.5C116 99.3631 120.365 95 126 95C131.635 95 136 99.3631 136 104.5Z" stroke="#979797" stroke-width="6"/>
</svg>
