<svg width="82" height="59" viewBox="0 0 82 59" fill="none" xmlns="http://www.w3.org/2000/svg">
<rect x="8.25" y="49.25" width="3.5" height="9.5" fill="#979797" stroke="black" stroke-width="0.5"/>
<rect x="8.25" y="40.25" width="3.5" height="9.5" fill="#979797" stroke="black" stroke-width="0.5"/>
<rect x="8.25" y="37.25" width="3.5" height="3.5" fill="#979797" stroke="black" stroke-width="0.5"/>
<rect x="81.75" y="33.25" width="3.5" height="81.5" transform="rotate(90 81.75 33.25)" fill="#979797" stroke="black" stroke-width="0.5"/>
<rect x="70.25" y="49.25" width="3.5" height="9.5" fill="#979797" stroke="black" stroke-width="0.5"/>
<rect x="70.25" y="40.25" width="3.5" height="9.5" fill="#979797" stroke="black" stroke-width="0.5"/>
<rect x="70.25" y="37.25" width="3.5" height="3.5" fill="#979797" stroke="black" stroke-width="0.5"/>
<path d="M56.187 14.1269C56.1146 14.1185 56.0413 14.1245 55.9713 14.1446C55.9013 14.1648 55.836 14.1986 55.7792 14.2441C55.7224 14.2896 55.6751 14.3459 55.6403 14.4098C55.6054 14.4737 55.5836 14.5439 55.576 14.6163L55.488 15.4576C55.4763 15.5601 55.4361 15.6572 55.3719 15.7379C55.3077 15.8186 55.222 15.8796 55.1247 15.914L51.4591 17.1898C51.3462 17.229 51.2492 17.3039 51.1826 17.4031C51.1161 17.5023 51.0837 17.6205 51.0903 17.7397V22.6503C51.0899 22.7227 51.1038 22.7944 51.1312 22.8614C51.1586 22.9284 51.1989 22.9893 51.2499 23.0407L54.2331 26.0322C54.3276 26.13 54.3825 26.2592 54.3872 26.3951V31.3442C54.3872 31.49 54.3292 31.6299 54.226 31.733C54.1228 31.8361 53.9828 31.8941 53.8368 31.8941C53.6908 31.8941 53.5508 31.8361 53.4476 31.733C53.3444 31.6299 53.2864 31.49 53.2864 31.3442V26.8515C53.2868 26.7791 53.2729 26.7074 53.2455 26.6404C53.2182 26.5734 53.1778 26.5125 53.1268 26.4611L49.94 23.2552C49.8886 23.2042 49.8276 23.1639 49.7605 23.1365C49.6935 23.1092 49.6217 23.0953 49.5492 23.0957H48.3329C48.1869 23.0957 48.0469 23.1536 47.9437 23.2568C47.8405 23.3599 47.7825 23.4998 47.7825 23.6456V28.0448C47.782 28.1354 47.7592 28.2244 47.7159 28.304C47.6727 28.3837 47.6105 28.4514 47.5348 28.5012L42.5813 31.8006C42.4599 31.8802 42.312 31.9087 42.1698 31.8798C42.0275 31.851 41.9024 31.7672 41.8217 31.6466C41.7421 31.5254 41.7136 31.3776 41.7424 31.2355C41.7713 31.0934 41.8552 30.9684 41.9758 30.8878L46.434 27.9128C46.5097 27.863 46.5719 27.7953 46.6152 27.7156C46.6584 27.636 46.6812 27.547 46.6817 27.4564V23.6456C46.6817 23.4998 46.6237 23.3599 46.5205 23.2568C46.4173 23.1536 46.2773 23.0957 46.1313 23.0957C45.9853 23.0957 45.8453 23.1536 45.7421 23.2568C45.6389 23.3599 45.5809 23.4998 45.5809 23.6456V27.1595L41.3649 29.9694C41.0692 30.1654 40.8446 30.4513 40.7243 30.7847C40.604 31.1182 40.5944 31.4815 40.6969 31.8208C40.7994 32.1602 41.0086 32.4575 41.2935 32.6688C41.5783 32.8801 41.9238 32.9941 42.2785 32.9939C42.6035 32.9941 42.9214 32.8984 43.1922 32.7189L48.1457 29.4195C48.3726 29.2689 48.5587 29.0646 48.6874 28.8248C48.8161 28.5849 48.8834 28.3169 48.8833 28.0448V24.1955H49.3181L52.1856 27.077V31.3442C52.1856 31.7817 52.3596 32.2013 52.6692 32.5107C52.9789 32.8201 53.3989 32.9939 53.8368 32.9939C54.2747 32.9939 54.6947 32.8201 55.0044 32.5107C55.314 32.2013 55.488 31.7817 55.488 31.3442V26.3951C55.489 25.9585 55.3169 25.5393 55.0091 25.2293L52.1856 22.3973V18.1026L55.488 16.9534C55.7827 16.8514 56.0424 16.6682 56.2373 16.425C56.4321 16.1817 56.5539 15.8882 56.5888 15.5786L56.6823 14.7373C56.6907 14.6646 56.6845 14.5909 56.664 14.5206C56.6435 14.4504 56.6092 14.3849 56.5631 14.328C56.5169 14.2712 56.4599 14.2241 56.3953 14.1896C56.3307 14.155 56.2599 14.1337 56.187 14.1269Z" fill="#F59D0D"/>
<path d="M44.9648 20.8961L45.5812 20.4012V21.446C45.5812 21.5919 45.6392 21.7317 45.7424 21.8349C45.8456 21.938 45.9856 21.9959 46.1316 21.9959C46.2776 21.9959 46.4176 21.938 46.5208 21.8349C46.624 21.7317 46.682 21.5919 46.682 21.446V19.2464C46.6817 19.1428 46.6521 19.0413 46.5966 18.9538C46.5411 18.8662 46.4619 18.7961 46.3683 18.7515C46.2794 18.7121 46.1816 18.6969 46.0849 18.7076C45.9882 18.7182 45.8961 18.7542 45.8179 18.812L44.3098 20.0108C44.2509 20.0581 44.1829 20.0927 44.1099 20.1126C44.037 20.1325 43.9608 20.1371 43.886 20.1263L40.5837 19.6259H40.4956C40.3624 19.5943 40.2457 19.5143 40.1684 19.4014C40.091 19.2886 40.0586 19.151 40.0773 19.0155C40.1005 18.8719 40.1797 18.7434 40.2975 18.658C40.414 18.5707 40.5605 18.5331 40.7047 18.5536L43.5393 18.9825C43.6137 18.9941 43.6897 18.9903 43.7626 18.9714C43.8355 18.9525 43.9037 18.9188 43.9631 18.8725L46.7921 16.6234C46.9333 16.5638 47.0811 16.5213 47.2324 16.4969H47.7828C47.9288 16.4969 48.0688 16.439 48.172 16.3359C48.2752 16.2327 48.3332 16.0929 48.3332 15.947V15.7161C48.3336 15.6088 48.3025 15.5037 48.2438 15.4138C48.1851 15.3239 48.1014 15.2531 48.003 15.2102C47.5394 15.008 47.1596 14.6526 46.9275 14.2036C46.6954 13.7546 46.6251 13.2395 46.7285 12.7448C46.8318 12.2501 47.1025 11.8061 47.4949 11.4874C47.8874 11.1686 48.3778 10.9946 48.8836 10.9946C49.3894 10.9946 49.8797 11.1686 50.2722 11.4874C50.6647 11.8061 50.9354 12.2501 51.0387 12.7448C51.1421 13.2395 51.0718 13.7546 50.8396 14.2036C50.6075 14.6526 50.2278 15.008 49.7642 15.2102C49.6658 15.2531 49.582 15.3239 49.5233 15.4138C49.4647 15.5037 49.4336 15.6088 49.434 15.7161V15.947C49.434 16.0929 49.492 16.2327 49.5952 16.3359C49.6984 16.439 49.8384 16.4969 49.9844 16.4969H50.3256C50.4673 16.4964 50.6033 16.4412 50.7054 16.343C50.7615 16.287 50.8291 16.2439 50.9035 16.2165L54.1013 15.1167C54.1996 15.0831 54.2864 15.0225 54.3517 14.9417C54.4169 14.8609 54.458 14.7634 54.4701 14.6603L54.9379 10.3876C54.9545 10.2434 55.0275 10.1117 55.1409 10.021C55.2543 9.93038 55.3989 9.8882 55.5433 9.90366C55.6153 9.91128 55.688 9.90466 55.7573 9.88419C55.8267 9.86371 55.8913 9.82977 55.9476 9.78432C56.0038 9.73887 56.0505 9.68279 56.085 9.61929C56.1196 9.55579 56.1412 9.48612 56.1488 9.41425C56.1642 9.26998 56.122 9.12544 56.0313 9.01214C55.9406 8.89883 55.8087 8.82595 55.6644 8.80936C55.4486 8.78489 55.2301 8.8032 55.0214 8.86323C54.8127 8.92326 54.6179 9.02384 54.4482 9.1592C54.2784 9.29457 54.1371 9.46206 54.0322 9.65208C53.9274 9.8421 53.8611 10.0509 53.8371 10.2666L53.4023 14.1819L51.7897 14.7318C52.0768 14.1916 52.208 13.5824 52.1686 12.9721C52.1293 12.3618 51.9209 11.7744 51.5668 11.2756C51.2127 10.7767 50.7268 10.386 50.1633 10.1471C49.5998 9.90813 48.981 9.83036 48.3758 9.92245C47.7707 10.0145 47.2031 10.2729 46.7364 10.6686C46.2696 11.0643 45.9222 11.5818 45.7328 12.1634C45.5434 12.7449 45.5195 13.3676 45.6638 13.962C45.8081 14.5563 46.1149 15.0989 46.5499 15.5291L46.2802 15.6336L46.1591 15.7051L43.4622 17.8497L40.8644 17.4593C40.458 17.4037 40.0455 17.5013 39.7071 17.733C39.3688 17.9646 39.1289 18.3138 39.0341 18.7125C38.9393 19.1112 38.9965 19.5309 39.1944 19.8898C39.3923 20.2487 39.7169 20.5212 40.1048 20.6542C40.1913 20.682 40.2796 20.704 40.369 20.7201L43.6714 21.2206C43.8977 21.2593 44.1296 21.2505 44.3523 21.1946C44.575 21.1387 44.7836 21.0371 44.9648 20.8961Z" fill="#F59D0D"/>
<path d="M71.4166 4.78961C71.235 4.63031 71.0206 4.51278 70.7885 4.44532C70.5565 4.37785 70.3124 4.36211 70.0736 4.39919C69.679 4.47576 69.3242 4.68955 69.0723 5.00263C68.8204 5.3157 68.6877 5.70781 68.6976 6.10937V13.1975H67.3052C67.6337 12.827 67.8753 12.3879 68.0124 11.9123C68.1495 11.4366 68.1787 10.9364 68.0977 10.4481C67.984 9.80357 67.6809 9.20745 67.2271 8.73548C66.7734 8.26352 66.1894 7.93704 65.5494 7.79755C65.0649 7.69529 64.5636 7.70194 64.0819 7.81702C63.6003 7.9321 63.1502 8.15272 62.7644 8.46293C62.1702 8.94472 61.7619 9.61776 61.6093 10.367C61.4567 11.1162 61.5693 11.8952 61.9278 12.5707L60.3152 12.0208L59.8859 8.17149C59.8547 7.75244 59.6693 7.35977 59.3654 7.06931C59.0615 6.77886 58.6606 6.61122 58.2402 6.59878C58.0094 6.60002 57.7814 6.64959 57.5709 6.74431C57.3604 6.83903 57.1722 6.97678 57.0183 7.14868C56.8603 7.31987 56.7403 7.52255 56.6664 7.74338C56.5924 7.96421 56.566 8.1982 56.589 8.42994L57.1394 13.379C57.1742 13.6886 57.2961 13.9821 57.4909 14.2254C57.6857 14.4687 57.9455 14.6519 58.2402 14.7538L61.5425 15.903V20.1978L58.719 23.0297C58.4113 23.3397 58.2391 23.7589 58.2402 24.1955V29.0841C58.2302 29.4857 58.3629 29.8778 58.6148 30.1908C58.8667 30.5039 59.2215 30.7177 59.6162 30.7943C59.8549 30.8346 60.0995 30.822 60.3328 30.7574C60.5661 30.6927 60.7823 30.5776 60.9661 30.4202C61.1499 30.2628 61.2968 30.067 61.3964 29.8465C61.4961 29.6261 61.5459 29.3864 61.5425 29.1446V24.8774L64.4101 21.9959H64.8449V31.2837C64.8349 31.6853 64.9677 32.0774 65.2196 32.3904C65.4714 32.7035 65.8262 32.9173 66.2209 32.9939C66.3124 33.002 66.4045 33.002 66.4961 32.9939C66.934 32.9939 67.354 32.8201 67.6636 32.5107C67.9733 32.2013 68.1473 31.7817 68.1473 31.3442V18.1466C68.1473 18.0008 68.0893 17.8609 67.9861 17.7578C67.8828 17.6547 67.7428 17.5967 67.5969 17.5967C67.4509 17.5967 67.3109 17.6547 67.2077 17.7578C67.1045 17.8609 67.0465 18.0008 67.0465 18.1466V31.3442C67.0476 31.425 67.031 31.505 66.9977 31.5787C66.9644 31.6523 66.9152 31.7177 66.8537 31.7702C66.7923 31.8227 66.7199 31.861 66.642 31.8824C66.564 31.9038 66.4822 31.9078 66.4025 31.8941C66.2683 31.8612 66.1495 31.7831 66.0663 31.6729C65.9831 31.5627 65.9404 31.4272 65.9457 31.2892V21.446C65.9457 21.3002 65.8877 21.1603 65.7845 21.0572C65.6813 20.9541 65.5413 20.8961 65.3953 20.8961H64.1789C64.1065 20.8957 64.0347 20.9096 63.9676 20.9369C63.9006 20.9643 63.8396 21.0046 63.7881 21.0556L60.6014 24.2615C60.5504 24.3129 60.51 24.3738 60.4826 24.4408C60.4552 24.5078 60.4413 24.5796 60.4418 24.6519V29.1446C60.4429 29.2254 60.4263 29.3055 60.393 29.3791C60.3597 29.4527 60.3105 29.5181 60.249 29.5706C60.1875 29.6231 60.1152 29.6614 60.0372 29.6828C59.9593 29.7043 59.8775 29.7082 59.7978 29.6945C59.6636 29.6617 59.5448 29.5835 59.4616 29.4733C59.3783 29.3631 59.3357 29.2276 59.341 29.0896V24.1955C59.3406 24.1231 59.3544 24.0514 59.3818 23.9844C59.4092 23.9174 59.4496 23.8565 59.5006 23.8051L62.4837 20.8136C62.5347 20.7623 62.5751 20.7013 62.6025 20.6343C62.6299 20.5673 62.6438 20.4956 62.6433 20.4232V15.5126C62.644 15.398 62.6088 15.286 62.5427 15.1924C62.4766 15.0987 62.3829 15.028 62.2746 14.9902L58.609 13.7145C58.5117 13.6801 58.426 13.619 58.3618 13.5383C58.2976 13.4576 58.2573 13.3605 58.2457 13.258L57.6953 8.30896C57.6867 8.23309 57.694 8.15625 57.7167 8.08335C57.7395 8.01045 57.7772 7.94309 57.8274 7.88554C57.879 7.82688 57.9425 7.77987 58.0136 7.74763C58.0848 7.7154 58.162 7.69867 58.2402 7.69857C58.3816 7.712 58.5139 7.77425 58.6144 7.87461C58.7148 7.97497 58.7771 8.10717 58.7906 8.24847L59.2529 12.4497C59.265 12.5528 59.306 12.6504 59.3713 12.7311C59.4366 12.8119 59.5234 12.8726 59.6217 12.9061L62.8195 14.0059C62.8938 14.0333 62.9614 14.0765 63.0176 14.1324C63.1196 14.2306 63.2557 14.2858 63.3974 14.2863H63.7441C63.8901 14.2863 64.0301 14.2284 64.1333 14.1253C64.2365 14.0222 64.2945 13.8823 64.2945 13.7365V13.5055C64.2949 13.3982 64.2638 13.2931 64.2051 13.2032C64.1465 13.1133 64.0627 13.0425 63.9643 12.9996C63.5007 12.7975 63.1209 12.442 62.8888 11.993C62.6567 11.544 62.5864 11.0289 62.6898 10.5342C62.7931 10.0396 63.0638 9.59552 63.4563 9.27678C63.8487 8.95804 64.3391 8.78404 64.8449 8.78404C65.3507 8.78404 65.8411 8.95804 66.2335 9.27678C66.626 9.59552 66.8967 10.0396 67 10.5342C67.1034 11.0289 67.0331 11.544 66.801 11.993C66.5689 12.442 66.1891 12.7975 65.7255 12.9996C65.6271 13.0425 65.5434 13.1133 65.4847 13.2032C65.426 13.2931 65.3949 13.3982 65.3953 13.5055V13.7474C65.3953 13.8933 65.4533 14.0332 65.5565 14.1363C65.6597 14.2394 65.7997 14.2973 65.9457 14.2973H68.6976C68.9896 14.2973 69.2696 14.1815 69.476 13.9752C69.6825 13.769 69.7984 13.4892 69.7984 13.1975V6.10937C69.7929 5.97214 69.8347 5.83719 69.9169 5.72708C69.999 5.61697 70.1166 5.53839 70.2498 5.50448C70.3305 5.49022 70.4135 5.49418 70.4925 5.51606C70.5715 5.53795 70.6447 5.5772 70.7066 5.63096C70.767 5.68259 70.8155 5.74668 70.8488 5.81882C70.882 5.89097 70.8992 5.96945 70.8992 6.04888V13.1975C70.8992 13.7809 70.6673 14.3404 70.2544 14.7529C69.8415 15.1654 69.2815 15.3971 68.6976 15.3971H67.5969C67.4509 15.3971 67.3109 15.4551 67.2077 15.5582C67.1045 15.6613 67.0465 15.8012 67.0465 15.947C67.0465 16.0929 67.1045 16.2327 67.2077 16.3359C67.3109 16.439 67.4509 16.4969 67.5969 16.4969H68.6976C69.5735 16.4969 70.4135 16.1493 71.0328 15.5306C71.6521 14.9118 72 14.0726 72 13.1975V6.04888C72.0001 5.80924 71.948 5.57245 71.8473 5.35498C71.7465 5.13751 71.5995 4.94458 71.4166 4.78961Z" fill="#F59D0D"/>
<path d="M40.6276 6.59877C41.0656 6.59877 41.4855 6.42497 41.7952 6.11559C42.1048 5.80621 42.2788 5.38661 42.2788 4.94908V3.29939H45.5812V4.49816C45.2505 4.38137 44.8912 4.37279 44.5554 4.47367C44.2195 4.57455 43.9245 4.77965 43.7132 5.05925C43.5018 5.33886 43.385 5.67843 43.3798 6.02878C43.3745 6.37913 43.4811 6.72205 43.6839 7.00786C43.8868 7.29366 44.1755 7.50751 44.5082 7.6184C44.8409 7.7293 45.2002 7.73149 45.5343 7.62465C45.8683 7.51781 46.1595 7.3075 46.3659 7.02418C46.5722 6.74086 46.6829 6.39926 46.682 6.04888V0.549898C46.682 0.404056 46.624 0.264187 46.5207 0.161061C46.4175 0.0579355 46.2775 0 46.1316 0H41.7284C41.5824 0 41.4425 0.0579355 41.3392 0.161061C41.236 0.264187 41.178 0.404056 41.178 0.549898V3.39837C40.9509 3.31604 40.7085 3.2845 40.4679 3.30598C40.2273 3.32746 39.9943 3.40143 39.7854 3.52267C39.5765 3.64391 39.3968 3.80948 39.2589 4.00768C39.1211 4.20588 39.0284 4.43189 38.9875 4.66977C38.9466 4.90765 38.9584 5.1516 39.0222 5.38441C39.0859 5.61723 39.2 5.83323 39.3564 6.01718C39.5128 6.20113 39.7077 6.34855 39.9274 6.44904C40.147 6.54953 40.3861 6.60065 40.6276 6.59877ZM45.0308 6.59877C44.9219 6.59877 44.8155 6.56652 44.725 6.5061C44.6345 6.44568 44.5639 6.35979 44.5223 6.25931C44.4806 6.15883 44.4697 6.04827 44.491 5.9416C44.5122 5.83493 44.5646 5.73695 44.6416 5.66004C44.7186 5.58314 44.8166 5.53076 44.9234 5.50954C45.0302 5.48833 45.1408 5.49922 45.2414 5.54084C45.342 5.58246 45.4279 5.65294 45.4884 5.74337C45.5489 5.8338 45.5812 5.94012 45.5812 6.04888C45.5812 6.19472 45.5232 6.33459 45.42 6.43771C45.3167 6.54084 45.1767 6.59877 45.0308 6.59877ZM42.2788 1.0998H45.5812V2.19959H42.2788V1.0998ZM40.6276 4.39918C40.7365 4.39918 40.8429 4.43143 40.9334 4.49186C41.0239 4.55228 41.0945 4.63816 41.1361 4.73864C41.1778 4.83912 41.1887 4.94969 41.1674 5.05636C41.1462 5.16303 41.0938 5.26101 41.0168 5.33792C40.9398 5.41482 40.8418 5.4672 40.735 5.48841C40.6282 5.50963 40.5176 5.49874 40.417 5.45712C40.3164 5.4155 40.2305 5.34502 40.17 5.25459C40.1095 5.16416 40.0772 5.05784 40.0772 4.94908C40.0772 4.80324 40.1352 4.66337 40.2384 4.56024C40.3417 4.45712 40.4817 4.39918 40.6276 4.39918Z" fill="#F59D0D"/>
<path d="M60.585 5.98288C60.8484 6.15511 61.1564 6.24684 61.4711 6.24683C61.7474 6.24502 62.0191 6.17597 62.2627 6.04566C62.5063 5.91535 62.7145 5.72771 62.8691 5.49897L64.3442 3.17841L66.6669 4.65763C66.7554 4.7148 66.8586 4.74534 66.9641 4.74561C67.0562 4.74546 67.1467 4.72222 67.2275 4.67803C67.3083 4.63384 67.3767 4.5701 67.4264 4.49266L68.6097 2.63401C68.6538 2.57166 68.6844 2.50084 68.6995 2.42605C68.7147 2.35126 68.7141 2.27414 68.6978 2.19959C68.6638 2.05769 68.5773 1.93391 68.4556 1.85315L65.6596 0.087981C65.537 0.00943164 65.3881 -0.0173126 65.2457 0.0136119C65.1034 0.0445364 64.9791 0.130606 64.9001 0.25295L63.7443 2.10611L62.7756 3.58533C62.6615 3.4355 62.5217 3.30704 62.3628 3.2059C61.9947 2.99206 61.5581 2.92857 61.1443 3.02868C60.7304 3.1288 60.3713 3.38477 60.1418 3.74316C59.9124 4.10155 59.8304 4.53464 59.913 4.95199C59.9956 5.36934 60.2363 5.73868 60.585 5.98288ZM65.5385 1.30875L67.3934 2.49103L66.7934 3.42036L64.9386 2.23808L65.5385 1.30875ZM60.9923 4.3002C61.0425 4.22197 61.1118 4.15774 61.1936 4.1135C61.2754 4.06927 61.3671 4.04647 61.4601 4.04724C61.5647 4.04813 61.6673 4.07658 61.7574 4.12973C61.879 4.20943 61.964 4.33398 61.994 4.47616C62.0255 4.61769 61.9998 4.76591 61.9225 4.88859C61.8838 4.94962 61.8335 5.00244 61.7744 5.04403C61.7153 5.08563 61.6486 5.11518 61.578 5.13101C61.5075 5.14684 61.4345 5.14864 61.3633 5.13629C61.2921 5.12394 61.224 5.0977 61.1629 5.05906C61.1018 5.02043 61.049 4.97016 61.0073 4.91111C60.9657 4.85207 60.9361 4.78541 60.9203 4.71494C60.9044 4.64447 60.9026 4.57157 60.915 4.50041C60.9274 4.42925 60.9536 4.36121 60.9923 4.3002Z" fill="#F59D0D"/>
<path d="M49.9843 5.13055C50.0644 5.49727 50.2673 5.82572 50.5595 6.06166C50.8517 6.29761 51.2157 6.42694 51.5914 6.42831C51.7116 6.42638 51.8313 6.41349 51.9492 6.38982C52.3759 6.29594 52.748 6.0369 52.9839 5.66945L54.7617 2.88697C54.8403 2.76441 54.8671 2.6157 54.8361 2.47344C54.8051 2.33119 54.719 2.207 54.5965 2.12811C54.4739 2.04956 54.325 2.02282 54.1826 2.05374C54.0403 2.08467 53.916 2.17074 53.837 2.29308L52.8903 3.76681C52.778 3.61731 52.6401 3.48885 52.483 3.38738C52.1143 3.15224 51.6673 3.07287 51.2401 3.16669C50.8129 3.2605 50.4404 3.51985 50.2044 3.88778C50.0853 4.0692 50.0044 4.27292 49.9665 4.48657C49.9287 4.70021 49.9347 4.91931 49.9843 5.13055ZM51.1291 4.48167C51.168 4.42049 51.2187 4.36762 51.2783 4.32609C51.3378 4.28457 51.4049 4.25521 51.4758 4.23972C51.516 4.234 51.5567 4.234 51.5969 4.23972C51.6948 4.2405 51.7907 4.26734 51.8747 4.31748C51.9587 4.36762 52.0279 4.43924 52.075 4.52496C52.1221 4.61068 52.1455 4.7074 52.1427 4.80515C52.1399 4.9029 52.1111 4.99814 52.0592 5.08106C52.0203 5.14224 51.9696 5.19512 51.91 5.23665C51.8505 5.27817 51.7834 5.30752 51.7125 5.32302C51.6065 5.34622 51.496 5.33759 51.3949 5.29823C51.2938 5.25888 51.2066 5.19054 51.1442 5.1018C51.0819 5.01307 51.0472 4.90791 51.0445 4.79953C51.0418 4.69115 51.0712 4.58439 51.1291 4.49267V4.48167Z" fill="#F59D0D"/>
<path d="M57.69 4.39918C57.8359 4.39918 57.9759 4.34125 58.0792 4.23812C58.1824 4.13499 58.2404 3.99513 58.2404 3.84928V1.64969C58.2404 1.50385 58.1824 1.36398 58.0792 1.26086C57.9759 1.15773 57.8359 1.0998 57.69 1.0998C57.544 1.0998 57.404 1.15773 57.3008 1.26086C57.1976 1.36398 57.1396 1.50385 57.1396 1.64969V3.84928C57.1396 3.99513 57.1976 4.13499 57.3008 4.23812C57.404 4.34125 57.544 4.39918 57.69 4.39918Z" fill="#F59D0D"/>
<path d="M40.6278 10.998V12.6476C40.6278 12.7935 40.6858 12.9334 40.789 13.0365C40.8922 13.1396 41.0322 13.1975 41.1782 13.1975C41.3242 13.1975 41.4642 13.1396 41.5674 13.0365C41.6706 12.9334 41.7286 12.7935 41.7286 12.6476V10.998C41.7286 10.8521 41.6706 10.7122 41.5674 10.6091C41.4642 10.506 41.3242 10.4481 41.1782 10.4481C41.0322 10.4481 40.8922 10.506 40.789 10.6091C40.6858 10.7122 40.6278 10.8521 40.6278 10.998Z" fill="#F59D0D"/>
<path d="M52.1861 9.34826C52.49 9.34826 52.7365 9.10207 52.7365 8.79837C52.7365 8.49467 52.49 8.24847 52.1861 8.24847C51.8821 8.24847 51.6357 8.49467 51.6357 8.79837C51.6357 9.10207 51.8821 9.34826 52.1861 9.34826Z" fill="#F59D0D"/>
<path d="M49.4341 1.64969C49.7381 1.64969 49.9845 1.4035 49.9845 1.0998C49.9845 0.796095 49.7381 0.549898 49.4341 0.549898C49.1301 0.549898 48.8837 0.796095 48.8837 1.0998C48.8837 1.4035 49.1301 1.64969 49.4341 1.64969Z" fill="#F59D0D"/>
<path d="M30.3692 17.455H29.4379C29.463 17.2539 29.463 17.0527 29.463 16.8515V16.5246H11.0388V16.8515C11.0388 17.0527 11.0388 17.2539 11.0639 17.455H10.1578C9.52857 17.455 9 17.9831 9 18.6118C9 19.2405 9.52857 19.7686 10.1578 19.7686H11.5421C12.3224 22.0821 14.0088 23.9933 16.1734 25.0746L13.3795 31.3614C13.1278 31.9147 13.3795 32.5685 13.9333 32.82C14.0843 32.8954 14.2353 32.9205 14.3863 32.9205C14.5122 32.9205 14.6632 32.8954 14.7891 32.8451C15.0659 32.7445 15.2924 32.5433 15.3931 32.2667L16.7271 29.2742H23.8753L25.2093 32.2667C25.3352 32.5433 25.5366 32.7445 25.8134 32.8451C26.0903 32.9457 26.3923 32.9457 26.644 32.82C27.1978 32.5685 27.4495 31.9147 27.1978 31.3614L24.3536 25.0998C26.493 24.0436 28.1794 22.1576 28.9848 19.7937H30.3692C30.9984 19.7937 31.527 19.2656 31.527 18.6369C31.527 17.9831 30.9984 17.455 30.3692 17.455ZM10.1326 19.165V19.1399C9.85577 19.1399 9.62924 18.9136 9.62924 18.6369C9.62924 18.3603 9.85577 18.134 10.1326 18.134H11.1143C11.1646 18.4861 11.2149 18.813 11.3156 19.165H10.1326ZM26.5685 31.638C26.6692 31.8644 26.5685 32.141 26.342 32.2416C26.2413 32.2919 26.1155 32.2919 25.9896 32.2416C25.8889 32.1913 25.7883 32.1158 25.7379 32.0152L24.2277 28.5952L24.0012 28.6204H16.2741L14.7639 31.9901C14.7135 32.0907 14.638 32.1913 14.5122 32.2164C14.4115 32.2667 14.2857 32.2667 14.1598 32.2164C13.9333 32.1158 13.8326 31.8392 13.9333 31.6129L16.7271 25.3261C17.004 25.4518 17.2809 25.5524 17.5829 25.6279L16.5509 27.9917H23.9509L22.9189 25.6782C23.1958 25.6027 23.4978 25.5021 23.7747 25.3764L26.5685 31.638ZM18.2121 25.829C18.8666 25.9799 19.5461 26.0554 20.2509 26.0554C20.9557 26.0554 21.6352 25.9799 22.2897 25.829L22.9441 27.3127H17.5577L18.2121 25.829ZM28.4311 19.3914C27.2984 22.9874 24.0264 25.4267 20.2509 25.4267C15.9469 25.4267 12.3979 22.2581 11.7687 18.134H28.7079C28.6576 18.5615 28.5569 18.989 28.4311 19.3914ZM28.7835 17.455H11.6932C11.6932 17.3544 11.668 17.2539 11.668 17.1784H28.7835C28.8086 17.279 28.7835 17.3796 28.7835 17.455ZM30.3692 19.1399H29.1862C29.2617 18.813 29.3372 18.4609 29.3875 18.1089H30.3692C30.646 18.1089 30.8726 18.3352 30.8726 18.6118C30.8726 18.9136 30.646 19.1399 30.3692 19.1399Z" fill="#F59D0D"/>
<path d="M16.6515 14.6134C16.2992 14.89 15.8713 15.2169 15.8713 15.8708C15.8713 16.0468 16.0223 16.1977 16.1985 16.1977C16.3747 16.1977 16.5257 16.0468 16.5257 15.8708C16.5257 15.5439 16.727 15.3678 17.0543 15.1164C17.4066 14.8397 17.8345 14.5128 17.8345 13.8338C17.8345 13.1549 17.4066 12.828 17.0543 12.5513C16.727 12.2999 16.5257 12.1238 16.5257 11.7969C16.5257 11.47 16.727 11.294 17.0543 11.0425C17.4066 10.7659 17.8345 10.439 17.8345 9.78516C17.8345 9.60913 17.6835 9.45824 17.5073 9.45824C17.3311 9.45824 17.1801 9.60913 17.1801 9.78516C17.1801 10.1121 16.9787 10.2881 16.6515 10.5396C16.2992 10.8162 15.8713 11.1431 15.8713 11.7969C15.8713 12.4508 16.2992 12.8028 16.6515 13.0543C16.9787 13.3058 17.1801 13.4818 17.1801 13.8087C17.1801 14.1859 16.9787 14.3368 16.6515 14.6134Z" fill="#F59D0D"/>
<path d="M19.5965 14.6134C19.2441 14.89 18.8163 15.2169 18.8163 15.8708C18.8163 16.0468 18.9673 16.1977 19.1435 16.1977C19.3197 16.1977 19.4707 16.0468 19.4707 15.8708C19.4707 15.5439 19.672 15.3678 19.9992 15.1164C20.3516 14.8397 20.7795 14.5128 20.7795 13.8338C20.7795 13.1549 20.3516 12.828 19.9992 12.5513C19.672 12.2999 19.4707 12.1238 19.4707 11.7969C19.4707 11.47 19.672 11.294 19.9992 11.0425C20.3516 10.7659 20.7795 10.439 20.7795 9.78516C20.7795 9.60913 20.6285 9.45824 20.4523 9.45824C20.2761 9.45824 20.1251 9.60913 20.1251 9.78516C20.1251 10.1121 19.9237 10.2881 19.5965 10.5396C19.2441 10.8162 18.8163 11.1431 18.8163 11.7969C18.8163 12.4508 19.2441 12.8028 19.5965 13.0543C19.9237 13.3058 20.1251 13.4818 20.1251 13.8087C20.0999 14.1859 19.9237 14.3368 19.5965 14.6134Z" fill="#F59D0D"/>
<path d="M22.5919 14.6134C22.2396 14.89 21.8117 15.2169 21.8117 15.8708C21.8117 16.0468 21.9627 16.1977 22.1389 16.1977C22.3151 16.1977 22.4661 16.0468 22.4661 15.8708C22.4661 15.5439 22.6675 15.3678 22.9947 15.1164C23.347 14.8397 23.7749 14.5128 23.7749 13.8338C23.7749 13.1549 23.347 12.828 22.9947 12.5513C22.6675 12.2999 22.4661 12.1238 22.4661 11.7969C22.4661 11.47 22.6675 11.294 22.9947 11.0425C23.347 10.7659 23.7749 10.439 23.7749 9.78516C23.7749 9.60913 23.6239 9.45824 23.4477 9.45824C23.2715 9.45824 23.1205 9.60913 23.1205 9.78516C23.1205 10.1121 22.9192 10.2881 22.5919 10.5396C22.2396 10.8162 21.8117 11.1431 21.8117 11.7969C21.8117 12.4508 22.2396 12.8028 22.5919 13.0543C22.9192 13.3058 23.1205 13.4818 23.1205 13.8087C23.1205 14.1859 22.9443 14.3368 22.5919 14.6134Z" fill="#F59D0D"/>
<path d="M26.9917 48.439L25.7563 48.1436L26.2021 44.1797H30.5957V45.4312H27.4751L27.2817 47.166C27.3856 47.1051 27.5431 47.0407 27.7544 46.9727C27.9657 46.901 28.202 46.8652 28.4634 46.8652C28.8429 46.8652 29.1795 46.9243 29.4731 47.0425C29.7668 47.1606 30.0156 47.3325 30.2197 47.5581C30.4274 47.7837 30.585 48.0594 30.6924 48.3853C30.7998 48.7111 30.8535 49.0799 30.8535 49.4917C30.8535 49.839 30.7998 50.1702 30.6924 50.4854C30.585 50.7969 30.422 51.0762 30.2036 51.3232C29.9852 51.5667 29.7113 51.7583 29.3818 51.8979C29.0524 52.0376 28.6621 52.1074 28.2109 52.1074C27.8743 52.1074 27.5485 52.0573 27.2334 51.957C26.9219 51.8568 26.6408 51.7082 26.3901 51.5112C26.1431 51.3143 25.9443 51.0762 25.7939 50.7969C25.6471 50.514 25.5701 50.1917 25.563 49.8301H27.0991C27.1206 50.0521 27.1779 50.2437 27.271 50.4048C27.3677 50.5623 27.4948 50.6841 27.6523 50.77C27.8099 50.856 27.9943 50.8989 28.2056 50.8989C28.4025 50.8989 28.5708 50.8613 28.7104 50.7861C28.8501 50.7109 28.9629 50.6071 29.0488 50.4746C29.1348 50.3385 29.1974 50.181 29.2368 50.002C29.2798 49.8193 29.3013 49.6224 29.3013 49.4111C29.3013 49.1999 29.2762 49.0083 29.2261 48.8364C29.1759 48.6646 29.099 48.516 28.9951 48.3906C28.8913 48.2653 28.7588 48.1686 28.5977 48.1006C28.4401 48.0326 28.2557 47.9985 28.0444 47.9985C27.758 47.9985 27.536 48.0433 27.3784 48.1328C27.2244 48.2223 27.0955 48.3244 26.9917 48.439ZM37.1162 47.4023V48.7559C37.1162 49.3431 37.0535 49.8498 36.9282 50.2759C36.8029 50.6984 36.6221 51.0457 36.3857 51.3179C36.153 51.5864 35.8755 51.7852 35.5532 51.9141C35.231 52.043 34.8729 52.1074 34.479 52.1074C34.1639 52.1074 33.8703 52.068 33.5981 51.9893C33.326 51.9069 33.0807 51.7798 32.8623 51.6079C32.6475 51.436 32.4613 51.2194 32.3037 50.958C32.1497 50.693 32.0316 50.3779 31.9492 50.0127C31.8669 49.6475 31.8257 49.2285 31.8257 48.7559V47.4023C31.8257 46.8151 31.8883 46.312 32.0137 45.8931C32.1426 45.4705 32.3234 45.125 32.5562 44.8564C32.7925 44.5879 33.0718 44.391 33.394 44.2656C33.7163 44.1367 34.0744 44.0723 34.4683 44.0723C34.7834 44.0723 35.0752 44.1134 35.3438 44.1958C35.6159 44.2746 35.8612 44.3981 36.0796 44.5664C36.298 44.7347 36.4842 44.9513 36.6382 45.2163C36.7922 45.4777 36.9103 45.791 36.9927 46.1562C37.075 46.5179 37.1162 46.9333 37.1162 47.4023ZM35.564 48.96V47.1929C35.564 46.91 35.5479 46.6629 35.5156 46.4517C35.487 46.2404 35.4422 46.0614 35.3813 45.9146C35.3205 45.7642 35.2453 45.6424 35.1558 45.5493C35.0662 45.4562 34.9642 45.3882 34.8496 45.3452C34.735 45.3022 34.6079 45.2808 34.4683 45.2808C34.2928 45.2808 34.137 45.3148 34.001 45.3828C33.8685 45.4508 33.7557 45.5601 33.6626 45.7104C33.5695 45.8573 33.4979 46.0542 33.4478 46.3013C33.4012 46.5448 33.3779 46.842 33.3779 47.1929V48.96C33.3779 49.2428 33.3923 49.4917 33.4209 49.7065C33.4531 49.9214 33.4997 50.1058 33.5605 50.2598C33.625 50.4102 33.7002 50.5337 33.7861 50.6304C33.8757 50.7235 33.9777 50.7915 34.0923 50.8345C34.2104 50.8774 34.3394 50.8989 34.479 50.8989C34.6509 50.8989 34.8031 50.8649 34.9355 50.7969C35.0716 50.7253 35.1862 50.6143 35.2793 50.4639C35.376 50.3099 35.4476 50.1094 35.4941 49.8623C35.5407 49.6152 35.564 49.3145 35.564 48.96ZM43.4326 47.4023V48.7559C43.4326 49.3431 43.37 49.8498 43.2446 50.2759C43.1193 50.6984 42.9385 51.0457 42.7021 51.3179C42.4694 51.5864 42.1919 51.7852 41.8696 51.9141C41.5474 52.043 41.1893 52.1074 40.7954 52.1074C40.4803 52.1074 40.1867 52.068 39.9146 51.9893C39.6424 51.9069 39.3971 51.7798 39.1787 51.6079C38.9639 51.436 38.7777 51.2194 38.6201 50.958C38.4661 50.693 38.348 50.3779 38.2656 50.0127C38.1833 49.6475 38.1421 49.2285 38.1421 48.7559V47.4023C38.1421 46.8151 38.2048 46.312 38.3301 45.8931C38.459 45.4705 38.6398 45.125 38.8726 44.8564C39.1089 44.5879 39.3882 44.391 39.7104 44.2656C40.0327 44.1367 40.3908 44.0723 40.7847 44.0723C41.0998 44.0723 41.3916 44.1134 41.6602 44.1958C41.9323 44.2746 42.1776 44.3981 42.396 44.5664C42.6144 44.7347 42.8006 44.9513 42.9546 45.2163C43.1086 45.4777 43.2267 45.791 43.3091 46.1562C43.3914 46.5179 43.4326 46.9333 43.4326 47.4023ZM41.8804 48.96V47.1929C41.8804 46.91 41.8643 46.6629 41.832 46.4517C41.8034 46.2404 41.7586 46.0614 41.6978 45.9146C41.6369 45.7642 41.5617 45.6424 41.4722 45.5493C41.3826 45.4562 41.2806 45.3882 41.166 45.3452C41.0514 45.3022 40.9243 45.2808 40.7847 45.2808C40.6092 45.2808 40.4535 45.3148 40.3174 45.3828C40.1849 45.4508 40.0721 45.5601 39.979 45.7104C39.8859 45.8573 39.8143 46.0542 39.7642 46.3013C39.7176 46.5448 39.6943 46.842 39.6943 47.1929V48.96C39.6943 49.2428 39.7087 49.4917 39.7373 49.7065C39.7695 49.9214 39.8161 50.1058 39.877 50.2598C39.9414 50.4102 40.0166 50.5337 40.1025 50.6304C40.1921 50.7235 40.2941 50.7915 40.4087 50.8345C40.5269 50.8774 40.6558 50.8989 40.7954 50.8989C40.9673 50.8989 41.1195 50.8649 41.252 50.7969C41.388 50.7253 41.5026 50.6143 41.5957 50.4639C41.6924 50.3099 41.764 50.1094 41.8105 49.8623C41.8571 49.6152 41.8804 49.3145 41.8804 48.96ZM46.0967 43.7446V52H44.5498V43.7446H46.0967ZM49.7598 46.1885L47.2354 49.0674L45.8818 50.437L45.3179 49.3198L46.3921 47.9556L47.9014 46.1885H49.7598ZM48.1538 52L46.4351 49.3145L47.5039 48.3799L49.937 52H48.1538ZM53.9976 46.1885H55.3994V51.8066C55.3994 52.3366 55.2812 52.786 55.0449 53.1548C54.8122 53.5272 54.4863 53.8083 54.0674 53.998C53.6484 54.1914 53.1615 54.2881 52.6064 54.2881C52.363 54.2881 52.1051 54.2559 51.833 54.1914C51.5645 54.127 51.3066 54.0267 51.0596 53.8906C50.8161 53.7546 50.612 53.5827 50.4473 53.375L51.1294 52.4619C51.3084 52.6696 51.5161 52.8307 51.7524 52.9453C51.9888 53.0635 52.2502 53.1226 52.5366 53.1226C52.8159 53.1226 53.0522 53.0706 53.2456 52.9668C53.439 52.8665 53.5876 52.7179 53.6914 52.521C53.7952 52.3276 53.8472 52.0931 53.8472 51.8174V47.5312L53.9976 46.1885ZM50.0874 49.1641V49.0513C50.0874 48.6073 50.1411 48.2044 50.2485 47.8428C50.3595 47.4775 50.5153 47.1642 50.7158 46.9028C50.9199 46.6414 51.167 46.4391 51.457 46.2959C51.7471 46.1527 52.0747 46.0811 52.4399 46.0811C52.8267 46.0811 53.1507 46.1527 53.4121 46.2959C53.6735 46.4391 53.8883 46.6432 54.0566 46.9082C54.2249 47.1696 54.3556 47.4793 54.4487 47.8374C54.5454 48.1919 54.6206 48.5804 54.6743 49.0029V49.25C54.6206 49.6546 54.54 50.0306 54.4326 50.3779C54.3252 50.7253 54.1838 51.0296 54.0083 51.291C53.8328 51.5488 53.6144 51.7493 53.353 51.8926C53.0952 52.0358 52.7873 52.1074 52.4292 52.1074C52.0711 52.1074 51.7471 52.034 51.457 51.8872C51.1706 51.7404 50.9253 51.5345 50.7212 51.2695C50.5171 51.0046 50.3595 50.693 50.2485 50.335C50.1411 49.9769 50.0874 49.5866 50.0874 49.1641ZM51.6343 49.0513V49.1641C51.6343 49.404 51.6576 49.6278 51.7041 49.8354C51.7507 50.0431 51.8223 50.2275 51.9189 50.3887C52.0192 50.5462 52.1427 50.6698 52.2896 50.7593C52.4399 50.8452 52.6172 50.8882 52.8213 50.8882C53.1042 50.8882 53.3351 50.8291 53.5142 50.7109C53.6932 50.5892 53.8275 50.4227 53.917 50.2114C54.0065 50.0002 54.0584 49.7567 54.0728 49.481V48.7773C54.0656 48.5518 54.0352 48.3494 53.9814 48.1704C53.9277 47.9878 53.8525 47.832 53.7559 47.7031C53.6592 47.5742 53.5339 47.474 53.3799 47.4023C53.2259 47.3307 53.0433 47.2949 52.832 47.2949C52.6279 47.2949 52.4507 47.3415 52.3003 47.4346C52.1535 47.5241 52.0299 47.6476 51.9297 47.8052C51.833 47.9627 51.7596 48.1489 51.7095 48.3638C51.6593 48.575 51.6343 48.8042 51.6343 49.0513Z" fill="#1C1C1C"/>
</svg>
