<svg width="167" height="129" viewBox="0 0 167 129" fill="none" xmlns="http://www.w3.org/2000/svg">
<path d="M85.7207 26.4019L132.5 56.4019L85.7207 98.4017L37 58.6373L85.7207 26.4019Z" fill="#E0EAFE"/>
<line x1="2.5" y1="-2.5" x2="93.2042" y2="-2.5" transform="matrix(0.821761 -0.569832 0.406166 0.913799 18 75.437)" stroke="#F59D0D" stroke-width="5" stroke-linecap="round"/>
<line x1="2.5" y1="-2.5" x2="102.693" y2="-2.5" transform="matrix(0.768178 0.640237 -0.471206 0.882023 22.6133 50.2603)" stroke="#F59D0D" stroke-width="5" stroke-linecap="round"/>
<line x1="2.5" y1="-2.5" x2="99.8945" y2="-2.5" transform="matrix(0.78963 0.613584 -0.445841 0.895112 39.9297 39.6865)" stroke="#F59D0D" stroke-width="5" stroke-linecap="round"/>
<line x1="2.5" y1="-2.5" x2="96.3949" y2="-2.5" transform="matrix(0.827629 0.561275 -0.398664 0.917097 54.2305 29.9258)" stroke="#F59D0D" stroke-width="5" stroke-linecap="round"/>
<line x1="2.5" y1="-2.5" x2="93.0482" y2="-2.5" transform="matrix(0.844581 0.535428 -0.376465 0.926431 69.3008 20.9033)" stroke="#F59D0D" stroke-width="5" stroke-linecap="round"/>
<line x1="2.5" y1="-2.5" x2="95.0212" y2="-2.5" transform="matrix(0.804797 -0.59355 0.427389 0.904068 32.9531 87.8086)" stroke="#F59D0D" stroke-width="5" stroke-linecap="round"/>
<line x1="2.5" y1="-2.5" x2="99.4687" y2="-2.5" transform="matrix(0.77703 -0.629463 0.460835 0.887486 48.4609 102.513)" stroke="#F59D0D" stroke-width="5" stroke-linecap="round"/>
<line x1="2.5" y1="-2.5" x2="104.099" y2="-2.5" transform="matrix(0.736123 -0.676848 0.50775 0.861504 66.3945 119.902)" stroke="#F59D0D" stroke-width="5" stroke-linecap="round"/>
</svg>
