<svg width="349" height="102" viewBox="0 0 349 102" fill="none" xmlns="http://www.w3.org/2000/svg">
<path d="M18.6488 0.000114441H74.5966C84.897 0.000114441 93.2454 8.35007 93.2454 18.6489V74.5967C93.2454 84.8971 84.897 93.2471 74.5966 93.2471H18.6488C8.3484 93.2471 0 84.8971 0 74.5967V18.6489C0 8.35007 8.3484 0.000114441 18.6488 0.000114441Z" fill="#F59D0D"/>
<mask id="mask0_411_2226" style="mask-type:luminance" maskUnits="userSpaceOnUse" x="19" y="19" width="54" height="54">
<mask id="mask1_411_2226" style="mask-type:luminance" maskUnits="userSpaceOnUse" x="19" y="19" width="54" height="54">
<path d="M19.7471 19.9002H72.8286V72.7402H19.7471V19.9002Z" fill="white"/>
</mask>
<g mask="url(#mask1_411_2226)">
<path d="M19.7471 19.5889H72.8286V72.7405H19.7471V19.5889Z" fill="black"/>
<mask id="mask2_411_2226" style="mask-type:luminance" maskUnits="userSpaceOnUse" x="19" y="19" width="54" height="54">
<path d="M19.749 19.5919H72.8305V72.7435H19.749V19.5919Z" fill="white"/>
</mask>
<g mask="url(#mask2_411_2226)">
<path d="M89.4314 4.15108H3.89258V89.1088H89.4314V4.15108Z" fill="white"/>
</g>
</g>
</mask>
<g mask="url(#mask0_411_2226)">
<mask id="mask3_411_2226" style="mask-type:luminance" maskUnits="userSpaceOnUse" x="19" y="19" width="54" height="54">
<path d="M19.7471 19.9002H72.8286V72.7402H19.7471V19.9002Z" fill="white"/>
</mask>
<g mask="url(#mask3_411_2226)">
<path d="M42.6191 49.1335H49.9565C52.8587 49.1335 55.2204 51.4858 55.2204 54.3787V64.5794C55.2204 66.5095 56.8078 68.0798 58.7598 68.0798H67.5646C67.898 68.0798 68.1691 67.8165 68.1691 67.494V39.8691C68.1691 39.6806 68.074 39.503 67.9151 39.3924L46.6399 24.6647C46.4296 24.5198 46.146 24.5198 45.9357 24.6647L24.6589 39.3924C24.5016 39.503 24.4065 39.6806 24.4065 39.8691V67.494C24.4065 67.8165 24.6776 68.0798 25.011 68.0798H33.8158C35.7662 68.0798 37.3552 66.5095 37.3552 64.5794V54.3787C37.3552 51.4858 39.7169 49.1335 42.6191 49.1335ZM67.5646 72.7393H58.7598C54.239 72.7393 50.5609 69.0784 50.5609 64.5794V54.3787C50.5609 54.0562 50.2899 53.7929 49.9565 53.7929H42.6191C42.2857 53.7929 42.0147 54.0562 42.0147 54.3787V64.5794C42.0147 69.0784 38.3366 72.7393 33.8158 72.7393H25.011C22.1087 72.7393 19.7471 70.3869 19.7471 67.494V39.8691C19.7471 38.1508 20.5914 36.5415 22.0075 35.5617L43.2827 20.8324C45.0805 19.5893 47.4951 19.5893 49.2913 20.8324L70.5681 35.5617C71.9842 36.5415 72.8285 38.1523 72.8285 39.8691V67.494C72.8285 70.3869 70.4669 72.7393 67.5646 72.7393Z" fill="#121331"/>
</g>
</g>
<path d="M139.887 73.5049H131.468V21.6951H139.887V73.5049Z" fill="#04243A"/>
<path d="M179.174 54.5086C179.174 47.8769 174.162 42.9402 167.458 42.9402C160.751 42.9402 155.741 47.8769 155.741 54.5086C155.741 61.1403 160.751 66.077 167.458 66.077C174.162 66.077 179.174 61.1403 179.174 54.5086ZM186.985 36.4549V71.6042C186.985 83.4671 177.7 88.9943 168.268 88.9943C158.908 88.9943 150.139 83.6151 150.139 74.6264H158.1C158.1 78.0147 161.782 81.7722 168.268 81.7722C175.194 81.7722 179.174 78.0147 179.174 71.6042V67.1083C176.373 71.0886 172.025 73.5204 166.13 73.5204C156.109 73.5204 147.782 65.0458 147.782 54.5086C147.782 43.8967 156.109 35.4969 166.13 35.4969C172.025 35.4969 176.373 37.9286 179.174 41.9073V36.4549H186.985Z" fill="#04243A"/>
<path d="M195.906 20.0761H204.002V73.5049H195.906V20.0761Z" fill="#04243A"/>
<path d="M242.92 36.4523V73.2965H234.962V69.0966C232.604 72.7061 228.993 74.2561 224.498 74.2561C217.644 74.2561 212.338 69.0234 212.338 60.1796V36.4523H220.298V59.6639C220.298 64.4542 223.171 66.8128 227.002 66.8128C231.203 66.8128 234.962 64.3062 234.962 57.6014V36.4523H242.92Z" fill="#04243A"/>
<path d="M303.496 73.2965H291.707V41.685L281.758 65.2643H273.653L263.705 41.685V73.2965H251.915V21.7152H263.705H265.178L277.705 51.4853L290.233 21.7152H303.496V73.2965Z" fill="#04243A"/>
<path d="M337.471 50.8943C336.292 46.6944 333.05 45.2207 329.808 45.2207C325.682 45.2207 322.807 47.21 321.628 50.8943H337.471ZM330.324 65.4101C332.977 65.4101 335.557 64.2324 336.661 62.6107L347.419 62.5375C344.988 70.2737 338.504 74.3271 330.176 74.3271C317.945 74.3271 310.133 65.8541 310.133 54.873C310.133 43.8934 318.238 35.4188 329.881 35.4188C340.64 35.4188 348.452 43.747 348.452 54.873C348.452 56.4215 348.304 57.8952 348.01 59.2957H321.703C323.029 63.642 326.492 65.4101 330.324 65.4101Z" fill="#04243A"/>
<path d="M203.502 96.2849V98.1699H196.731V86.1731H198.702V96.2849H203.502Z" fill="#F59D0D"/>
<path d="M209.722 95.6683C209.722 94.8801 208.985 94.4003 207.888 94.4003C206.723 94.4003 206.192 94.9315 206.192 95.6683C206.192 96.4052 206.723 96.9535 207.888 96.9535C208.985 96.9535 209.722 96.4052 209.722 95.6683ZM211.54 92.6866V98.1702H209.722V97.3648C209.19 98.0347 208.385 98.3945 207.288 98.3945C205.746 98.3945 204.341 97.4863 204.341 95.6683C204.341 93.8519 205.746 92.9608 207.288 92.9608C208.385 92.9608 209.19 93.3035 209.722 93.8348V92.7723C209.722 91.5728 209.036 91.1101 208.128 91.1101C207.22 91.1101 206.534 91.5728 206.534 92.4296H204.718C204.718 90.5275 206.226 89.3778 208.128 89.3778C210.03 89.3778 211.54 90.5275 211.54 92.6866Z" fill="#F59D0D"/>
<path d="M215.659 88.4975H213.783V86.4571H215.659V88.4975ZM213.783 89.8562H215.659V98.7013C215.659 101.048 214.478 102.153 212.097 101.983V100.215C213.245 100.317 213.783 99.8916 213.783 98.7013V89.8562Z" fill="#F59D0D"/>
<path d="M224.031 93.1494C223.791 91.6929 222.746 91.0588 221.649 91.0588C220.261 91.0588 219.319 91.8814 219.062 93.1494H224.031ZM221.718 96.801C222.66 96.801 223.432 96.3555 223.74 95.7541L225.625 95.7386C225.094 97.3836 223.603 98.3947 221.684 98.3947C218.957 98.3947 217.158 96.4583 217.158 93.8863C217.158 91.3502 218.975 89.3795 221.649 89.3795C224.22 89.3795 225.899 91.4358 225.899 93.9034C225.899 94.1605 225.865 94.4347 225.831 94.6746H219.077C219.353 96.0797 220.397 96.801 221.718 96.801Z" fill="#F59D0D"/>
<path d="M233.814 95.7528C233.814 97.4492 232.34 98.3917 230.455 98.3917C228.553 98.3917 227.078 97.3978 227.078 95.5129H228.896C228.896 96.3697 229.547 96.7295 230.455 96.7295C231.347 96.7295 231.963 96.4039 231.963 95.7528C231.963 94.0563 227.217 95.273 227.217 92C227.217 90.3362 228.689 89.3766 230.455 89.3766C232.169 89.3766 233.643 90.3549 233.643 92.2399H231.826C231.826 91.4002 231.175 91.0403 230.455 91.0403C229.684 91.0403 229.067 91.3488 229.067 92C229.067 93.7307 233.814 92.4798 233.814 95.7528Z" fill="#F59D0D"/>
<path d="M246.324 90.0287C246.324 88.8977 245.485 88.0238 244.405 88.0238H241.953V92.0336H244.405C245.485 92.0336 246.324 91.1426 246.324 90.0287ZM248.295 90.0287C248.295 92.1536 246.581 93.8843 244.405 93.8843H241.953V98.1699H239.982V86.1715H241.953H244.405C246.581 86.1715 248.295 87.8867 248.295 90.0287Z" fill="#F59D0D"/>
<path d="M254.034 89.4461V91.451C252.817 91.3653 251.567 91.9308 251.567 93.7644V98.1699H249.716V89.6003H251.567V90.8855C252.081 89.8402 252.989 89.4461 254.034 89.4461Z" fill="#F59D0D"/>
<path d="M261.422 93.1493C261.182 91.6928 260.137 91.0587 259.04 91.0587C257.65 91.0587 256.71 91.8812 256.452 93.1493H261.422ZM259.109 96.8009C260.051 96.8009 260.821 96.3553 261.131 95.754L263.014 95.7384C262.486 97.3835 260.994 98.3945 259.074 98.3945C256.348 98.3945 254.549 96.4582 254.549 93.8862C254.549 91.35 256.365 89.3794 259.04 89.3794C261.609 89.3794 263.29 91.4357 263.29 93.9033C263.29 94.1604 263.256 94.4345 263.221 94.6744H256.468C256.744 96.0796 257.788 96.8009 259.109 96.8009Z" fill="#F59D0D"/>
<path d="M280.751 98.1698H278.781V89.4288L275.782 96.1991H274.238L271.239 89.4288V98.1698H269.269V86.173H271.239H271.565L275.009 93.9185L278.455 86.173H280.751V98.1698Z" fill="#F59D0D"/>
<path d="M289.747 93.8863C289.747 92.3269 288.582 91.1788 287.074 91.1788C285.566 91.1788 284.401 92.3269 284.401 93.8863C284.401 95.4457 285.566 96.5938 287.074 96.5938C288.582 96.5938 289.747 95.4457 289.747 93.8863ZM282.55 93.8863C282.55 91.333 284.572 89.3779 287.074 89.3779C289.593 89.3779 291.598 91.333 291.598 93.8863C291.598 96.4224 289.593 98.3947 287.074 98.3947C284.572 98.3947 282.55 96.4224 282.55 93.8863Z" fill="#F59D0D"/>
<path d="M293.373 85.81H294.992V98.1149H293.373V85.81Z" fill="#F59D0D"/>
<path d="M304.073 93.8862C304.073 92.2925 302.908 91.1444 301.365 91.1444C299.823 91.1444 298.656 92.2925 298.656 93.8862C298.656 95.4798 299.823 96.628 301.365 96.628C302.908 96.628 304.073 95.4798 304.073 93.8862ZM305.924 86.1734V98.1702H304.073V96.9364C303.422 97.8275 302.411 98.3945 301.055 98.3945C298.725 98.3945 296.806 96.4223 296.806 93.8862C296.806 91.3329 298.725 89.3778 301.055 89.3778C302.411 89.3778 303.422 89.9262 304.073 90.8359V86.1734H305.924Z" fill="#F59D0D"/>
<path d="M312.964 95.6683C312.964 94.8801 312.227 94.4003 311.132 94.4003C309.965 94.4003 309.434 94.9315 309.434 95.6683C309.434 96.4052 309.965 96.9535 311.132 96.9535C312.227 96.9535 312.964 96.4052 312.964 95.6683ZM314.782 92.6866V98.1702H312.964V97.3648C312.434 98.0347 311.629 98.3945 310.531 98.3945C308.989 98.3945 307.585 97.4863 307.585 95.6683C307.585 93.8519 308.989 92.9608 310.531 92.9608C311.629 92.9608 312.434 93.3035 312.964 93.8348V92.7723C312.964 91.5728 312.28 91.1101 311.372 91.1101C310.464 91.1101 309.778 91.5728 309.778 92.4296H307.96C307.96 90.5275 309.468 89.3778 311.372 89.3778C313.274 89.3778 314.782 90.5275 314.782 92.6866Z" fill="#F59D0D"/>
<path d="M323.521 93.8862C323.521 92.2925 322.356 91.1444 320.814 91.1444C319.271 91.1444 318.105 92.2925 318.105 93.8862C318.105 95.4798 319.271 96.628 320.814 96.628C322.356 96.628 323.521 95.4798 323.521 93.8862ZM325.372 86.1734V98.1702H323.521V96.9364C322.87 97.8275 321.859 98.3945 320.504 98.3945C318.173 98.3945 316.254 96.4223 316.254 93.8862C316.254 91.3329 318.173 89.3778 320.504 89.3778C321.859 89.3778 322.87 89.9262 323.521 90.8359V86.1734H325.372Z" fill="#F59D0D"/>
<path d="M332.413 95.6683C332.413 94.8801 331.677 94.4003 330.581 94.4003C329.415 94.4003 328.883 94.9315 328.883 95.6683C328.883 96.4052 329.415 96.9535 330.581 96.9535C331.677 96.9535 332.413 96.4052 332.413 95.6683ZM334.231 92.6866V98.1702H332.413V97.3648C331.884 98.0347 331.078 98.3945 329.98 98.3945C328.438 98.3945 327.034 97.4863 327.034 95.6683C327.034 93.8519 328.438 92.9608 329.98 92.9608C331.078 92.9608 331.884 93.3035 332.413 93.8348V92.7723C332.413 91.5728 331.729 91.1101 330.821 91.1101C329.913 91.1101 329.228 91.5728 329.228 92.4296H327.41C327.41 90.5275 328.918 89.3778 330.821 89.3778C332.723 89.3778 334.231 90.5275 334.231 92.6866Z" fill="#F59D0D"/>
<path d="M342.508 95.7531C342.508 97.4496 341.034 98.3921 339.149 98.3921C337.246 98.3921 335.773 97.3982 335.773 95.5132H337.59C337.59 96.37 338.241 96.7299 339.149 96.7299C340.04 96.7299 340.657 96.4043 340.657 95.7531C340.657 94.0567 335.911 95.2733 335.911 92.0003C335.911 90.3366 337.383 89.3769 339.149 89.3769C340.863 89.3769 342.337 90.3553 342.337 92.2402H340.52C340.52 91.4006 339.869 91.0407 339.149 91.0407C338.378 91.0407 337.76 91.3491 337.76 92.0003C337.76 93.7311 342.508 92.4801 342.508 95.7531Z" fill="#F59D0D"/>
</svg>
