<svg width="167" height="129" viewBox="0 0 167 129" fill="none" xmlns="http://www.w3.org/2000/svg">
<line x1="28.2349" y1="20.3242" x2="28.2349" y2="114.071" stroke="#F59D0D" stroke-width="5"/>
<path d="M37.002 111.141C37.5542 111.141 38.002 111.588 38.002 112.141L38.002 114.535C38.002 115.087 37.5542 115.535 37.002 115.535L20.599 115.535C20.0467 115.535 19.599 115.087 19.599 114.535L19.599 112.141C19.599 111.588 20.0467 111.141 20.599 111.141L37.002 111.141Z" fill="#F59D0D"/>
<path d="M37.002 111.141C37.5542 111.141 38.002 111.588 38.002 112.141L38.002 114.535C38.002 115.087 37.5542 115.535 37.002 115.535L20.599 115.535C20.0467 115.535 19.599 115.087 19.599 114.535L19.599 112.141C19.599 111.588 20.0467 111.141 20.599 111.141L37.002 111.141Z" stroke="white"/>
<path d="M37.002 114.07C37.5542 114.07 38.002 114.518 38.002 115.07L38.002 116C38.002 116.552 37.5542 117 37.002 117L20.599 117C20.0467 117 19.599 116.552 19.599 116L19.599 115.07C19.599 114.518 20.0467 114.07 20.599 114.07L37.002 114.07Z" fill="#F59D0D"/>
<path d="M37.002 114.07C37.5542 114.07 38.002 114.518 38.002 115.07L38.002 116C38.002 116.552 37.5542 117 37.002 117L20.599 117C20.0467 117 19.599 116.552 19.599 116L19.599 115.07C19.599 114.518 20.0467 114.07 20.599 114.07L37.002 114.07Z" stroke="white"/>
<path d="M40.0708 13C40.6231 13 41.0708 13.4477 41.0708 14L41.0708 19.3239C41.0708 19.8762 40.6231 20.3239 40.0708 20.3239L15.9999 20.3239C15.4476 20.3239 14.9999 19.8762 14.9999 19.3239L14.9999 14C14.9999 13.4477 15.4476 13 15.9999 13L40.0708 13Z" fill="#F59D0D"/>
<path d="M40.0708 13C40.6231 13 41.0708 13.4477 41.0708 14L41.0708 19.3239C41.0708 19.8762 40.6231 20.3239 40.0708 20.3239L15.9999 20.3239C15.4476 20.3239 14.9999 19.8762 14.9999 19.3239L14.9999 14C14.9999 13.4477 15.4476 13 15.9999 13L40.0708 13Z" stroke="white"/>
<path d="M38.5371 17.3945C39.0894 17.3945 39.5371 17.8422 39.5371 18.3945L39.5371 19.3241C39.5371 19.8764 39.0894 20.3241 38.5371 20.3241L17.5334 20.3241C16.9811 20.3241 16.5334 19.8764 16.5334 19.3241L16.5334 18.3945C16.5334 17.8422 16.9811 17.3945 17.5334 17.3945L38.5371 17.3945Z" fill="#F59D0D"/>
<path d="M38.5371 17.3945C39.0894 17.3945 39.5371 17.8422 39.5371 18.3945L39.5371 19.3241C39.5371 19.8764 39.0894 20.3241 38.5371 20.3241L17.5334 20.3241C16.9811 20.3241 16.5334 19.8764 16.5334 19.3241L16.5334 18.3945C16.5334 17.8422 16.9811 17.3945 17.5334 17.3945L38.5371 17.3945Z" stroke="white"/>
<path d="M25.2574 51.0839H41.5553C42.9533 51.0839 42.9569 49.6191 41.5553 49.6191H25.2574C23.8595 49.6191 23.8413 51.0839 25.2574 51.0839Z" fill="#F59D0D" stroke="#F59D0D" stroke-width="2" stroke-miterlimit="10"/>
<rect x="19.0679" y="50.6191" width="17.9366" height="19.9718" rx="4" fill="#E0EAFE" stroke="#F59D0D" stroke-width="2"/>
<line x1="27.2358" y1="49.6191" x2="27.2358" y2="71.591" stroke="#F59D0D" stroke-width="3"/>
<line x1="28.2349" y1="20.3242" x2="28.2349" y2="114.071" stroke="#F59D0D" stroke-width="5"/>
<path d="M37.002 111.141C37.5542 111.141 38.002 111.588 38.002 112.141L38.002 114.535C38.002 115.087 37.5542 115.535 37.002 115.535L20.599 115.535C20.0467 115.535 19.599 115.087 19.599 114.535L19.599 112.141C19.599 111.588 20.0467 111.141 20.599 111.141L37.002 111.141Z" fill="#F59D0D"/>
<path d="M37.002 111.141C37.5542 111.141 38.002 111.588 38.002 112.141L38.002 114.535C38.002 115.087 37.5542 115.535 37.002 115.535L20.599 115.535C20.0467 115.535 19.599 115.087 19.599 114.535L19.599 112.141C19.599 111.588 20.0467 111.141 20.599 111.141L37.002 111.141Z" stroke="white"/>
<path d="M37.002 114.07C37.5542 114.07 38.002 114.518 38.002 115.07L38.002 116C38.002 116.552 37.5542 117 37.002 117L20.599 117C20.0467 117 19.599 116.552 19.599 116L19.599 115.07C19.599 114.518 20.0467 114.07 20.599 114.07L37.002 114.07Z" fill="#F59D0D"/>
<path d="M37.002 114.07C37.5542 114.07 38.002 114.518 38.002 115.07L38.002 116C38.002 116.552 37.5542 117 37.002 117L20.599 117C20.0467 117 19.599 116.552 19.599 116L19.599 115.07C19.599 114.518 20.0467 114.07 20.599 114.07L37.002 114.07Z" stroke="white"/>
<path d="M40.0708 13C40.6231 13 41.0708 13.4477 41.0708 14L41.0708 19.3239C41.0708 19.8762 40.6231 20.3239 40.0708 20.3239L15.9999 20.3239C15.4476 20.3239 14.9999 19.8762 14.9999 19.3239L14.9999 14C14.9999 13.4477 15.4476 13 15.9999 13L40.0708 13Z" fill="#979797"/>
<path d="M40.0708 13C40.6231 13 41.0708 13.4477 41.0708 14L41.0708 19.3239C41.0708 19.8762 40.6231 20.3239 40.0708 20.3239L15.9999 20.3239C15.4476 20.3239 14.9999 19.8762 14.9999 19.3239L14.9999 14C14.9999 13.4477 15.4476 13 15.9999 13L40.0708 13Z" stroke="white"/>
<path d="M38.5371 17.3945C39.0894 17.3945 39.5371 17.8422 39.5371 18.3945L39.5371 19.3241C39.5371 19.8764 39.0894 20.3241 38.5371 20.3241L17.5334 20.3241C16.9811 20.3241 16.5334 19.8764 16.5334 19.3241L16.5334 18.3945C16.5334 17.8422 16.9811 17.3945 17.5334 17.3945L38.5371 17.3945Z" fill="#F59D0D"/>
<path d="M38.5371 17.3945C39.0894 17.3945 39.5371 17.8422 39.5371 18.3945L39.5371 19.3241C39.5371 19.8764 39.0894 20.3241 38.5371 20.3241L17.5334 20.3241C16.9811 20.3241 16.5334 19.8764 16.5334 19.3241L16.5334 18.3945C16.5334 17.8422 16.9811 17.3945 17.5334 17.3945L38.5371 17.3945Z" stroke="white"/>
<path d="M25.2574 51.0839H41.5553C42.9533 51.0839 42.9569 49.6191 41.5553 49.6191H25.2574C23.8595 49.6191 23.8413 51.0839 25.2574 51.0839Z" fill="#F59D0D" stroke="#F59D0D" stroke-width="2" stroke-miterlimit="10"/>
<rect x="19.0679" y="50.6191" width="17.9366" height="19.9718" rx="4" fill="#E0EAFE" stroke="#F59D0D" stroke-width="2"/>
<line x1="27.2358" y1="49.6191" x2="27.2358" y2="71.591" stroke="#F59D0D" stroke-width="3"/>
<line x1="83.2349" y1="19.3242" x2="83.2349" y2="113.071" stroke="#F59D0D" stroke-width="5"/>
<path d="M92.002 110.141C92.5542 110.141 93.002 110.588 93.002 111.141L93.002 113.535C93.002 114.087 92.5542 114.535 92.002 114.535L75.599 114.535C75.0467 114.535 74.599 114.087 74.599 113.535L74.599 111.141C74.599 110.588 75.0467 110.141 75.599 110.141L92.002 110.141Z" fill="#F59D0D"/>
<path d="M92.002 110.141C92.5542 110.141 93.002 110.588 93.002 111.141L93.002 113.535C93.002 114.087 92.5542 114.535 92.002 114.535L75.599 114.535C75.0467 114.535 74.599 114.087 74.599 113.535L74.599 111.141C74.599 110.588 75.0467 110.141 75.599 110.141L92.002 110.141Z" stroke="white"/>
<path d="M92.002 113.07C92.5542 113.07 93.002 113.518 93.002 114.07L93.002 115C93.002 115.552 92.5542 116 92.002 116L75.599 116C75.0467 116 74.599 115.552 74.599 115L74.599 114.07C74.599 113.518 75.0467 113.07 75.599 113.07L92.002 113.07Z" fill="#F59D0D"/>
<path d="M92.002 113.07C92.5542 113.07 93.002 113.518 93.002 114.07L93.002 115C93.002 115.552 92.5542 116 92.002 116L75.599 116C75.0467 116 74.599 115.552 74.599 115L74.599 114.07C74.599 113.518 75.0467 113.07 75.599 113.07L92.002 113.07Z" stroke="white"/>
<path d="M95.0708 12C95.6231 12 96.0708 12.4477 96.0708 13L96.0708 18.3239C96.0708 18.8762 95.6231 19.3239 95.0708 19.3239L70.9999 19.3239C70.4476 19.3239 69.9999 18.8762 69.9999 18.3239L69.9999 13C69.9999 12.4477 70.4476 12 70.9999 12L95.0708 12Z" fill="#F59D0D"/>
<path d="M95.0708 12C95.6231 12 96.0708 12.4477 96.0708 13L96.0708 18.3239C96.0708 18.8762 95.6231 19.3239 95.0708 19.3239L70.9999 19.3239C70.4476 19.3239 69.9999 18.8762 69.9999 18.3239L69.9999 13C69.9999 12.4477 70.4476 12 70.9999 12L95.0708 12Z" stroke="white"/>
<path d="M93.5371 16.3945C94.0894 16.3945 94.5371 16.8422 94.5371 17.3945L94.5371 18.3241C94.5371 18.8764 94.0894 19.3241 93.5371 19.3241L72.5334 19.3241C71.9811 19.3241 71.5334 18.8764 71.5334 18.3241L71.5334 17.3945C71.5334 16.8422 71.9811 16.3945 72.5334 16.3945L93.5371 16.3945Z" fill="#F59D0D"/>
<path d="M93.5371 16.3945C94.0894 16.3945 94.5371 16.8422 94.5371 17.3945L94.5371 18.3241C94.5371 18.8764 94.0894 19.3241 93.5371 19.3241L72.5334 19.3241C71.9811 19.3241 71.5334 18.8764 71.5334 18.3241L71.5334 17.3945C71.5334 16.8422 71.9811 16.3945 72.5334 16.3945L93.5371 16.3945Z" stroke="white"/>
<path d="M80.2574 50.0839H96.5553C97.9533 50.0839 97.9569 48.6191 96.5553 48.6191H80.2574C78.8595 48.6191 78.8413 50.0839 80.2574 50.0839Z" fill="#F59D0D" stroke="#F59D0D" stroke-width="2" stroke-miterlimit="10"/>
<rect x="74.0679" y="49.6191" width="17.9366" height="19.9718" rx="4" fill="#E0EAFE" stroke="#F59D0D" stroke-width="2"/>
<line x1="82.2358" y1="48.6191" x2="82.2358" y2="70.591" stroke="#F59D0D" stroke-width="3"/>
<line x1="83.2349" y1="19.3242" x2="83.2349" y2="113.071" stroke="#F59D0D" stroke-width="5"/>
<path d="M92.002 110.141C92.5542 110.141 93.002 110.588 93.002 111.141L93.002 113.535C93.002 114.087 92.5542 114.535 92.002 114.535L75.599 114.535C75.0467 114.535 74.599 114.087 74.599 113.535L74.599 111.141C74.599 110.588 75.0467 110.141 75.599 110.141L92.002 110.141Z" fill="#F59D0D"/>
<path d="M92.002 110.141C92.5542 110.141 93.002 110.588 93.002 111.141L93.002 113.535C93.002 114.087 92.5542 114.535 92.002 114.535L75.599 114.535C75.0467 114.535 74.599 114.087 74.599 113.535L74.599 111.141C74.599 110.588 75.0467 110.141 75.599 110.141L92.002 110.141Z" stroke="white"/>
<path d="M92.002 113.07C92.5542 113.07 93.002 113.518 93.002 114.07L93.002 115C93.002 115.552 92.5542 116 92.002 116L75.599 116C75.0467 116 74.599 115.552 74.599 115L74.599 114.07C74.599 113.518 75.0467 113.07 75.599 113.07L92.002 113.07Z" fill="#F59D0D"/>
<path d="M92.002 113.07C92.5542 113.07 93.002 113.518 93.002 114.07L93.002 115C93.002 115.552 92.5542 116 92.002 116L75.599 116C75.0467 116 74.599 115.552 74.599 115L74.599 114.07C74.599 113.518 75.0467 113.07 75.599 113.07L92.002 113.07Z" stroke="white"/>
<path d="M95.0708 12C95.6231 12 96.0708 12.4477 96.0708 13L96.0708 18.3239C96.0708 18.8762 95.6231 19.3239 95.0708 19.3239L70.9999 19.3239C70.4476 19.3239 69.9999 18.8762 69.9999 18.3239L69.9999 13C69.9999 12.4477 70.4476 12 70.9999 12L95.0708 12Z" fill="#979797"/>
<path d="M95.0708 12C95.6231 12 96.0708 12.4477 96.0708 13L96.0708 18.3239C96.0708 18.8762 95.6231 19.3239 95.0708 19.3239L70.9999 19.3239C70.4476 19.3239 69.9999 18.8762 69.9999 18.3239L69.9999 13C69.9999 12.4477 70.4476 12 70.9999 12L95.0708 12Z" stroke="white"/>
<path d="M93.5371 16.3945C94.0894 16.3945 94.5371 16.8422 94.5371 17.3945L94.5371 18.3241C94.5371 18.8764 94.0894 19.3241 93.5371 19.3241L72.5334 19.3241C71.9811 19.3241 71.5334 18.8764 71.5334 18.3241L71.5334 17.3945C71.5334 16.8422 71.9811 16.3945 72.5334 16.3945L93.5371 16.3945Z" fill="#F59D0D"/>
<path d="M93.5371 16.3945C94.0894 16.3945 94.5371 16.8422 94.5371 17.3945L94.5371 18.3241C94.5371 18.8764 94.0894 19.3241 93.5371 19.3241L72.5334 19.3241C71.9811 19.3241 71.5334 18.8764 71.5334 18.3241L71.5334 17.3945C71.5334 16.8422 71.9811 16.3945 72.5334 16.3945L93.5371 16.3945Z" stroke="white"/>
<path d="M80.2574 50.0839H96.5553C97.9533 50.0839 97.9569 48.6191 96.5553 48.6191H80.2574C78.8595 48.6191 78.8413 50.0839 80.2574 50.0839Z" fill="#F59D0D" stroke="#F59D0D" stroke-width="2" stroke-miterlimit="10"/>
<rect x="74.0679" y="49.6191" width="17.9366" height="19.9718" rx="4" fill="#E0EAFE" stroke="#F59D0D" stroke-width="2"/>
<line x1="82.2358" y1="48.6191" x2="82.2358" y2="70.591" stroke="#F59D0D" stroke-width="3"/>
<line x1="137.235" y1="19.3242" x2="137.235" y2="113.071" stroke="#F59D0D" stroke-width="5"/>
<path d="M146.002 110.141C146.554 110.141 147.002 110.588 147.002 111.141L147.002 113.535C147.002 114.087 146.554 114.535 146.002 114.535L129.599 114.535C129.047 114.535 128.599 114.087 128.599 113.535L128.599 111.141C128.599 110.588 129.047 110.141 129.599 110.141L146.002 110.141Z" fill="#F59D0D"/>
<path d="M146.002 110.141C146.554 110.141 147.002 110.588 147.002 111.141L147.002 113.535C147.002 114.087 146.554 114.535 146.002 114.535L129.599 114.535C129.047 114.535 128.599 114.087 128.599 113.535L128.599 111.141C128.599 110.588 129.047 110.141 129.599 110.141L146.002 110.141Z" stroke="white"/>
<path d="M146.002 113.07C146.554 113.07 147.002 113.518 147.002 114.07L147.002 115C147.002 115.552 146.554 116 146.002 116L129.599 116C129.047 116 128.599 115.552 128.599 115L128.599 114.07C128.599 113.518 129.047 113.07 129.599 113.07L146.002 113.07Z" fill="#F59D0D"/>
<path d="M146.002 113.07C146.554 113.07 147.002 113.518 147.002 114.07L147.002 115C147.002 115.552 146.554 116 146.002 116L129.599 116C129.047 116 128.599 115.552 128.599 115L128.599 114.07C128.599 113.518 129.047 113.07 129.599 113.07L146.002 113.07Z" stroke="white"/>
<path d="M149.071 12C149.623 12 150.071 12.4477 150.071 13L150.071 18.3239C150.071 18.8762 149.623 19.3239 149.071 19.3239L125 19.3239C124.448 19.3239 124 18.8762 124 18.3239L124 13C124 12.4477 124.448 12 125 12L149.071 12Z" fill="#F59D0D"/>
<path d="M149.071 12C149.623 12 150.071 12.4477 150.071 13L150.071 18.3239C150.071 18.8762 149.623 19.3239 149.071 19.3239L125 19.3239C124.448 19.3239 124 18.8762 124 18.3239L124 13C124 12.4477 124.448 12 125 12L149.071 12Z" stroke="white"/>
<path d="M147.537 16.3945C148.089 16.3945 148.537 16.8422 148.537 17.3945L148.537 18.3241C148.537 18.8764 148.089 19.3241 147.537 19.3241L126.533 19.3241C125.981 19.3241 125.533 18.8764 125.533 18.3241L125.533 17.3945C125.533 16.8422 125.981 16.3945 126.533 16.3945L147.537 16.3945Z" fill="#F59D0D"/>
<path d="M147.537 16.3945C148.089 16.3945 148.537 16.8422 148.537 17.3945L148.537 18.3241C148.537 18.8764 148.089 19.3241 147.537 19.3241L126.533 19.3241C125.981 19.3241 125.533 18.8764 125.533 18.3241L125.533 17.3945C125.533 16.8422 125.981 16.3945 126.533 16.3945L147.537 16.3945Z" stroke="white"/>
<path d="M134.257 50.0839H150.555C151.953 50.0839 151.957 48.6191 150.555 48.6191H134.257C132.859 48.6191 132.841 50.0839 134.257 50.0839Z" fill="#F59D0D" stroke="#F59D0D" stroke-width="2" stroke-miterlimit="10"/>
<rect x="128.068" y="49.6191" width="17.9366" height="19.9718" rx="4" fill="#E0EAFE" stroke="#F59D0D" stroke-width="2"/>
<line x1="136.236" y1="48.6191" x2="136.236" y2="70.591" stroke="#F59D0D" stroke-width="3"/>
<line x1="137.235" y1="19.3242" x2="137.235" y2="113.071" stroke="#F59D0D" stroke-width="5"/>
<path d="M146.002 110.141C146.554 110.141 147.002 110.588 147.002 111.141L147.002 113.535C147.002 114.087 146.554 114.535 146.002 114.535L129.599 114.535C129.047 114.535 128.599 114.087 128.599 113.535L128.599 111.141C128.599 110.588 129.047 110.141 129.599 110.141L146.002 110.141Z" fill="#F59D0D"/>
<path d="M146.002 110.141C146.554 110.141 147.002 110.588 147.002 111.141L147.002 113.535C147.002 114.087 146.554 114.535 146.002 114.535L129.599 114.535C129.047 114.535 128.599 114.087 128.599 113.535L128.599 111.141C128.599 110.588 129.047 110.141 129.599 110.141L146.002 110.141Z" stroke="white"/>
<path d="M146.002 113.07C146.554 113.07 147.002 113.518 147.002 114.07L147.002 115C147.002 115.552 146.554 116 146.002 116L129.599 116C129.047 116 128.599 115.552 128.599 115L128.599 114.07C128.599 113.518 129.047 113.07 129.599 113.07L146.002 113.07Z" fill="#F59D0D"/>
<path d="M146.002 113.07C146.554 113.07 147.002 113.518 147.002 114.07L147.002 115C147.002 115.552 146.554 116 146.002 116L129.599 116C129.047 116 128.599 115.552 128.599 115L128.599 114.07C128.599 113.518 129.047 113.07 129.599 113.07L146.002 113.07Z" stroke="white"/>
<path d="M149.071 12C149.623 12 150.071 12.4477 150.071 13L150.071 18.3239C150.071 18.8762 149.623 19.3239 149.071 19.3239L125 19.3239C124.448 19.3239 124 18.8762 124 18.3239L124 13C124 12.4477 124.448 12 125 12L149.071 12Z" fill="#979797"/>
<path d="M149.071 12C149.623 12 150.071 12.4477 150.071 13L150.071 18.3239C150.071 18.8762 149.623 19.3239 149.071 19.3239L125 19.3239C124.448 19.3239 124 18.8762 124 18.3239L124 13C124 12.4477 124.448 12 125 12L149.071 12Z" stroke="white"/>
<path d="M147.537 16.3945C148.089 16.3945 148.537 16.8422 148.537 17.3945L148.537 18.3241C148.537 18.8764 148.089 19.3241 147.537 19.3241L126.533 19.3241C125.981 19.3241 125.533 18.8764 125.533 18.3241L125.533 17.3945C125.533 16.8422 125.981 16.3945 126.533 16.3945L147.537 16.3945Z" fill="#F59D0D"/>
<path d="M147.537 16.3945C148.089 16.3945 148.537 16.8422 148.537 17.3945L148.537 18.3241C148.537 18.8764 148.089 19.3241 147.537 19.3241L126.533 19.3241C125.981 19.3241 125.533 18.8764 125.533 18.3241L125.533 17.3945C125.533 16.8422 125.981 16.3945 126.533 16.3945L147.537 16.3945Z" stroke="white"/>
<path d="M134.257 50.0839H150.555C151.953 50.0839 151.957 48.6191 150.555 48.6191H134.257C132.859 48.6191 132.841 50.0839 134.257 50.0839Z" fill="#F59D0D" stroke="#F59D0D" stroke-width="2" stroke-miterlimit="10"/>
<rect x="128.068" y="49.6191" width="17.9366" height="19.9718" rx="4" fill="#E0EAFE" stroke="#F59D0D" stroke-width="2"/>
<line x1="136.236" y1="48.6191" x2="136.236" y2="70.591" stroke="#F59D0D" stroke-width="3"/>
</svg>
