<svg width="82" height="64" viewBox="0 0 82 64" fill="none" xmlns="http://www.w3.org/2000/svg">
    <rect x="8.25" y="53.3774" width="3.5" height="9.5" fill="#979797" stroke="black"
        stroke-width="0.5" />
    <rect x="8.25" y="44.3774" width="3.5" height="9.5" fill="#979797" stroke="black"
        stroke-width="0.5" />
    <rect x="8.25" y="41.3774" width="3.5" height="3.5" fill="#979797" stroke="black"
        stroke-width="0.5" />
    <rect x="81.75" y="37.3774" width="3.5" height="81.5" transform="rotate(90 81.75 37.3774)"
        fill="#979797" stroke="black" stroke-width="0.5" />
    <rect x="70.25" y="53.3774" width="3.5" height="9.5" fill="#979797" stroke="black"
        stroke-width="0.5" />
    <rect x="70.25" y="44.3774" width="3.5" height="9.5" fill="#979797" stroke="black"
        stroke-width="0.5" />
    <rect x="70.25" y="41.3774" width="3.5" height="3.5" fill="#979797" stroke="black"
        stroke-width="0.5" />
    <mask id="path-8-outside-1_0_1" maskUnits="userSpaceOnUse" x="29" y="-1" width="24" height="36"
        fill="black">
        <rect fill="white" x="29" y="-1" width="24" height="36" />
        <path
            d="M43.5435 23.2222H37.9404C37.9551 21.9038 38.0576 20.7686 38.248 19.8164C38.4531 18.8496 38.7974 17.978 39.2808 17.2017C39.7788 16.4253 40.438 15.6562 41.2583 14.8945C41.9468 14.2793 42.5474 13.6934 43.0601 13.1367C43.5728 12.5801 43.9756 12.0088 44.2686 11.4229C44.5615 10.8223 44.708 10.1558 44.708 9.42334C44.708 8.57373 44.5762 7.87061 44.3125 7.31396C44.0635 6.74268 43.6826 6.31055 43.1699 6.01758C42.6719 5.72461 42.042 5.57812 41.2803 5.57812C40.6504 5.57812 40.0645 5.71729 39.5225 5.99561C38.9805 6.25928 38.5337 6.66943 38.1821 7.22607C37.8452 7.78271 37.6694 8.51514 37.6548 9.42334H31.2827C31.3267 7.4165 31.7881 5.76123 32.667 4.45752C33.5605 3.13916 34.7544 2.16504 36.2485 1.53516C37.7427 0.890625 39.4199 0.568359 41.2803 0.568359C43.3311 0.568359 45.0889 0.905273 46.5537 1.5791C48.0186 2.23828 49.1392 3.2124 49.9155 4.50146C50.6919 5.77588 51.0801 7.32861 51.0801 9.15967C51.0801 10.4341 50.8311 11.5693 50.333 12.5654C49.835 13.5469 49.1831 14.4624 48.3774 15.312C47.5718 16.1616 46.6855 17.0405 45.7188 17.9487C44.8838 18.6958 44.3125 19.4795 44.0049 20.2998C43.7119 21.1201 43.5581 22.0942 43.5435 23.2222ZM37.2812 30.0117C37.2812 29.0742 37.6035 28.2979 38.248 27.6826C38.8926 27.0527 39.7568 26.7378 40.8408 26.7378C41.9102 26.7378 42.7671 27.0527 43.4116 27.6826C44.0708 28.2979 44.4004 29.0742 44.4004 30.0117C44.4004 30.9199 44.0708 31.689 43.4116 32.3188C42.7671 32.9487 41.9102 33.2637 40.8408 33.2637C39.7568 33.2637 38.8926 32.9487 38.248 32.3188C37.6035 31.689 37.2812 30.9199 37.2812 30.0117Z" />
    </mask>
    <path
        d="M43.5435 23.2222H37.9404C37.9551 21.9038 38.0576 20.7686 38.248 19.8164C38.4531 18.8496 38.7974 17.978 39.2808 17.2017C39.7788 16.4253 40.438 15.6562 41.2583 14.8945C41.9468 14.2793 42.5474 13.6934 43.0601 13.1367C43.5728 12.5801 43.9756 12.0088 44.2686 11.4229C44.5615 10.8223 44.708 10.1558 44.708 9.42334C44.708 8.57373 44.5762 7.87061 44.3125 7.31396C44.0635 6.74268 43.6826 6.31055 43.1699 6.01758C42.6719 5.72461 42.042 5.57812 41.2803 5.57812C40.6504 5.57812 40.0645 5.71729 39.5225 5.99561C38.9805 6.25928 38.5337 6.66943 38.1821 7.22607C37.8452 7.78271 37.6694 8.51514 37.6548 9.42334H31.2827C31.3267 7.4165 31.7881 5.76123 32.667 4.45752C33.5605 3.13916 34.7544 2.16504 36.2485 1.53516C37.7427 0.890625 39.4199 0.568359 41.2803 0.568359C43.3311 0.568359 45.0889 0.905273 46.5537 1.5791C48.0186 2.23828 49.1392 3.2124 49.9155 4.50146C50.6919 5.77588 51.0801 7.32861 51.0801 9.15967C51.0801 10.4341 50.8311 11.5693 50.333 12.5654C49.835 13.5469 49.1831 14.4624 48.3774 15.312C47.5718 16.1616 46.6855 17.0405 45.7188 17.9487C44.8838 18.6958 44.3125 19.4795 44.0049 20.2998C43.7119 21.1201 43.5581 22.0942 43.5435 23.2222ZM37.2812 30.0117C37.2812 29.0742 37.6035 28.2979 38.248 27.6826C38.8926 27.0527 39.7568 26.7378 40.8408 26.7378C41.9102 26.7378 42.7671 27.0527 43.4116 27.6826C44.0708 28.2979 44.4004 29.0742 44.4004 30.0117C44.4004 30.9199 44.0708 31.689 43.4116 32.3188C42.7671 32.9487 41.9102 33.2637 40.8408 33.2637C39.7568 33.2637 38.8926 32.9487 38.248 32.3188C37.6035 31.689 37.2812 30.9199 37.2812 30.0117Z"
        fill="white" />
    <path
        d="M43.5435 23.2222V24.7222H45.0241L45.0433 23.2416L43.5435 23.2222ZM37.9404 23.2222L36.4405 23.2055L36.4237 24.7222H37.9404V23.2222ZM38.248 19.8164L36.7807 19.5051L36.7789 19.5137L36.7772 19.5222L38.248 19.8164ZM39.2808 17.2017L38.0182 16.3917L38.0128 16.4002L38.0074 16.4088L39.2808 17.2017ZM41.2583 14.8945L40.2588 13.776L40.2481 13.7856L40.2376 13.7953L41.2583 14.8945ZM44.2686 11.4229L45.6102 12.0937L45.6135 12.0871L45.6167 12.0805L44.2686 11.4229ZM44.3125 7.31396L42.9375 7.91334L42.9468 7.93487L42.9569 7.95609L44.3125 7.31396ZM43.1699 6.01758L42.4094 7.31048L42.4175 7.31526L42.4257 7.31994L43.1699 6.01758ZM39.5225 5.99561L40.1787 7.34446L40.1932 7.33736L40.2077 7.32996L39.5225 5.99561ZM38.1821 7.22607L36.9139 6.42509L36.9063 6.43716L36.8989 6.44937L38.1821 7.22607ZM37.6548 9.42334V10.9233H39.1308L39.1546 9.44753L37.6548 9.42334ZM31.2827 9.42334L29.7831 9.3905L29.7495 10.9233H31.2827V9.42334ZM32.667 4.45752L31.4253 3.61594L31.4232 3.61903L32.667 4.45752ZM36.2485 1.53516L36.8312 2.9174L36.8427 2.91247L36.2485 1.53516ZM46.5537 1.5791L45.9268 2.94188L45.9382 2.94698L46.5537 1.5791ZM49.9155 4.50146L48.6306 5.27536L48.6345 5.28185L49.9155 4.50146ZM50.333 12.5654L51.6707 13.2442L51.6746 13.2362L50.333 12.5654ZM45.7188 17.9487L46.7189 19.0666L46.7325 19.0545L46.7458 19.042L45.7188 17.9487ZM44.0049 20.2998L42.6004 19.7731L42.5962 19.7842L42.5923 19.7953L44.0049 20.2998ZM38.248 27.6826L39.2838 28.7677L39.2901 28.7616L39.2964 28.7554L38.248 27.6826ZM43.4116 27.6826L42.3632 28.7554L42.3755 28.7674L42.3881 28.7792L43.4116 27.6826ZM43.4116 32.3188L42.3753 31.2344L42.3692 31.2402L42.3632 31.2461L43.4116 32.3188ZM43.5435 21.7222H37.9404V24.7222H43.5435V21.7222ZM39.4403 23.2388C39.4543 21.983 39.5519 20.9455 39.7189 20.1106L36.7772 19.5222C36.5633 20.5916 36.4559 21.8246 36.4405 23.2055L39.4403 23.2388ZM39.7154 20.1277C39.8872 19.3177 40.17 18.6113 40.5541 17.9945L38.0074 16.4088C37.4247 17.3447 37.019 18.3816 36.7807 19.5051L39.7154 20.1277ZM40.5433 18.0116C40.9606 17.3612 41.5322 16.6872 42.279 15.9937L40.2376 13.7953C39.3438 14.6253 38.5971 15.4894 38.0182 16.3917L40.5433 18.0116ZM42.2578 16.013C42.975 15.3721 43.6115 14.7521 44.1634 14.1529L41.9567 12.1205C41.4832 12.6346 40.9186 13.1864 40.2588 13.776L42.2578 16.013ZM44.1634 14.1529C44.7569 13.5086 45.2455 12.8231 45.6102 12.0937L42.9269 10.752C42.7057 11.1945 42.3886 11.6516 41.9567 12.1205L44.1634 14.1529ZM45.6167 12.0805C46.0189 11.256 46.208 10.3614 46.208 9.42334H43.208C43.208 9.95008 43.1041 10.3885 42.9204 10.7652L45.6167 12.0805ZM46.208 9.42334C46.208 8.43094 46.0558 7.49028 45.6681 6.67183L42.9569 7.95609C43.0966 8.25093 43.208 8.71652 43.208 9.42334H46.208ZM45.6875 6.71459C45.3171 5.86465 44.7235 5.17768 43.9141 4.71521L42.4257 7.31994C42.6418 7.44341 42.8099 7.6207 42.9375 7.91334L45.6875 6.71459ZM43.9305 4.72468C43.1397 4.25954 42.2267 4.07812 41.2803 4.07812V7.07812C41.8573 7.07812 42.204 7.18967 42.4094 7.31048L43.9305 4.72468ZM41.2803 4.07812C40.4204 4.07812 39.5985 4.27032 38.8373 4.66125L40.2077 7.32996C40.5304 7.16425 40.8804 7.07812 41.2803 7.07812V4.07812ZM38.8663 4.64675C38.0503 5.04371 37.4003 5.655 36.9139 6.42509L39.4504 8.02706C39.6671 7.68387 39.9106 7.47484 40.1787 7.34446L38.8663 4.64675ZM36.8989 6.44937C36.3805 7.30584 36.1723 8.32548 36.155 9.39915L39.1546 9.44753C39.1666 8.70479 39.3099 8.25959 39.4654 8.00278L36.8989 6.44937ZM37.6548 7.92334H31.2827V10.9233H37.6548V7.92334ZM32.7824 9.45618C32.8217 7.65803 33.2316 6.30335 33.9108 5.29601L31.4232 3.61903C30.3445 5.21911 29.8316 7.17498 29.7831 9.3905L32.7824 9.45618ZM33.9087 5.2991C34.6364 4.22545 35.5993 3.43671 36.8312 2.91735L35.6658 0.152959C33.9095 0.893369 32.4847 2.05287 31.4253 3.61594L33.9087 5.2991ZM36.8427 2.91247C38.1242 2.35967 39.5951 2.06836 41.2803 2.06836V-0.931641C39.2447 -0.931641 37.3612 -0.578418 35.6544 0.15784L36.8427 2.91247ZM41.2803 2.06836C43.1715 2.06836 44.7044 2.37952 45.9269 2.94184L47.1806 0.216366C45.4733 -0.568974 43.4906 -0.931641 41.2803 -0.931641V2.06836ZM45.9382 2.94698C47.1444 3.48981 48.0226 4.2658 48.6306 5.27535L51.2005 3.72758C50.2558 2.15901 48.8927 0.986756 47.1693 0.211219L45.9382 2.94698ZM48.6345 5.28185C49.2383 6.27302 49.5801 7.54148 49.5801 9.15967H52.5801C52.5801 7.11574 52.1455 5.27874 51.1965 3.72108L48.6345 5.28185ZM49.5801 9.15967C49.5801 10.235 49.3712 11.135 48.9914 11.8946L51.6746 13.2362C52.2909 12.0037 52.5801 10.6332 52.5801 9.15967H49.5801ZM48.9954 11.8866C48.567 12.7309 48.0013 13.5287 47.289 14.2799L49.4659 16.3441C50.3649 15.3961 51.103 14.3629 51.6706 13.2442L48.9954 11.8866ZM47.289 14.2799C46.5056 15.106 45.6402 15.9645 44.6917 16.8555L46.7458 19.042C47.7309 18.1166 48.6379 17.2173 49.4659 16.3441L47.289 14.2799ZM44.7186 16.8309C43.752 17.6956 43.0135 18.6716 42.6004 19.7731L45.4094 20.8265C45.6115 20.2874 46.0155 19.696 46.7189 19.0666L44.7186 16.8309ZM42.5923 19.7953C42.23 20.8096 42.0598 21.9556 42.0436 23.2027L45.0433 23.2416C45.0564 22.2329 45.1938 21.4306 45.4175 20.8043L42.5923 19.7953ZM38.7812 30.0117C38.7812 29.4602 38.9526 29.0837 39.2838 28.7677L37.2123 26.5976C36.2544 27.512 35.7812 28.6883 35.7812 30.0117H38.7812ZM39.2964 28.7554C39.6055 28.4534 40.064 28.2378 40.8408 28.2378V25.2378C39.4497 25.2378 38.1797 25.6521 37.1996 26.6098L39.2964 28.7554ZM40.8408 28.2378C41.5965 28.2378 42.0503 28.4496 42.3632 28.7554L44.46 26.6098C43.4839 25.6559 42.2238 25.2378 40.8408 25.2378V28.2378ZM42.3881 28.7792C42.73 29.0983 42.9004 29.4714 42.9004 30.0117H45.9004C45.9004 28.6771 45.4116 27.4974 44.4351 26.586L42.3881 28.7792ZM42.9004 30.0117C42.9004 30.5085 42.7396 30.8862 42.3753 31.2344L44.4479 33.4033C45.402 32.4917 45.9004 31.3314 45.9004 30.0117H42.9004ZM42.3632 31.2461C42.0503 31.5519 41.5965 31.7637 40.8408 31.7637V34.7637C42.2238 34.7637 43.4839 34.3456 44.46 33.3916L42.3632 31.2461ZM40.8408 31.7637C40.064 31.7637 39.6055 31.5481 39.2964 31.2461L37.1996 33.3916C38.1797 34.3494 39.4497 34.7637 40.8408 34.7637V31.7637ZM39.2964 31.2461C38.9432 30.9009 38.7812 30.5197 38.7812 30.0117H35.7812C35.7812 31.3202 36.2638 32.4771 37.1996 33.3916L39.2964 31.2461Z"
        fill="#F59D0D" mask="url(#path-8-outside-1_0_1)" />
</svg>
    