<svg width="91" height="20" viewBox="0 0 91 20" fill="none" xmlns="http://www.w3.org/2000/svg">
<path d="M15.0762 14.622L22.5145 2.34941L29.9529 14.622H15.0762Z" stroke="#1C1C1C"/>
<path d="M44.9297 17.1079C44.9297 17.6602 44.482 18.1079 43.9297 18.1079L1.00038 18.1079C0.448093 18.1079 0.000377615 17.6602 0.000377567 17.1079L0.00037723 13.3007C0.000377182 12.7484 0.448093 12.3007 1.00038 12.3007L43.9297 12.3007C44.482 12.3007 44.9297 12.7484 44.9297 13.3007L44.9297 17.1079Z" fill="#979797"/>
<ellipse cx="29.8684" cy="14.6808" rx="1.38985" ry="1.37563" fill="#1C1C1C"/>
<ellipse cx="29.8684" cy="14.6808" rx="1.38985" ry="1.37563" fill="#1C1C1C"/>
<ellipse cx="29.8684" cy="14.6808" rx="1.38985" ry="1.37563" fill="#1C1C1C"/>
<ellipse cx="29.8684" cy="14.6808" rx="1.38985" ry="1.37563" fill="#1C1C1C"/>
<ellipse cx="22.4642" cy="1.52848" rx="1.54428" ry="1.52848" fill="#1C1C1C"/>
<ellipse cx="22.4642" cy="1.52848" rx="1.54428" ry="1.52848" fill="#1C1C1C"/>
<ellipse cx="22.4642" cy="1.52848" rx="1.54428" ry="1.52848" fill="#1C1C1C"/>
<ellipse cx="22.4642" cy="1.52848" rx="1.54428" ry="1.52848" fill="#1C1C1C"/>
<ellipse cx="15.4348" cy="14.6808" rx="1.38985" ry="1.37563" fill="#1C1C1C"/>
<ellipse cx="15.4348" cy="14.6808" rx="1.38985" ry="1.37563" fill="#1C1C1C"/>
<ellipse cx="15.4348" cy="14.6808" rx="1.38985" ry="1.37563" fill="#1C1C1C"/>
<ellipse cx="15.4348" cy="14.6808" rx="1.38985" ry="1.37563" fill="#1C1C1C"/>
<path d="M60.7148 14.622L68.1532 2.34941L75.5916 14.622H60.7148Z" stroke="#1C1C1C"/>
<ellipse cx="68.1029" cy="1.52799" rx="1.54428" ry="1.52848" fill="#1C1C1C"/>
<ellipse cx="68.1029" cy="1.52799" rx="1.54428" ry="1.52848" fill="#1C1C1C"/>
<ellipse cx="68.1029" cy="1.52799" rx="1.54428" ry="1.52848" fill="#1C1C1C"/>
<ellipse cx="68.1029" cy="1.52799" rx="1.54428" ry="1.52848" fill="#1C1C1C"/>
<path d="M90.6191 17.1084C90.6191 17.6607 90.1714 18.1084 89.6191 18.1084L46.6898 18.1084C46.1375 18.1084 45.6898 17.6607 45.6898 17.1084L45.6898 13.3012C45.6898 12.7489 46.1375 12.3012 46.6898 12.3012L89.6191 12.3012C90.1714 12.3012 90.6191 12.7489 90.6191 13.3012L90.6191 17.1084Z" fill="#979797"/>
<ellipse cx="75.507" cy="15.445" rx="1.38985" ry="1.37563" fill="#1C1C1C"/>
<ellipse cx="75.507" cy="15.445" rx="1.38985" ry="1.37563" fill="#1C1C1C"/>
<ellipse cx="75.507" cy="15.445" rx="1.38985" ry="1.37563" fill="#1C1C1C"/>
<ellipse cx="75.507" cy="15.445" rx="1.38985" ry="1.37563" fill="#1C1C1C"/>
<ellipse cx="61.0734" cy="15.445" rx="1.38985" ry="1.37563" fill="#1C1C1C"/>
<ellipse cx="61.0734" cy="15.445" rx="1.38985" ry="1.37563" fill="#1C1C1C"/>
<ellipse cx="61.0734" cy="15.445" rx="1.38985" ry="1.37563" fill="#1C1C1C"/>
<ellipse cx="61.0734" cy="15.445" rx="1.38985" ry="1.37563" fill="#1C1C1C"/>
</svg>
