<svg width="91" height="22" viewBox="0 0 91 22" fill="none" xmlns="http://www.w3.org/2000/svg">
<path d="M23.609 19.5927V13.1986C23.609 12.6463 23.1612 12.1986 22.609 12.1986H19.5693C19.0171 12.1986 18.5693 11.7509 18.5693 11.1986V2C18.5693 1.44772 19.017 1 19.5693 1H71.8177C72.37 1 72.8177 1.44771 72.8177 2V11.1986C72.8177 11.7509 72.37 12.1986 71.8177 12.1986H67.9138C67.3615 12.1986 66.9138 12.6463 66.9138 13.1986V19.5927C66.9138 20.1449 66.4661 20.5927 65.9138 20.5927H24.609C24.0567 20.5927 23.609 20.1449 23.609 19.5927Z" fill="white" stroke="#ED893E" stroke-width="0.5"/>
<path d="M23.2805 19.0205C23.2805 20.1251 22.3851 21.0205 21.2805 21.0205L2.00006 21.0205C0.895494 21.0205 6.28807e-05 20.1251 6.28044e-05 19.0205L6.25011e-05 14.6283C6.24323e-05 13.6322 0.732988 12.788 1.71916 12.6481L11.6422 11.2404L21.5615 12.648C22.5476 12.788 23.2805 13.6322 23.2805 14.6282L23.2805 19.0205Z" fill="#C4C4C4"/>
<path d="M17.5134 15.0594C17.4739 16.1346 16.5907 16.9858 15.5148 16.9858H8.33286C7.25943 16.9858 6.37742 16.1385 6.33446 15.0659L5.87269 3.53747C5.82722 2.40241 6.73512 1.45742 7.87109 1.45742H15.939C17.0724 1.45742 17.9793 2.39832 17.9376 3.53096L17.5134 15.0594Z" fill="#C4C4C4"/>
<ellipse cx="4.71175" cy="17.0933" rx="1.09847" ry="1.39064" fill="#01233B"/>
<ellipse cx="4.71175" cy="17.0933" rx="1.09847" ry="1.39064" fill="#01233B"/>
<ellipse cx="4.71175" cy="17.0933" rx="1.09847" ry="1.39064" fill="#01233B"/>
<ellipse cx="4.71175" cy="17.0933" rx="1.09847" ry="1.39064" fill="#01233B"/>
<ellipse cx="11.9786" cy="17.0933" rx="1.09847" ry="1.39064" fill="#01233B"/>
<ellipse cx="11.9786" cy="17.0933" rx="1.09847" ry="1.39064" fill="#01233B"/>
<ellipse cx="11.9786" cy="17.0933" rx="1.09847" ry="1.39064" fill="#01233B"/>
<ellipse cx="11.9786" cy="17.0933" rx="1.09847" ry="1.39064" fill="#01233B"/>
<ellipse cx="19.2452" cy="17.0933" rx="1.09847" ry="1.39064" fill="#01233B"/>
<ellipse cx="19.2452" cy="17.0933" rx="1.09847" ry="1.39064" fill="#01233B"/>
<ellipse cx="19.2452" cy="17.0933" rx="1.09847" ry="1.39064" fill="#01233B"/>
<ellipse cx="19.2452" cy="17.0933" rx="1.09847" ry="1.39064" fill="#01233B"/>
<ellipse cx="11.9017" cy="7.83107" rx="1.09847" ry="1.39064" fill="#01233B"/>
<ellipse cx="11.9017" cy="7.83107" rx="1.09847" ry="1.39064" fill="#01233B"/>
<ellipse cx="11.9017" cy="7.83107" rx="1.09847" ry="1.39064" fill="#01233B"/>
<ellipse cx="11.9017" cy="7.83107" rx="1.09847" ry="1.39064" fill="#01233B"/>
<path d="M91 19.021C91 20.1256 90.1046 21.021 89 21.021L69.7195 21.021C68.615 21.021 67.7195 20.1256 67.7195 19.021L67.7195 14.6288C67.7195 13.6327 68.4525 12.7885 69.4386 12.6486L79.3617 11.2409L89.281 12.6485C90.2671 12.7885 91 13.6327 91 14.6287L91 19.021Z" fill="#C4C4C4"/>
<path d="M74.0093 15.0599C74.0489 16.1351 74.932 16.9863 76.0079 16.9863H83.1898C84.2633 16.9863 85.1453 16.1389 85.1882 15.0664L85.65 3.53796C85.6955 2.4029 84.7876 1.45791 83.6516 1.45791H75.5837C74.4503 1.45791 73.5434 2.39881 73.5851 3.53145L74.0093 15.0599Z" fill="#C4C4C4"/>
<ellipse cx="72.431" cy="17.0933" rx="1.09847" ry="1.39064" fill="#01233B"/>
<ellipse cx="72.431" cy="17.0933" rx="1.09847" ry="1.39064" fill="#01233B"/>
<ellipse cx="72.431" cy="17.0933" rx="1.09847" ry="1.39064" fill="#01233B"/>
<ellipse cx="72.431" cy="17.0933" rx="1.09847" ry="1.39064" fill="#01233B"/>
<ellipse cx="79.6978" cy="17.0933" rx="1.09847" ry="1.39064" fill="#01233B"/>
<ellipse cx="79.6978" cy="17.0933" rx="1.09847" ry="1.39064" fill="#01233B"/>
<ellipse cx="79.6978" cy="17.0933" rx="1.09847" ry="1.39064" fill="#01233B"/>
<ellipse cx="79.6978" cy="17.0933" rx="1.09847" ry="1.39064" fill="#01233B"/>
<ellipse cx="86.9647" cy="17.0933" rx="1.09847" ry="1.39064" fill="#01233B"/>
<ellipse cx="86.9647" cy="17.0933" rx="1.09847" ry="1.39064" fill="#01233B"/>
<ellipse cx="86.9647" cy="17.0933" rx="1.09847" ry="1.39064" fill="#01233B"/>
<ellipse cx="86.9647" cy="17.0933" rx="1.09847" ry="1.39064" fill="#01233B"/>
<ellipse cx="79.6212" cy="7.83156" rx="1.09847" ry="1.39064" fill="#01233B"/>
<ellipse cx="79.6212" cy="7.83156" rx="1.09847" ry="1.39064" fill="#01233B"/>
<ellipse cx="79.6212" cy="7.83156" rx="1.09847" ry="1.39064" fill="#01233B"/>
<ellipse cx="79.6212" cy="7.83156" rx="1.09847" ry="1.39064" fill="#01233B"/>
</svg>
