<svg width="82" height="54" viewBox="0 0 82 54" fill="none" xmlns="http://www.w3.org/2000/svg">
<rect x="8.25" y="44.25" width="3.5" height="9.5" fill="#979797" stroke="black" stroke-width="0.5"/>
<rect x="8.25" y="35.25" width="3.5" height="9.5" fill="#979797" stroke="black" stroke-width="0.5"/>
<rect x="8.25" y="32.25" width="3.5" height="3.5" fill="#979797" stroke="black" stroke-width="0.5"/>
<rect x="81.75" y="28.25" width="3.5" height="81.5" transform="rotate(90 81.75 28.25)" fill="#979797" stroke="black" stroke-width="0.5"/>
<rect x="70.25" y="44.25" width="3.5" height="9.5" fill="#979797" stroke="black" stroke-width="0.5"/>
<rect x="70.25" y="35.25" width="3.5" height="9.5" fill="#979797" stroke="black" stroke-width="0.5"/>
<rect x="70.25" y="32.25" width="3.5" height="3.5" fill="#979797" stroke="black" stroke-width="0.5"/>
<path d="M66.9404 22.3032C66.94 22.302 66.9396 22.3012 66.9392 22.3C66.9388 22.2992 66.9384 22.298 66.938 22.2972L58.6019 3.08672C58.2984 2.38746 57.8398 1.7801 57.2753 1.33049C56.1997 0.473075 54.8461 0.000591553 53.4643 0.000591553H48.9106C48.8911 0.000197184 48.8721 0.000197184 48.8527 0.000591553H41.0236C41.016 0.000591553 41.0081 0.000197183 41.0002 0.000197183C40.9922 0.000197183 40.9843 0.000591553 40.9768 0.000591553H33.1485C33.1286 -0.000197184 33.1084 -0.000197184 33.089 0.000591553H29.4557C29.0352 0.000591553 28.694 0.33977 28.694 0.757828C28.694 1.17628 29.0352 1.51506 29.4557 1.51506H32.1765L30.803 7.8439C29.5609 6.85239 28.0021 6.30222 26.3596 6.30222C25.3158 6.30222 24.3026 6.52663 23.383 6.94626L24.7969 3.68738C25.0032 3.21214 25.3103 2.80394 25.6848 2.50618C25.6848 2.50618 26.3354 2.05538 26.6925 1.8992C27.0773 1.7304 27.2519 1.28355 27.0821 0.900598C26.9123 0.518036 26.4624 0.344897 26.0776 0.513303C25.6015 0.721938 25.1532 0.991309 24.7449 1.31432C24.7441 1.31471 24.7346 1.3226 24.7342 1.32299C24.1649 1.77497 23.7027 2.3851 23.398 3.08751L18.0315 15.4545C18.0243 15.4699 18.0176 15.4853 18.0116 15.5011L15.0623 22.2972C15.0619 22.298 15.0615 22.2992 15.0611 22.3C15.0608 22.3012 15.0604 22.302 15.06 22.3032C15.0183 22.4014 14.9989 22.5039 15.0001 22.6053V25.3483C15.0001 25.8287 15.2869 26.2617 15.7304 26.4522C16.1732 26.6419 16.6866 26.5524 17.0373 26.223C18.4032 24.9417 20.1909 24.2361 22.071 24.2361C24.1268 24.2361 26.1018 25.1014 27.4887 26.6096C27.7165 26.8576 28.0418 27 28.381 27C28.7202 27 29.0455 26.8576 29.2732 26.6099C30.6602 25.1014 32.6347 24.2361 34.6902 24.2361C36.746 24.2361 38.721 25.1014 40.1079 26.6096C40.3357 26.8576 40.661 27 41.0002 27C41.3394 27 41.6647 26.8576 41.8924 26.6099C43.2794 25.1014 45.2539 24.2361 47.309 24.2361C49.3652 24.2361 51.3402 25.1014 52.7271 26.6096C52.9549 26.8576 53.2802 27 53.6194 27C53.9586 27 54.2839 26.8576 54.5116 26.6099C55.515 25.5187 56.8055 24.7646 58.2449 24.4286C58.6543 24.3331 58.9082 23.9257 58.8122 23.5183C58.7162 23.1113 58.3064 22.8589 57.8965 22.9543C56.2668 23.3345 54.7949 24.1584 53.6194 25.3447C51.9599 23.6737 49.6791 22.7216 47.309 22.7216C44.9397 22.7216 42.6597 23.6737 41.0002 25.3451C39.3407 23.6737 37.0602 22.7216 34.6902 22.7216C32.3209 22.7216 30.0405 23.6737 28.381 25.3451C26.7218 23.6737 24.441 22.7216 22.071 22.7216C20.0373 22.7216 18.093 23.4055 16.5235 24.6605V22.8715C19.5311 19.4154 24.9366 19.5542 27.7879 23.0722C27.7986 23.0809 27.9533 23.301 28.2695 23.3463C28.5551 23.3862 28.8182 23.271 28.9816 23.0632C30.3825 21.3401 32.4625 20.3521 34.6902 20.3521C36.7984 20.3521 38.7836 21.1535 40.4217 23.09C40.4325 23.1026 40.4416 23.1125 40.4515 23.1223C40.4697 23.1416 40.4943 23.1641 40.513 23.1791C40.6463 23.2895 40.826 23.3597 41.0212 23.3542C41.2057 23.3483 41.3723 23.2801 41.5024 23.1665C41.512 23.1582 41.5231 23.1484 41.5322 23.1393C41.5449 23.1267 41.5536 23.118 41.5651 23.105C41.5754 23.0935 41.5814 23.0868 41.5921 23.0734C41.5925 23.073 41.5929 23.0726 41.5933 23.0722C42.9945 21.3436 45.0778 20.3521 47.309 20.3521C51.1307 20.3521 53.1255 23.174 53.1151 23.1649C53.7265 23.6993 54.3252 22.9744 54.1998 23.0876C57.4637 19.2829 62.6803 19.6599 65.4769 22.8715V24.6601C64.2533 23.6812 62.8025 23.0482 61.2414 22.8175C60.826 22.7571 60.438 23.0415 60.3761 23.4552C60.3142 23.8689 60.6014 24.2542 61.0176 24.3158C62.5018 24.5346 63.8661 25.1945 64.9631 26.2227C65.3138 26.552 65.8268 26.6419 66.2695 26.4522C66.7135 26.2617 66.9999 25.8287 66.9999 25.3483V22.6053C67.0015 22.5039 66.9821 22.4014 66.9404 22.3032ZM27.939 21.0431C25.129 18.5683 21.0093 18.1317 17.7363 19.9589L19.3716 16.1905C20.5932 14.859 22.3384 14.0974 24.1784 14.0974C26.0323 14.0974 27.7684 14.8582 28.9908 16.1956L27.939 21.0431ZM29.368 14.4571C27.9362 13.2534 26.1081 12.5829 24.1784 12.5829C22.9093 12.5829 21.6758 12.8775 20.5713 13.4254L22.2086 9.6522C23.2544 8.4844 24.7608 7.81669 26.3596 7.81669C27.9228 7.81669 29.3879 8.4489 30.4301 9.56188L29.368 14.4571ZM40.2385 20.7745C38.6805 19.5278 36.7369 18.8372 34.6898 18.8372C32.8541 18.8372 31.101 19.3929 29.635 20.4073L30.5392 16.2421C31.7635 14.8759 33.5178 14.0974 35.3924 14.0974C37.2634 14.0974 39.0145 14.8724 40.2385 16.2323V20.7745ZM40.2385 14.1842C38.8634 13.1524 37.1709 12.5829 35.3924 12.5829C33.8305 12.5829 32.3352 13.0223 31.0629 13.8284L31.9694 9.64944C33.016 8.48203 34.516 7.81629 36.1196 7.81629C37.7069 7.81629 39.1931 8.46823 40.2385 9.61394V14.1842ZM40.2385 7.59977C39.0542 6.76247 37.6216 6.30222 36.1196 6.30222C34.8152 6.30222 33.5639 6.64928 32.482 7.28899L33.7349 1.51506H40.2385V7.59977ZM53.4643 1.51506C54.516 1.51506 55.5042 1.85976 56.3223 2.5117C56.6932 2.80749 56.9979 3.21372 57.203 3.6866L58.6174 6.94626C57.6974 6.52663 56.6837 6.30222 55.6395 6.30222C53.9979 6.30222 52.4391 6.85239 51.1973 7.8439L49.8239 1.51506H53.4643ZM41.7619 1.51506H48.2655L49.5184 7.28899C48.4361 6.64928 47.184 6.30222 45.8796 6.30222C44.3775 6.30222 42.9457 6.76247 41.7619 7.59977V1.51506ZM41.7619 9.61394C42.8069 8.46823 44.2926 7.81669 45.8796 7.81669C47.4836 7.81669 48.984 8.48203 50.0306 9.64944L50.9375 13.8284C49.6648 13.0223 48.1691 12.5829 46.6064 12.5829C44.8282 12.5829 43.1366 13.1524 41.7619 14.1842V9.61394ZM47.309 18.8372C45.2627 18.8372 43.3195 19.5278 41.7619 20.7745V16.2327C42.9858 14.8724 44.7362 14.0974 46.6068 14.0974C48.4821 14.0974 50.2369 14.8759 51.4612 16.2421L52.3649 20.4077C50.899 19.3933 49.1459 18.8372 47.309 18.8372ZM51.5699 9.56188C52.6125 8.4489 54.0768 7.81669 55.6395 7.81669C57.2392 7.81669 58.7459 8.4844 59.7917 9.6522L61.429 13.4254C60.3241 12.8775 59.0907 12.5829 57.8208 12.5829C55.8915 12.5829 54.0637 13.2534 52.6323 14.4571L51.5699 9.56188ZM54.0613 21.0431L53.0096 16.1956C54.2315 14.8582 55.9676 14.0974 57.8208 14.0974C59.6616 14.0974 61.4068 14.859 62.6287 16.1905L64.2645 19.9589C61.0513 18.166 56.9281 18.5178 54.0613 21.0431Z" fill="#F59D0D"/>
<path d="M33.3066 38.1636V46H31.7598V39.9468L29.9014 40.5376V39.3184L33.1401 38.1636H33.3066ZM37.3081 42.439L36.0728 42.1436L36.5186 38.1797H40.9121V39.4312H37.7915L37.5981 41.166C37.702 41.1051 37.8595 41.0407 38.0708 40.9727C38.2821 40.901 38.5184 40.8652 38.7798 40.8652C39.1593 40.8652 39.4959 40.9243 39.7896 41.0425C40.0832 41.1606 40.332 41.3325 40.5361 41.5581C40.7438 41.7837 40.9014 42.0594 41.0088 42.3853C41.1162 42.7111 41.1699 43.0799 41.1699 43.4917C41.1699 43.839 41.1162 44.1702 41.0088 44.4854C40.9014 44.7969 40.7384 45.0762 40.52 45.3232C40.3016 45.5667 40.0277 45.7583 39.6982 45.8979C39.3688 46.0376 38.9785 46.1074 38.5273 46.1074C38.1908 46.1074 37.8649 46.0573 37.5498 45.957C37.2383 45.8568 36.9572 45.7082 36.7065 45.5112C36.4595 45.3143 36.2607 45.0762 36.1104 44.7969C35.9635 44.514 35.8866 44.1917 35.8794 43.8301H37.4155C37.437 44.0521 37.4943 44.2437 37.5874 44.4048C37.6841 44.5623 37.8112 44.6841 37.9688 44.77C38.1263 44.856 38.3107 44.8989 38.522 44.8989C38.7189 44.8989 38.8872 44.8613 39.0269 44.7861C39.1665 44.7109 39.2793 44.6071 39.3652 44.4746C39.4512 44.3385 39.5138 44.181 39.5532 44.002C39.5962 43.8193 39.6177 43.6224 39.6177 43.4111C39.6177 43.1999 39.5926 43.0083 39.5425 42.8364C39.4924 42.6646 39.4154 42.516 39.3115 42.3906C39.2077 42.2653 39.0752 42.1686 38.9141 42.1006C38.7565 42.0326 38.5721 41.9985 38.3608 41.9985C38.0744 41.9985 37.8524 42.0433 37.6948 42.1328C37.5409 42.2223 37.4119 42.3244 37.3081 42.439ZM47.4326 41.4023V42.7559C47.4326 43.3431 47.37 43.8498 47.2446 44.2759C47.1193 44.6984 46.9385 45.0457 46.7021 45.3179C46.4694 45.5864 46.1919 45.7852 45.8696 45.9141C45.5474 46.043 45.1893 46.1074 44.7954 46.1074C44.4803 46.1074 44.1867 46.068 43.9146 45.9893C43.6424 45.9069 43.3971 45.7798 43.1787 45.6079C42.9639 45.436 42.7777 45.2194 42.6201 44.958C42.4661 44.693 42.348 44.3779 42.2656 44.0127C42.1833 43.6475 42.1421 43.2285 42.1421 42.7559V41.4023C42.1421 40.8151 42.2048 40.312 42.3301 39.8931C42.459 39.4705 42.6398 39.125 42.8726 38.8564C43.1089 38.5879 43.3882 38.391 43.7104 38.2656C44.0327 38.1367 44.3908 38.0723 44.7847 38.0723C45.0998 38.0723 45.3916 38.1134 45.6602 38.1958C45.9323 38.2746 46.1776 38.3981 46.396 38.5664C46.6144 38.7347 46.8006 38.9513 46.9546 39.2163C47.1086 39.4777 47.2267 39.791 47.3091 40.1562C47.3914 40.5179 47.4326 40.9333 47.4326 41.4023ZM45.8804 42.96V41.1929C45.8804 40.91 45.8643 40.6629 45.832 40.4517C45.8034 40.2404 45.7586 40.0614 45.6978 39.9146C45.6369 39.7642 45.5617 39.6424 45.4722 39.5493C45.3826 39.4562 45.2806 39.3882 45.166 39.3452C45.0514 39.3022 44.9243 39.2808 44.7847 39.2808C44.6092 39.2808 44.4535 39.3148 44.3174 39.3828C44.1849 39.4508 44.0721 39.5601 43.979 39.7104C43.8859 39.8573 43.8143 40.0542 43.7642 40.3013C43.7176 40.5448 43.6943 40.842 43.6943 41.1929V42.96C43.6943 43.2428 43.7087 43.4917 43.7373 43.7065C43.7695 43.9214 43.8161 44.1058 43.877 44.2598C43.9414 44.4102 44.0166 44.5337 44.1025 44.6304C44.1921 44.7235 44.2941 44.7915 44.4087 44.8345C44.5269 44.8774 44.6558 44.8989 44.7954 44.8989C44.9673 44.8989 45.1195 44.8649 45.252 44.7969C45.388 44.7253 45.5026 44.6143 45.5957 44.4639C45.6924 44.3099 45.764 44.1094 45.8105 43.8623C45.8571 43.6152 45.8804 43.3145 45.8804 42.96ZM50.0967 37.7446V46H48.5498V37.7446H50.0967ZM53.7598 40.1885L51.2354 43.0674L49.8818 44.437L49.3179 43.3198L50.3921 41.9556L51.9014 40.1885H53.7598ZM52.1538 46L50.4351 43.3145L51.5039 42.3799L53.937 46H52.1538ZM57.9976 40.1885H59.3994V45.8066C59.3994 46.3366 59.2812 46.786 59.0449 47.1548C58.8122 47.5272 58.4863 47.8083 58.0674 47.998C57.6484 48.1914 57.1615 48.2881 56.6064 48.2881C56.363 48.2881 56.1051 48.2559 55.833 48.1914C55.5645 48.127 55.3066 48.0267 55.0596 47.8906C54.8161 47.7546 54.612 47.5827 54.4473 47.375L55.1294 46.4619C55.3084 46.6696 55.5161 46.8307 55.7524 46.9453C55.9888 47.0635 56.2502 47.1226 56.5366 47.1226C56.8159 47.1226 57.0522 47.0706 57.2456 46.9668C57.439 46.8665 57.5876 46.7179 57.6914 46.521C57.7952 46.3276 57.8472 46.0931 57.8472 45.8174V41.5312L57.9976 40.1885ZM54.0874 43.1641V43.0513C54.0874 42.6073 54.1411 42.2044 54.2485 41.8428C54.3595 41.4775 54.5153 41.1642 54.7158 40.9028C54.9199 40.6414 55.167 40.4391 55.457 40.2959C55.7471 40.1527 56.0747 40.0811 56.4399 40.0811C56.8267 40.0811 57.1507 40.1527 57.4121 40.2959C57.6735 40.4391 57.8883 40.6432 58.0566 40.9082C58.2249 41.1696 58.3556 41.4793 58.4487 41.8374C58.5454 42.1919 58.6206 42.5804 58.6743 43.0029V43.25C58.6206 43.6546 58.54 44.0306 58.4326 44.3779C58.3252 44.7253 58.1838 45.0296 58.0083 45.291C57.8328 45.5488 57.6144 45.7493 57.353 45.8926C57.0952 46.0358 56.7873 46.1074 56.4292 46.1074C56.0711 46.1074 55.7471 46.034 55.457 45.8872C55.1706 45.7404 54.9253 45.5345 54.7212 45.2695C54.5171 45.0046 54.3595 44.693 54.2485 44.335C54.1411 43.9769 54.0874 43.5866 54.0874 43.1641ZM55.6343 43.0513V43.1641C55.6343 43.404 55.6576 43.6278 55.7041 43.8354C55.7507 44.0431 55.8223 44.2275 55.9189 44.3887C56.0192 44.5462 56.1427 44.6698 56.2896 44.7593C56.4399 44.8452 56.6172 44.8882 56.8213 44.8882C57.1042 44.8882 57.3351 44.8291 57.5142 44.7109C57.6932 44.5892 57.8275 44.4227 57.917 44.2114C58.0065 44.0002 58.0584 43.7567 58.0728 43.481V42.7773C58.0656 42.5518 58.0352 42.3494 57.9814 42.1704C57.9277 41.9878 57.8525 41.832 57.7559 41.7031C57.6592 41.5742 57.5339 41.474 57.3799 41.4023C57.2259 41.3307 57.0433 41.2949 56.832 41.2949C56.6279 41.2949 56.4507 41.3415 56.3003 41.4346C56.1535 41.5241 56.0299 41.6476 55.9297 41.8052C55.833 41.9627 55.7596 42.1489 55.7095 42.3638C55.6593 42.575 55.6343 42.8042 55.6343 43.0513Z" fill="#1C1C1C"/>
</svg>
