<svg width="91" height="21" viewBox="0 0 91 21" fill="none" xmlns="http://www.w3.org/2000/svg">
<path d="M5.37158 14.9276L12.7384 2.3995L20.1053 14.9276H5.37158Z" stroke="#1C1C1C"/>
<path d="M25.4746 16.8822C25.4746 17.4345 25.0269 17.8822 24.4746 17.8822L1.00007 17.8822C0.447784 17.8822 7.05335e-05 17.4345 7.04862e-05 16.8822L7.01499e-05 12.9578C7.01026e-05 12.4055 0.447786 11.9578 1.00007 11.9578L24.4746 11.9578C25.0269 11.9578 25.4746 12.4055 25.4746 12.9578L25.4746 16.8822Z" fill="#979797"/>
<ellipse cx="20.0163" cy="14.9776" rx="1.37563" ry="1.40339" fill="#1C1C1C"/>
<ellipse cx="20.0163" cy="14.9776" rx="1.37563" ry="1.40339" fill="#1C1C1C"/>
<ellipse cx="20.0163" cy="14.9776" rx="1.37563" ry="1.40339" fill="#1C1C1C"/>
<ellipse cx="20.0163" cy="14.9776" rx="1.37563" ry="1.40339" fill="#1C1C1C"/>
<ellipse cx="12.6867" cy="1.55933" rx="1.52848" ry="1.55933" fill="#1C1C1C"/>
<ellipse cx="12.6867" cy="1.55933" rx="1.52848" ry="1.55933" fill="#1C1C1C"/>
<ellipse cx="12.6867" cy="1.55933" rx="1.52848" ry="1.55933" fill="#1C1C1C"/>
<ellipse cx="12.6867" cy="1.55933" rx="1.52848" ry="1.55933" fill="#1C1C1C"/>
<ellipse cx="5.72915" cy="14.9776" rx="1.37563" ry="1.40339" fill="#1C1C1C"/>
<ellipse cx="5.72915" cy="14.9776" rx="1.37563" ry="1.40339" fill="#1C1C1C"/>
<ellipse cx="5.72915" cy="14.9776" rx="1.37563" ry="1.40339" fill="#1C1C1C"/>
<ellipse cx="5.72915" cy="14.9776" rx="1.37563" ry="1.40339" fill="#1C1C1C"/>
<path d="M70.897 14.9276L78.2638 2.3995L85.6307 14.9276H70.897Z" stroke="#1C1C1C"/>
<path d="M91 16.8822C91 17.4345 90.5523 17.8822 90 17.8822L66.5255 17.8822C65.9732 17.8822 65.5255 17.4345 65.5255 16.8822L65.5255 12.9578C65.5255 12.4055 65.9732 11.9578 66.5255 11.9578L90 11.9578C90.5523 11.9578 91 12.4055 91 12.9578L91 16.8822Z" fill="#979797"/>
<ellipse cx="85.5416" cy="14.9776" rx="1.37563" ry="1.40339" fill="#1C1C1C"/>
<ellipse cx="85.5416" cy="14.9776" rx="1.37563" ry="1.40339" fill="#1C1C1C"/>
<ellipse cx="85.5416" cy="14.9776" rx="1.37563" ry="1.40339" fill="#1C1C1C"/>
<ellipse cx="85.5416" cy="14.9776" rx="1.37563" ry="1.40339" fill="#1C1C1C"/>
<ellipse cx="78.2121" cy="1.55933" rx="1.52848" ry="1.55933" fill="#1C1C1C"/>
<ellipse cx="78.2121" cy="1.55933" rx="1.52848" ry="1.55933" fill="#1C1C1C"/>
<ellipse cx="78.2121" cy="1.55933" rx="1.52848" ry="1.55933" fill="#1C1C1C"/>
<ellipse cx="78.2121" cy="1.55933" rx="1.52848" ry="1.55933" fill="#1C1C1C"/>
<ellipse cx="71.2545" cy="14.9776" rx="1.37563" ry="1.40339" fill="#1C1C1C"/>
<ellipse cx="71.2545" cy="14.9776" rx="1.37563" ry="1.40339" fill="#1C1C1C"/>
<ellipse cx="71.2545" cy="14.9776" rx="1.37563" ry="1.40339" fill="#1C1C1C"/>
<ellipse cx="71.2545" cy="14.9776" rx="1.37563" ry="1.40339" fill="#1C1C1C"/>
<path d="M25.684 16.7639V12.6459C25.684 12.0936 25.2362 11.6459 24.684 11.6459H22.0859C21.5337 11.6459 21.0859 11.1982 21.0859 10.6459V4.48389C21.0859 3.9316 21.5337 3.48389 22.0859 3.48389H69.5808C70.1331 3.48389 70.5808 3.9316 70.5808 4.48389V10.6459C70.5808 11.1982 70.1331 11.6459 69.5808 11.6459H66.1942C65.6419 11.6459 65.1942 12.0936 65.1942 12.6459V16.7639C65.1942 17.3161 64.7465 17.7639 64.1942 17.7639H26.684C26.1317 17.7639 25.684 17.3161 25.684 16.7639Z" fill="#E0EAFE" stroke="#F59D0D" stroke-width="0.5"/>
</svg>
