<svg width="167" height="129" viewBox="0 0 167 129" fill="none" xmlns="http://www.w3.org/2000/svg">
<path d="M33.1142 38.7378H52.2862C53.745 38.7378 54.9277 39.9709 54.9277 41.4926V87.5912C54.9277 87.5912 54.9281 87.596 54.9281 87.5986C54.9281 89.1204 53.7454 90.3534 52.2866 90.3534H20.6245C21.6589 94.2432 24.9319 97.1722 28.8987 97.5314C30.9394 93.7602 34.8161 91.2067 39.2559 91.2067C43.7109 91.2067 47.5988 93.7775 49.6342 97.5692H105.745C107.78 93.7771 111.668 91.2067 116.123 91.2067C120.578 91.2067 124.466 93.7775 126.501 97.5692H136.637V90.3531H66.6616C65.2028 90.3531 64.0201 89.12 64.0201 87.5982C64.0201 86.0764 65.2028 84.8434 66.6616 84.8434H139.279C140.738 84.8434 141.92 86.0764 141.92 87.5982V100.324C141.92 101.846 140.738 103.079 139.279 103.079H127.997C128.004 103.253 128.009 103.427 128.009 103.603C128.009 110.439 122.677 116 116.122 116C109.568 116 104.236 110.439 104.236 103.603C104.236 103.427 104.241 103.253 104.248 103.079H51.1303C51.1374 103.253 51.143 103.427 51.143 103.603C51.143 110.439 45.8107 116 39.2562 116C32.7018 116 27.3695 110.439 27.3695 103.603C27.3695 103.362 27.3779 103.123 27.391 102.885C20.3773 101.716 15.0002 95.3643 15.0002 87.7257V57.629C15.0002 47.2128 23.1262 38.7378 33.1142 38.7378ZM116.122 110.49C119.764 110.49 122.726 107.401 122.726 103.603C122.726 99.8058 119.764 96.7163 116.122 96.7163C112.481 96.7163 109.519 99.8058 109.519 103.603C109.519 107.401 112.481 110.49 116.122 110.49ZM39.2562 110.49C42.8976 110.49 45.86 107.401 45.86 103.603C45.86 99.8058 42.8976 96.7163 39.2562 96.7163C35.6148 96.7163 32.6525 99.8058 32.6525 103.603C32.6525 107.401 35.6148 110.49 39.2562 110.49ZM20.2832 57.6293V61.8196H39.6658V44.2475H33.1142C26.0392 44.2475 20.2832 50.2504 20.2832 57.6293ZM49.6447 84.8438V44.2475H44.9488V64.5744C44.9488 66.0962 43.7662 67.3293 42.3073 67.3293H20.2832V84.8438H49.6447Z" fill="#F59D0D"/>
<path d="M84.1322 53.7205L83.2744 57.682C82.9816 59.0347 81.7849 60 80.4009 60C78.6074 60 77.2318 58.4081 77.4918 56.6336L78.1254 52.3095C78.1986 51.8098 78.3471 51.324 78.5659 50.8687L89.3257 28.4783C89.8844 27.3158 90.8707 26.4141 92.0786 25.9617L121.299 15.0174C122.979 14.3883 124.867 14.7072 126.247 15.8533L145.268 31.6496C146.065 32.3113 146.637 33.2041 146.904 34.2046L149.752 44.8544C149.876 45.3204 149.525 45.7778 149.043 45.7778C148.747 45.7778 148.481 45.6006 148.366 45.3282L144.092 35.1565C143.773 34.3973 143.271 33.7286 142.631 33.2099L125.042 18.9466C123.643 17.8122 121.742 17.5179 120.065 18.176L95.9459 27.6445C94.6469 28.1544 93.6202 29.184 93.1138 30.4844L84.3598 52.9642C84.2641 53.2099 84.188 53.4628 84.1322 53.7205Z" stroke="#F59D0D" stroke-width="3"/>
<path d="M148.944 41.042L148.944 51.4141" stroke="#F59D0D" stroke-width="2"/>
<path d="M58.3149 46.0669L58.3149 87.0375" stroke="#F59D0D" stroke-width="3" stroke-linecap="round"/>
<path d="M138.888 59.9062H69.3696C66.6082 59.9062 64.3696 62.1448 64.3696 64.9063V76.6493C64.3696 79.4107 66.6082 81.6493 69.3696 81.6493H144.231C147.869 81.6493 150.289 77.8892 148.782 74.5785L143.439 62.8354C142.627 61.0514 140.848 59.9062 138.888 59.9062Z" fill="#E0EAFE"/>
<path d="M143.439 62.8354L142.074 63.4567L142.074 63.4567L143.439 62.8354ZM148.782 74.5785L147.417 75.1997L147.417 75.1997L148.782 74.5785ZM69.3696 61.4062H138.888V58.4062H69.3696V61.4062ZM142.074 63.4567L147.417 75.1997L150.148 73.9572L144.804 62.2142L142.074 63.4567ZM144.231 80.1493H69.3696V83.1493H144.231V80.1493ZM65.8696 76.6493V64.9063H62.8696V76.6493H65.8696ZM69.3696 80.1493C67.4366 80.1493 65.8696 78.5823 65.8696 76.6493H62.8696C62.8696 80.2392 65.7798 83.1493 69.3696 83.1493V80.1493ZM147.417 75.1997C148.471 77.5172 146.777 80.1493 144.231 80.1493V83.1493C148.96 83.1493 152.106 78.2611 150.148 73.9572L147.417 75.1997ZM138.888 61.4062C140.26 61.4062 141.505 62.2079 142.074 63.4567L144.804 62.2142C143.749 59.895 141.436 58.4062 138.888 58.4062V61.4062ZM69.3696 58.4062C65.7798 58.4062 62.8696 61.3164 62.8696 64.9063H65.8696C65.8696 62.9733 67.4366 61.4062 69.3696 61.4062V58.4062Z" fill="#F59D0D"/>
<rect x="20" y="67" width="30" height="18" fill="#E0EAFE"/>
<rect x="45" y="44" width="5" height="24" fill="#E0EAFE"/>
<path d="M48 103.5C48 108.863 43.8563 113 39 113C34.1437 113 30 108.863 30 103.5C30 98.1367 34.1437 94 39 94C43.8563 94 48 98.1367 48 103.5Z" stroke="#979797" stroke-width="6"/>
<path d="M125 103.5C125 108.863 120.856 113 116 113C111.144 113 107 108.863 107 103.5C107 98.1367 111.144 94 116 94C120.856 94 125 98.1367 125 103.5Z" stroke="#979797" stroke-width="6"/>
</svg>
