<svg width="82" height="57" viewBox="0 0 82 57" fill="none" xmlns="http://www.w3.org/2000/svg">
<rect x="8.25" y="46.3774" width="3.5" height="9.5" fill="#979797" stroke="black" stroke-width="0.5"/>
<rect x="8.25" y="37.3774" width="3.5" height="9.5" fill="#979797" stroke="black" stroke-width="0.5"/>
<rect x="8.25" y="34.3774" width="3.5" height="3.5" fill="#979797" stroke="black" stroke-width="0.5"/>
<rect x="81.75" y="30.3774" width="3.5" height="81.5" transform="rotate(90 81.75 30.3774)" fill="#979797" stroke="black" stroke-width="0.5"/>
<rect x="70.25" y="46.3774" width="3.5" height="9.5" fill="#979797" stroke="black" stroke-width="0.5"/>
<rect x="70.25" y="37.3774" width="3.5" height="9.5" fill="#979797" stroke="black" stroke-width="0.5"/>
<rect x="70.25" y="34.3774" width="3.5" height="3.5" fill="#979797" stroke="black" stroke-width="0.5"/>
<path d="M47.9336 12.4663H43.4004V14.7329H47.9336V12.4663Z" fill="#F59D0D"/>
<path d="M11.1333 16.9996H12.2664V9.06633C12.2664 8.44054 12.7737 7.93326 13.3999 7.93326H32.8173L33.5335 2.91819C33.7793 1.24743 35.2093 0.00691753 36.8986 2.74831e-07H51.5024C52.8269 -0.00046097 54.0845 0.579673 54.9445 1.58638L60.4221 7.97292L71.548 8.82837C73.9049 9.02021 75.7228 10.9833 75.7334 13.3482V16.9996H76.8665C77.4927 16.9996 78 17.5073 78 18.1331V22.6663C78 23.2925 77.4927 23.7998 76.8665 23.7998H69.9648C69.3423 27.4987 65.8393 29.9931 62.1404 29.371C59.2854 28.891 57.0488 26.6544 56.5687 23.7998H31.4311C30.809 27.4987 27.3061 29.9931 23.6067 29.371C20.7521 28.891 18.5155 26.6544 18.0354 23.7998H11.1333C10.5071 23.7998 9.9998 23.2921 9.9998 22.6663V18.1331C9.9998 17.5073 10.5071 16.9996 11.1333 16.9996ZM42.8664 2.26658H36.8986C36.335 2.26704 35.8573 2.68116 35.7775 3.2387L35.1065 7.93326H42.8664V2.26658ZM71.1998 21.5332H75.7334V19.2662H71.1998V21.5332ZM71.1998 16.9996H73.4668V13.3482C73.4622 12.1653 72.5524 11.183 71.3732 11.0885L61 10.2902V12.4664H66.6666C69.1702 12.4664 71.1998 14.496 71.1998 16.9996ZM63.2665 27.1999C65.7701 27.1999 67.8002 25.1703 67.8002 22.6663C67.8002 20.1627 65.7701 18.1331 63.2665 18.1331C60.7629 18.1331 58.7334 20.1627 58.7334 22.6663C58.7334 25.1703 60.7629 27.1999 63.2665 27.1999ZM57.5998 18.9152C57.7331 18.7132 57.877 18.5186 58.0315 18.3328L58.0444 18.318C58.2754 18.0423 58.5286 17.7854 58.8012 17.5507C58.8298 17.5258 58.8556 17.4986 58.8851 17.4737C59.1507 17.2509 59.4329 17.0489 59.7295 16.8695L59.877 16.7801C60.174 16.609 60.4835 16.4605 60.8026 16.3355L60.9704 16.2733C61.3029 16.1529 61.6437 16.0588 61.9905 15.991C62.0357 15.9823 62.0814 15.9777 62.1266 15.9698C62.7662 15.8527 63.4196 15.8352 64.0643 15.9173C64.146 15.9265 64.2253 15.9412 64.306 15.9537C64.4872 15.9823 64.6666 16.0159 64.8432 16.0579C64.9304 16.0796 65.0166 16.1013 65.1029 16.1248C65.2795 16.1746 65.4519 16.2327 65.623 16.2959C65.6931 16.3222 65.7655 16.3447 65.8347 16.3729C66.0671 16.4683 66.294 16.5762 66.5149 16.6961C66.5407 16.7109 66.5647 16.728 66.5905 16.7427C66.7847 16.8562 66.9728 16.9692 67.1573 17.0974C67.2242 17.1439 67.2864 17.1951 67.3524 17.2435C67.4907 17.3478 67.6268 17.4575 67.7568 17.5733C67.8204 17.63 67.8841 17.6867 67.9463 17.7457C68.0801 17.8726 68.2069 18.0049 68.3296 18.1423C68.3748 18.1931 68.4236 18.2419 68.4674 18.2941C68.6298 18.485 68.781 18.6851 68.9208 18.8926L68.9337 18.9115V16.9996C68.9337 15.748 67.9187 14.733 66.6666 14.733H59.8669C58.6149 14.733 57.5998 15.748 57.5998 16.9996V18.9152ZM45.1334 16.9996H53.0667V19.2666H45.1334V21.5332H55.3333V17.0001C55.3411 14.9391 56.7379 13.1429 58.7334 12.6274V10.1998H45.1334V16.9996ZM45.1334 7.93326H57.4029L53.2239 3.05977C52.7937 2.55665 52.1647 2.26658 51.5024 2.26612H45.1334V7.93326ZM24.7333 27.1999C27.2369 27.1999 29.2664 25.1703 29.2664 22.6663C29.2664 20.1627 27.2369 18.1331 24.7333 18.1331C22.2297 18.1331 20.1996 20.1627 20.1996 22.6663C20.1996 25.1703 22.2297 27.1999 24.7333 27.1999ZM19.0666 18.1331V18.9115L19.08 18.8926C19.2201 18.6847 19.3714 18.485 19.5333 18.2941C19.5775 18.2419 19.6264 18.1931 19.6716 18.1423C19.7938 18.0049 19.9211 17.8726 20.0535 17.7457C20.1157 17.6867 20.1803 17.6323 20.2448 17.5723C20.3749 17.458 20.5095 17.3487 20.6483 17.2435C20.7129 17.1947 20.7766 17.1435 20.8434 17.0974C21.0247 16.9705 21.2128 16.8516 21.4102 16.7427C21.436 16.728 21.46 16.7109 21.4858 16.6961C21.7067 16.5762 21.9336 16.4683 22.166 16.3729C22.2352 16.3447 22.3076 16.3222 22.3781 16.2959C22.5492 16.2322 22.718 16.1746 22.8983 16.1248C22.9846 16.1008 23.0703 16.0782 23.1575 16.0579C23.3346 16.0159 23.5135 15.9818 23.6947 15.9537C23.7754 15.9412 23.8548 15.9265 23.9364 15.9173C24.5811 15.8352 25.235 15.8527 25.8742 15.9694C25.9198 15.9777 25.965 15.9823 26.0102 15.991C26.357 16.0584 26.6983 16.1529 27.0303 16.2733L27.1981 16.3355C27.5173 16.4605 27.8267 16.609 28.1241 16.7796L28.2713 16.8691C28.5678 17.0489 28.85 17.2509 29.1156 17.4732C29.1451 17.4981 29.1714 17.5253 29.1996 17.5502C29.4721 17.7854 29.7253 18.0423 29.9568 18.3176L29.9692 18.3323C30.1233 18.5186 30.2671 18.7128 30.4 18.9152V16.9996C30.4 15.748 29.3849 14.733 28.1334 14.733H21.3332C20.0811 14.733 19.0666 15.748 19.0666 16.9996V18.1331ZM21.3332 12.4664H28.1334C30.637 12.4664 32.6665 14.496 32.6665 16.9996V21.5332H42.8664V19.2662H34.9331V16.9996H42.8664V10.1998H14.533V16.9996H16.8C16.8 14.496 18.8296 12.4664 21.3332 12.4664ZM12.2664 21.5332H16.7995V19.2662H12.2664V21.5332Z" fill="#F59D0D"/>
<path d="M28.9917 45.439L27.7563 45.1436L28.2021 41.1797H32.5957V42.4312H29.4751L29.2817 44.166C29.3856 44.1051 29.5431 44.0407 29.7544 43.9727C29.9657 43.901 30.202 43.8652 30.4634 43.8652C30.8429 43.8652 31.1795 43.9243 31.4731 44.0425C31.7668 44.1606 32.0156 44.3325 32.2197 44.5581C32.4274 44.7837 32.585 45.0594 32.6924 45.3853C32.7998 45.7111 32.8535 46.0799 32.8535 46.4917C32.8535 46.839 32.7998 47.1702 32.6924 47.4854C32.585 47.7969 32.422 48.0762 32.2036 48.3232C31.9852 48.5667 31.7113 48.7583 31.3818 48.8979C31.0524 49.0376 30.6621 49.1074 30.2109 49.1074C29.8743 49.1074 29.5485 49.0573 29.2334 48.957C28.9219 48.8568 28.6408 48.7082 28.3901 48.5112C28.1431 48.3143 27.9443 48.0762 27.7939 47.7969C27.6471 47.514 27.5701 47.1917 27.563 46.8301H29.0991C29.1206 47.0521 29.1779 47.2437 29.271 47.4048C29.3677 47.5623 29.4948 47.6841 29.6523 47.77C29.8099 47.856 29.9943 47.8989 30.2056 47.8989C30.4025 47.8989 30.5708 47.8613 30.7104 47.7861C30.8501 47.7109 30.9629 47.6071 31.0488 47.4746C31.1348 47.3385 31.1974 47.181 31.2368 47.002C31.2798 46.8193 31.3013 46.6224 31.3013 46.4111C31.3013 46.1999 31.2762 46.0083 31.2261 45.8364C31.1759 45.6646 31.099 45.516 30.9951 45.3906C30.8913 45.2653 30.7588 45.1686 30.5977 45.1006C30.4401 45.0326 30.2557 44.9985 30.0444 44.9985C29.758 44.9985 29.536 45.0433 29.3784 45.1328C29.2244 45.2223 29.0955 45.3244 28.9917 45.439ZM39.1162 44.4023V45.7559C39.1162 46.3431 39.0535 46.8498 38.9282 47.2759C38.8029 47.6984 38.6221 48.0457 38.3857 48.3179C38.153 48.5864 37.8755 48.7852 37.5532 48.9141C37.231 49.043 36.8729 49.1074 36.479 49.1074C36.1639 49.1074 35.8703 49.068 35.5981 48.9893C35.326 48.9069 35.0807 48.7798 34.8623 48.6079C34.6475 48.436 34.4613 48.2194 34.3037 47.958C34.1497 47.693 34.0316 47.3779 33.9492 47.0127C33.8669 46.6475 33.8257 46.2285 33.8257 45.7559V44.4023C33.8257 43.8151 33.8883 43.312 34.0137 42.8931C34.1426 42.4705 34.3234 42.125 34.5562 41.8564C34.7925 41.5879 35.0718 41.391 35.394 41.2656C35.7163 41.1367 36.0744 41.0723 36.4683 41.0723C36.7834 41.0723 37.0752 41.1134 37.3438 41.1958C37.6159 41.2746 37.8612 41.3981 38.0796 41.5664C38.298 41.7347 38.4842 41.9513 38.6382 42.2163C38.7922 42.4777 38.9103 42.791 38.9927 43.1562C39.075 43.5179 39.1162 43.9333 39.1162 44.4023ZM37.564 45.96V44.1929C37.564 43.91 37.5479 43.6629 37.5156 43.4517C37.487 43.2404 37.4422 43.0614 37.3813 42.9146C37.3205 42.7642 37.2453 42.6424 37.1558 42.5493C37.0662 42.4562 36.9642 42.3882 36.8496 42.3452C36.735 42.3022 36.6079 42.2808 36.4683 42.2808C36.2928 42.2808 36.137 42.3148 36.001 42.3828C35.8685 42.4508 35.7557 42.5601 35.6626 42.7104C35.5695 42.8573 35.4979 43.0542 35.4478 43.3013C35.4012 43.5448 35.3779 43.842 35.3779 44.1929V45.96C35.3779 46.2428 35.3923 46.4917 35.4209 46.7065C35.4531 46.9214 35.4997 47.1058 35.5605 47.2598C35.625 47.4102 35.7002 47.5337 35.7861 47.6304C35.8757 47.7235 35.9777 47.7915 36.0923 47.8345C36.2104 47.8774 36.3394 47.8989 36.479 47.8989C36.6509 47.8989 36.8031 47.8649 36.9355 47.7969C37.0716 47.7253 37.1862 47.6143 37.2793 47.4639C37.376 47.3099 37.4476 47.1094 37.4941 46.8623C37.5407 46.6152 37.564 46.3145 37.564 45.96ZM45.4326 44.4023V45.7559C45.4326 46.3431 45.37 46.8498 45.2446 47.2759C45.1193 47.6984 44.9385 48.0457 44.7021 48.3179C44.4694 48.5864 44.1919 48.7852 43.8696 48.9141C43.5474 49.043 43.1893 49.1074 42.7954 49.1074C42.4803 49.1074 42.1867 49.068 41.9146 48.9893C41.6424 48.9069 41.3971 48.7798 41.1787 48.6079C40.9639 48.436 40.7777 48.2194 40.6201 47.958C40.4661 47.693 40.348 47.3779 40.2656 47.0127C40.1833 46.6475 40.1421 46.2285 40.1421 45.7559V44.4023C40.1421 43.8151 40.2048 43.312 40.3301 42.8931C40.459 42.4705 40.6398 42.125 40.8726 41.8564C41.1089 41.5879 41.3882 41.391 41.7104 41.2656C42.0327 41.1367 42.3908 41.0723 42.7847 41.0723C43.0998 41.0723 43.3916 41.1134 43.6602 41.1958C43.9323 41.2746 44.1776 41.3981 44.396 41.5664C44.6144 41.7347 44.8006 41.9513 44.9546 42.2163C45.1086 42.4777 45.2267 42.791 45.3091 43.1562C45.3914 43.5179 45.4326 43.9333 45.4326 44.4023ZM43.8804 45.96V44.1929C43.8804 43.91 43.8643 43.6629 43.832 43.4517C43.8034 43.2404 43.7586 43.0614 43.6978 42.9146C43.6369 42.7642 43.5617 42.6424 43.4722 42.5493C43.3826 42.4562 43.2806 42.3882 43.166 42.3452C43.0514 42.3022 42.9243 42.2808 42.7847 42.2808C42.6092 42.2808 42.4535 42.3148 42.3174 42.3828C42.1849 42.4508 42.0721 42.5601 41.979 42.7104C41.8859 42.8573 41.8143 43.0542 41.7642 43.3013C41.7176 43.5448 41.6943 43.842 41.6943 44.1929V45.96C41.6943 46.2428 41.7087 46.4917 41.7373 46.7065C41.7695 46.9214 41.8161 47.1058 41.877 47.2598C41.9414 47.4102 42.0166 47.5337 42.1025 47.6304C42.1921 47.7235 42.2941 47.7915 42.4087 47.8345C42.5269 47.8774 42.6558 47.8989 42.7954 47.8989C42.9673 47.8989 43.1195 47.8649 43.252 47.7969C43.388 47.7253 43.5026 47.6143 43.5957 47.4639C43.6924 47.3099 43.764 47.1094 43.8105 46.8623C43.8571 46.6152 43.8804 46.3145 43.8804 45.96ZM48.0967 40.7446V49H46.5498V40.7446H48.0967ZM51.7598 43.1885L49.2354 46.0674L47.8818 47.437L47.3179 46.3198L48.3921 44.9556L49.9014 43.1885H51.7598ZM50.1538 49L48.4351 46.3145L49.5039 45.3799L51.937 49H50.1538ZM55.9976 43.1885H57.3994V48.8066C57.3994 49.3366 57.2812 49.786 57.0449 50.1548C56.8122 50.5272 56.4863 50.8083 56.0674 50.998C55.6484 51.1914 55.1615 51.2881 54.6064 51.2881C54.363 51.2881 54.1051 51.2559 53.833 51.1914C53.5645 51.127 53.3066 51.0267 53.0596 50.8906C52.8161 50.7546 52.612 50.5827 52.4473 50.375L53.1294 49.4619C53.3084 49.6696 53.5161 49.8307 53.7524 49.9453C53.9888 50.0635 54.2502 50.1226 54.5366 50.1226C54.8159 50.1226 55.0522 50.0706 55.2456 49.9668C55.439 49.8665 55.5876 49.7179 55.6914 49.521C55.7952 49.3276 55.8472 49.0931 55.8472 48.8174V44.5312L55.9976 43.1885ZM52.0874 46.1641V46.0513C52.0874 45.6073 52.1411 45.2044 52.2485 44.8428C52.3595 44.4775 52.5153 44.1642 52.7158 43.9028C52.9199 43.6414 53.167 43.4391 53.457 43.2959C53.7471 43.1527 54.0747 43.0811 54.4399 43.0811C54.8267 43.0811 55.1507 43.1527 55.4121 43.2959C55.6735 43.4391 55.8883 43.6432 56.0566 43.9082C56.2249 44.1696 56.3556 44.4793 56.4487 44.8374C56.5454 45.1919 56.6206 45.5804 56.6743 46.0029V46.25C56.6206 46.6546 56.54 47.0306 56.4326 47.3779C56.3252 47.7253 56.1838 48.0296 56.0083 48.291C55.8328 48.5488 55.6144 48.7493 55.353 48.8926C55.0952 49.0358 54.7873 49.1074 54.4292 49.1074C54.0711 49.1074 53.7471 49.034 53.457 48.8872C53.1706 48.7404 52.9253 48.5345 52.7212 48.2695C52.5171 48.0046 52.3595 47.693 52.2485 47.335C52.1411 46.9769 52.0874 46.5866 52.0874 46.1641ZM53.6343 46.0513V46.1641C53.6343 46.404 53.6576 46.6278 53.7041 46.8354C53.7507 47.0431 53.8223 47.2275 53.9189 47.3887C54.0192 47.5462 54.1427 47.6698 54.2896 47.7593C54.4399 47.8452 54.6172 47.8882 54.8213 47.8882C55.1042 47.8882 55.3351 47.8291 55.5142 47.7109C55.6932 47.5892 55.8275 47.4227 55.917 47.2114C56.0065 47.0002 56.0584 46.7567 56.0728 46.481V45.7773C56.0656 45.5518 56.0352 45.3494 55.9814 45.1704C55.9277 44.9878 55.8525 44.832 55.7559 44.7031C55.6592 44.5742 55.5339 44.474 55.3799 44.4023C55.2259 44.3307 55.0433 44.2949 54.832 44.2949C54.6279 44.2949 54.4507 44.3415 54.3003 44.4346C54.1535 44.5241 54.0299 44.6476 53.9297 44.8052C53.833 44.9627 53.7596 45.1489 53.7095 45.3638C53.6593 45.575 53.6343 45.8042 53.6343 46.0513Z" fill="#1C1C1C"/>
</svg>
